CSLSans-Italic.ufo
<glyph name="quotedbl" format="2">
  <advance width="409"/>
  <unicode hex="0022"/>
  <outline>
    <contour>
      <point x="192" y="460" type="line"/>
      <point x="248" y="740" type="line"/>
      <point x="177" y="740" type="line"/>
      <point x="121" y="460" type="line"/>
    </contour>
    <contour>
      <point x="368" y="460" type="line"/>
      <point x="424" y="740" type="line"/>
      <point x="353" y="740" type="line"/>
      <point x="297" y="460" type="line"/>
    </contour>
  </outline>
</glyph>
<glyph name="percent" format="2">
  <advance width="900"/>
  <unicode hex="0025"/>
  <outline>
    <contour>
      <point x="198" y="0" type="line"/>
      <point x="802" y="698" type="line"/>
      <point x="722" y="698" type="line"/>
      <point x="118" y="0" type="line"/>
    </contour>
    <contour>
      <point x="227" y="314" type="qcurve"/>
      <point x="314" y="314"/>
      <point x="415" y="467"/>
      <point x="415" y="567" type="qcurve"/>
      <point x="415" y="635"/>
      <point x="349" y="710"/>
      <point x="290" y="710" type="qcurve"/>
      <point x="203" y="710"/>
      <point x="151" y="633" type="qcurve"/>
      <point x="102" y="555"/>
      <point x="102" y="457" type="qcurve"/>
      <point x="102" y="389"/>
      <point x="167" y="314"/>
    </contour>
    <contour>
      <point x="233" y="364" type="qcurve"/>
      <point x="169" y="364"/>
      <point x="168" y="439" type="qcurve"/>
      <point x="168" y="447"/>
      <point x="169" y="464"/>
      <point x="186" y="544" type="qcurve"/>
      <point x="210" y="660"/>
      <point x="284" y="660" type="qcurve"/>
      <point x="349" y="660"/>
      <point x="349" y="585" type="qcurve"/>
      <point x="349" y="577"/>
      <point x="348" y="560"/>
      <point x="331" y="480" type="qcurve"/>
      <point x="307" y="364"/>
    </contour>
    <contour>
      <point x="630" y="-12" type="qcurve"/>
      <point x="717" y="-12"/>
      <point x="818" y="141"/>
      <point x="818" y="241" type="qcurve"/>
      <point x="818" y="309"/>
      <point x="752" y="384"/>
      <point x="693" y="384" type="qcurve"/>
      <point x="606" y="384"/>
      <point x="554" y="307" type="qcurve"/>
      <point x="505" y="229"/>
      <point x="505" y="131" type="qcurve"/>
      <point x="505" y="63"/>
      <point x="570" y="-12"/>
    </contour>
    <contour>
      <point x="636" y="38" type="qcurve"/>
      <point x="572" y="38"/>
      <point x="571" y="113" type="qcurve"/>
      <point x="571" y="121"/>
      <point x="572" y="138"/>
      <point x="589" y="218" type="qcurve"/>
      <point x="613" y="334"/>
      <point x="687" y="334" type="qcurve"/>
      <point x="752" y="334"/>
      <point x="752" y="259" type="qcurve"/>
      <point x="752" y="251"/>
      <point x="751" y="234"/>
      <point x="734" y="154" type="qcurve"/>
      <point x="710" y="38"/>
    </contour>
  </outline>
</glyph>
<glyph name="ampersand" format="2">
  <advance width="670"/>
  <unicode hex="0026"/>
  <outline>
    <contour>
      <point x="214" y="-12" type="qcurve"/>
      <point x="340" y="-12"/>
      <point x="433" y="85" type="qcurve"/>
      <point x="494" y="0" type="line"/>
      <point x="580" y="0" type="line"/>
      <point x="477" y="144" type="line"/>
      <point x="521" y="213"/>
      <point x="549" y="300" type="qcurve"/>
      <point x="618" y="300" type="line"/>
      <point x="632" y="368" type="line"/>
      <point x="499" y="368" type="line"/>
      <point x="478" y="279"/>
      <point x="436" y="201" type="qcurve"/>
      <point x="322" y="361" type="line"/>
      <point x="394" y="395"/>
      <point x="453" y="446" type="qcurve"/>
      <point x="514" y="504"/>
      <point x="514" y="579" type="qcurve"/>
      <point x="514" y="645"/>
      <point x="423" y="710"/>
      <point x="367" y="710" type="qcurve"/>
      <point x="280" y="710"/>
      <point x="225" y="649" type="qcurve"/>
      <point x="173" y="586"/>
      <point x="173" y="512" type="qcurve"/>
      <point x="173" y="444"/>
      <point x="221" y="379" type="qcurve"/>
      <point x="151" y="346"/>
      <point x="95" y="293" type="qcurve"/>
      <point x="37" y="234"/>
      <point x="37" y="151" type="qcurve"/>
      <point x="37" y="79"/>
      <point x="126" y="-12"/>
    </contour>
    <contour>
      <point x="287" y="410" type="qcurve"/>
      <point x="247" y="468"/>
      <point x="247" y="517" type="qcurve"/>
      <point x="247" y="531"/>
      <point x="250" y="546" type="qcurve"/>
      <point x="259" y="589"/>
      <point x="317" y="645"/>
      <point x="360" y="645" type="qcurve"/>
      <point x="394" y="645"/>
      <point x="438" y="604"/>
      <point x="438" y="566" type="qcurve"/>
      <point x="438" y="511"/>
      <point x="348" y="438"/>
    </contour>
    <contour>
      <point x="229" y="56" type="qcurve"/>
      <point x="117" y="56"/>
      <point x="114" y="163" type="qcurve"/>
      <point x="114" y="180"/>
      <point x="117" y="194" type="qcurve"/>
      <point x="128" y="243"/>
      <point x="202" y="305"/>
      <point x="256" y="330" type="qcurve"/>
      <point x="394" y="139" type="line"/>
      <point x="325" y="56"/>
    </contour>
  </outline>
</glyph>
<glyph name="parenright" format="2">
  <advance width="328"/>
  <unicode hex="0029"/>
  <outline>
    <contour>
      <point x="0" y="-137" type="line"/>
      <point x="110" y="-52"/>
      <point x="190" y="93" type="qcurve"/>
      <point x="274" y="248"/>
      <point x="274" y="425" type="qcurve"/>
      <point x="274" y="534"/>
      <point x="216" y="703"/>
      <point x="172" y="760" type="qcurve"/>
      <point x="105" y="760" type="line"/>
      <point x="206" y="618"/>
      <point x="206" y="433" type="qcurve"/>
      <point x="206" y="384"/>
      <point x="189" y="297"/>
      <point x="180" y="254" type="qcurve"/>
      <point x="158" y="150"/>
      <point x="21" y="-57"/>
      <point x="-76" y="-137" type="qcurve"/>
    </contour>
  </outline>
</glyph>
<glyph name="comma" format="2">
  <advance width="273"/>
  <unicode hex="002C"/>
  <outline>
    <contour>
      <point x="-32" y="-133" type="line"/>
      <point x="38" y="-71"/>
      <point x="66" y="-6" type="qcurve"/>
      <point x="33" y="3"/>
      <point x="33" y="31" type="qcurve" smooth="yes"/>
      <point x="33" y="117"/>
      <point x="104" y="117" type="qcurve" smooth="yes"/>
      <point x="153" y="117"/>
      <point x="153" y="77" type="qcurve" smooth="yes"/>
      <point x="153" y="25"/>
      <point x="113" y="-44" type="qcurve" smooth="yes"/>
      <point x="83" y="-94"/>
      <point x="33" y="-133" type="qcurve"/>
    </contour>
  </outline>
</glyph>
<glyph name="hyphenminus" format="2">
  <advance width="387"/>
  <unicode hex="002D"/>
  <outline>
    <contour>
      <point x="320" y="263" type="line"/>
      <point x="336" y="345" type="line"/>
      <point x="85" y="345" type="line"/>
      <point x="69" y="263" type="line"/>
    </contour>
  </outline>
</glyph>
<glyph name="one" format="2">
  <advance width="600"/>
  <unicode hex="0031"/>
  <outline>
    <contour>
      <point x="333" y="0" type="line"/>
      <point x="252" y="0" type="line"/>
      <point x="375" y="615" type="line"/>
      <point x="207" y="523" type="line"/>
      <point x="224" y="610" type="line"/>
      <point x="380" y="698" type="line"/>
      <point x="472" y="698" type="line"/>
    </contour>
  </outline>
</glyph>
<glyph name="two" format="2">
  <advance width="600"/>
  <unicode hex="0032"/>
  <outline>
    <contour>
      <point x="470" y="0" type="line"/>
      <point x="485" y="72" type="line"/>
      <point x="136" y="72" type="line"/>
      <point x="352" y="241" type="line"/>
      <point x="442" y="310"/>
      <point x="548" y="448"/>
      <point x="548" y="536" type="qcurve"/>
      <point x="548" y="608"/>
      <point x="449" y="710"/>
      <point x="363" y="710" type="qcurve"/>
      <point x="274" y="710"/>
      <point x="162" y="622"/>
      <point x="128" y="546" type="qcurve"/>
      <point x="200" y="515" type="line"/>
      <point x="224" y="574"/>
      <point x="297" y="637"/>
      <point x="355" y="637" type="qcurve"/>
      <point x="410" y="637"/>
      <point x="437" y="602" type="qcurve"/>
      <point x="458" y="573"/>
      <point x="458" y="535" type="qcurve"/>
      <point x="458" y="510"/>
      <point x="452" y="487" type="qcurve"/>
      <point x="438" y="406"/>
      <point x="310" y="298" type="qcurve"/>
      <point x="52" y="90" type="line"/>
      <point x="34" y="0" type="line"/>
    </contour>
  </outline>
</glyph>
<glyph name="three" format="2">
  <advance width="600"/>
  <unicode hex="0033"/>
  <outline>
    <contour>
      <point x="247" y="-12" type="qcurve" smooth="yes"/>
      <point x="162" y="-12"/>
      <point x="110" y="26" type="qcurve"/>
      <point x="56" y="62"/>
      <point x="37" y="111" type="qcurve"/>
      <point x="103" y="156" type="line"/>
      <point x="139" y="61"/>
      <point x="254" y="61" type="qcurve" smooth="yes"/>
      <point x="325" y="61"/>
      <point x="395" y="127"/>
      <point x="407" y="191" type="qcurve"/>
      <point x="412" y="210"/>
      <point x="412" y="228" type="qcurve" smooth="yes"/>
      <point x="412" y="273"/>
      <point x="351" y="330"/>
      <point x="290" y="330" type="qcurve" smooth="yes"/>
      <point x="216" y="330" type="line"/>
      <point x="231" y="401" type="line"/>
      <point x="302" y="401" type="line" smooth="yes"/>
      <point x="360" y="401"/>
      <point x="433" y="456"/>
      <point x="446" y="521" type="qcurve" smooth="yes"/>
      <point x="449" y="537"/>
      <point x="449" y="547" type="qcurve" smooth="yes"/>
      <point x="449" y="592"/>
      <point x="396" y="637"/>
      <point x="347" y="637" type="qcurve" smooth="yes"/>
      <point x="247" y="637"/>
      <point x="195" y="550" type="qcurve"/>
      <point x="139" y="599" type="line"/>
      <point x="215" y="710"/>
      <point x="357" y="710" type="qcurve" smooth="yes"/>
      <point x="437" y="710"/>
      <point x="538" y="622"/>
      <point x="538" y="554" type="qcurve" smooth="yes"/>
      <point x="538" y="482"/>
      <point x="492" y="430" type="qcurve"/>
      <point x="447" y="382"/>
      <point x="380" y="368" type="qcurve"/>
      <point x="379" y="363" type="line"/>
      <point x="430" y="354"/>
      <point x="495" y="280"/>
      <point x="495" y="219" type="qcurve" smooth="yes"/>
      <point x="495" y="119"/>
      <point x="361" y="-12"/>
    </contour>
  </outline>
</glyph>
<glyph name="five" format="2">
  <advance width="600"/>
  <unicode hex="0035"/>
  <outline>
    <contour>
      <point x="263" y="-12" type="qcurve"/>
      <point x="380" y="-12"/>
      <point x="453" y="66" type="qcurve"/>
      <point x="522" y="143"/>
      <point x="522" y="257" type="qcurve"/>
      <point x="522" y="341"/>
      <point x="423" y="436"/>
      <point x="349" y="436" type="qcurve"/>
      <point x="294" y="436"/>
      <point x="229" y="395"/>
      <point x="204" y="351" type="qcurve"/>
      <point x="197" y="351" type="line"/>
      <point x="265" y="626" type="line"/>
      <point x="557" y="626" type="line"/>
      <point x="572" y="698" type="line"/>
      <point x="213" y="698" type="line"/>
      <point x="117" y="307" type="line"/>
      <point x="185" y="296" type="line"/>
      <point x="247" y="365"/>
      <point x="322" y="365" type="qcurve"/>
      <point x="438" y="365"/>
      <point x="438" y="256" type="qcurve"/>
      <point x="438" y="229"/>
      <point x="432" y="210" type="qcurve"/>
      <point x="402" y="61"/>
      <point x="273" y="61" type="qcurve"/>
      <point x="158" y="61"/>
      <point x="122" y="156" type="qcurve"/>
      <point x="56" y="111" type="line"/>
      <point x="76" y="62"/>
      <point x="127" y="26" type="qcurve"/>
      <point x="178" y="-12"/>
    </contour>
  </outline>
</glyph>
<glyph name="seven" format="2">
  <advance width="600"/>
  <unicode hex="0037"/>
  <outline>
    <contour>
      <point x="214" y="0" type="line"/>
      <point x="128" y="0" type="line"/>
      <point x="507" y="627" type="line"/>
      <point x="152" y="627" type="line"/>
      <point x="166" y="698" type="line"/>
      <point x="603" y="698" type="line"/>
      <point x="587" y="619" type="line"/>
    </contour>
  </outline>
</glyph>
<glyph name="eight" format="2">
  <advance width="600"/>
  <unicode hex="0038"/>
  <outline>
    <contour>
      <point x="264" y="-12" type="qcurve"/>
      <point x="384" y="-12"/>
      <point x="517" y="116"/>
      <point x="517" y="222" type="qcurve"/>
      <point x="517" y="272"/>
      <point x="460" y="348"/>
      <point x="409" y="360" type="qcurve"/>
      <point x="411" y="368" type="line"/>
      <point x="483" y="388"/>
      <point x="559" y="493"/>
      <point x="559" y="551" type="qcurve"/>
      <point x="559" y="623"/>
      <point x="460" y="710"/>
      <point x="372" y="710" type="qcurve"/>
      <point x="270" y="710"/>
      <point x="140" y="594"/>
      <point x="140" y="505" type="qcurve"/>
      <point x="140" y="408"/>
      <point x="231" y="374" type="qcurve"/>
      <point x="229" y="366" type="line"/>
      <point x="143" y="353"/>
      <point x="54" y="238"/>
      <point x="54" y="170" type="qcurve"/>
      <point x="54" y="91"/>
      <point x="164" y="-12"/>
    </contour>
    <contour>
      <point x="269" y="59" type="qcurve"/>
      <point x="205" y="59"/>
      <point x="137" y="116"/>
      <point x="137" y="164" type="qcurve"/>
      <point x="137" y="182"/>
      <point x="142" y="206" type="qcurve"/>
      <point x="173" y="332"/>
      <point x="303" y="332" type="qcurve"/>
      <point x="367" y="332"/>
      <point x="435" y="274"/>
      <point x="435" y="226" type="qcurve"/>
      <point x="435" y="208"/>
      <point x="430" y="184" type="qcurve"/>
      <point x="400" y="59"/>
    </contour>
    <contour>
      <point x="332" y="400" type="qcurve"/>
      <point x="224" y="400"/>
      <point x="218" y="497" type="qcurve"/>
      <point x="218" y="512"/>
      <point x="221" y="527" type="qcurve"/>
      <point x="248" y="639"/>
      <point x="362" y="639" type="qcurve"/>
      <point x="470" y="639"/>
      <point x="476" y="542" type="qcurve"/>
      <point x="476" y="527"/>
      <point x="473" y="512" type="qcurve"/>
      <point x="446" y="400"/>
    </contour>
  </outline>
</glyph>
<glyph name="nine" format="2">
  <advance width="600"/>
  <unicode hex="0039"/>
  <outline>
    <contour>
      <point x="237" y="0" type="line"/>
      <point x="369" y="74"/>
      <point x="465" y="209" type="qcurve"/>
      <point x="565" y="355"/>
      <point x="565" y="496" type="qcurve"/>
      <point x="565" y="599"/>
      <point x="463" y="710"/>
      <point x="367" y="710" type="qcurve"/>
      <point x="259" y="710"/>
      <point x="117" y="563"/>
      <point x="117" y="453" type="qcurve"/>
      <point x="117" y="365"/>
      <point x="168" y="315" type="qcurve"/>
      <point x="218" y="264"/>
      <point x="300" y="264" type="qcurve"/>
      <point x="348" y="264"/>
      <point x="425" y="310"/>
      <point x="457" y="363" type="qcurve"/>
      <point x="461" y="361" type="line"/>
      <point x="430" y="260"/>
      <point x="250" y="78"/>
      <point x="123" y="0" type="qcurve"/>
    </contour>
    <contour>
      <point x="323" y="335" type="qcurve"/>
      <point x="205" y="335"/>
      <point x="200" y="460" type="qcurve"/>
      <point x="200" y="478"/>
      <point x="204" y="496" type="qcurve"/>
      <point x="217" y="560"/>
      <point x="298" y="638"/>
      <point x="364" y="638" type="qcurve"/>
      <point x="483" y="638"/>
      <point x="487" y="513" type="qcurve"/>
      <point x="487" y="495"/>
      <point x="483" y="477" type="qcurve"/>
      <point x="470" y="413"/>
      <point x="389" y="335"/>
    </contour>
  </outline>
</glyph>
<glyph name="colon" format="2">
  <advance width="292"/>
  <unicode hex="003A"/>
  <outline>
    <contour>
      <point x="96" y="-12" type="qcurve"/>
      <point x="153" y="-12"/>
      <point x="161" y="43" type="qcurve"/>
      <point x="165" y="61"/>
      <point x="165" y="77" type="qcurve"/>
      <point x="165" y="117"/>
      <point x="116" y="117" type="qcurve"/>
      <point x="114" y="117" type="line"/>
      <point x="57" y="117"/>
      <point x="49" y="62" type="qcurve"/>
      <point x="45" y="46"/>
      <point x="45" y="28" type="qcurve"/>
      <point x="45" y="-12"/>
    </contour>
    <contour>
      <point x="178" y="394" type="qcurve"/>
      <point x="235" y="394"/>
      <point x="243" y="449" type="qcurve"/>
      <point x="247" y="467"/>
      <point x="247" y="483" type="qcurve"/>
      <point x="247" y="523"/>
      <point x="198" y="523" type="qcurve"/>
      <point x="196" y="523" type="line"/>
      <point x="139" y="523"/>
      <point x="131" y="468" type="qcurve"/>
      <point x="127" y="452"/>
      <point x="127" y="434" type="qcurve"/>
      <point x="127" y="394"/>
    </contour>
  </outline>
</glyph>
<glyph name="question" format="2">
  <advance width="470"/>
  <unicode hex="003F"/>
  <outline>
    <contour>
      <point x="244" y="208" type="line"/>
      <point x="266" y="316" type="line"/>
      <point x="370" y="336"/>
      <point x="487" y="467"/>
      <point x="487" y="549" type="qcurve"/>
      <point x="487" y="625"/>
      <point x="389" y="710"/>
      <point x="307" y="710" type="qcurve"/>
      <point x="221" y="710"/>
      <point x="115" y="621"/>
      <point x="85" y="546" type="qcurve"/>
      <point x="152" y="519" type="line"/>
      <point x="172" y="574"/>
      <point x="242" y="638"/>
      <point x="300" y="638" type="qcurve"/>
      <point x="351" y="638"/>
      <point x="403" y="587"/>
      <point x="403" y="544" type="qcurve"/>
      <point x="403" y="516"/>
      <point x="400" y="506" type="qcurve"/>
      <point x="389" y="450"/>
      <point x="283" y="376"/>
      <point x="202" y="373" type="qcurve"/>
      <point x="169" y="208" type="line"/>
    </contour>
    <contour>
      <point x="170" y="-12" type="qcurve"/>
      <point x="227" y="-12"/>
      <point x="235" y="43" type="qcurve"/>
      <point x="239" y="61"/>
      <point x="239" y="77" type="qcurve"/>
      <point x="239" y="117"/>
      <point x="190" y="117" type="qcurve"/>
      <point x="188" y="117" type="line"/>
      <point x="131" y="117"/>
      <point x="123" y="62" type="qcurve"/>
      <point x="119" y="46"/>
      <point x="119" y="28" type="qcurve"/>
      <point x="119" y="-12"/>
    </contour>
  </outline>
</glyph>
<glyph name="at" format="2">
  <advance width="863"/>
  <unicode hex="0040"/>
  <outline>
    <contour>
      <point x="360" y="-121" type="line" smooth="yes"/>
      <point x="217" y="-121"/>
      <point x="65" y="45"/>
      <point x="65" y="194" type="qcurve" smooth="yes"/>
      <point x="65" y="235"/>
      <point x="76" y="305" type="qcurve"/>
      <point x="112" y="483"/>
      <point x="228" y="594" type="qcurve" smooth="yes"/>
      <point x="349" y="708"/>
      <point x="515" y="708" type="qcurve" smooth="yes"/>
      <point x="655" y="708"/>
      <point x="818" y="546"/>
      <point x="818" y="408" type="qcurve" smooth="yes"/>
      <point x="818" y="383"/>
      <point x="809" y="320" type="qcurve"/>
      <point x="790" y="216"/>
      <point x="741" y="144" type="qcurve"/>
      <point x="688" y="69"/>
      <point x="603" y="69" type="qcurve" smooth="yes"/>
      <point x="514" y="69"/>
      <point x="514" y="159" type="qcurve" smooth="yes"/>
      <point x="514" y="171" type="line"/>
      <point x="510" y="171" type="line"/>
      <point x="492" y="127"/>
      <point x="421" y="69"/>
      <point x="373" y="69" type="qcurve" smooth="yes"/>
      <point x="321" y="69"/>
      <point x="243" y="149"/>
      <point x="243" y="227" type="qcurve" smooth="yes"/>
      <point x="243" y="256"/>
      <point x="252" y="303" type="qcurve" smooth="yes"/>
      <point x="272" y="401"/>
      <point x="370" y="509"/>
      <point x="444" y="509" type="qcurve" smooth="yes"/>
      <point x="533" y="509"/>
      <point x="554" y="420" type="qcurve"/>
      <point x="558" y="420" type="line"/>
      <point x="574" y="499" type="line"/>
      <point x="643" y="499" type="line"/>
      <point x="583" y="199" type="line"/>
      <point x="577" y="181"/>
      <point x="577" y="161" type="qcurve" smooth="yes"/>
      <point x="577" y="128"/>
      <point x="613" y="128" type="qcurve" smooth="yes"/>
      <point x="660" y="128"/>
      <point x="725" y="226"/>
      <point x="741" y="305" type="qcurve" smooth="yes"/>
      <point x="751" y="355" type="line"/>
      <point x="755" y="386"/>
      <point x="755" y="414" type="qcurve" smooth="yes"/>
      <point x="755" y="518"/>
      <point x="692" y="584" type="qcurve"/>
      <point x="627" y="649"/>
      <point x="511" y="649" type="qcurve" smooth="yes"/>
      <point x="375" y="649"/>
      <point x="179" y="473"/>
      <point x="147" y="322" type="qcurve" smooth="yes"/>
      <point x="135" y="263" type="line"/>
      <point x="129" y="221"/>
      <point x="129" y="195" type="qcurve" smooth="yes"/>
      <point x="129" y="75"/>
      <point x="246" y="-61"/>
      <point x="363" y="-61" type="qcurve" smooth="yes"/>
      <point x="593" y="-61" type="line"/>
      <point x="581" y="-121" type="line"/>
    </contour>
    <contour>
      <point x="398" y="133" type="qcurve" smooth="yes"/>
      <point x="446" y="133"/>
      <point x="513" y="199"/>
      <point x="523" y="246" type="qcurve" smooth="yes"/>
      <point x="547" y="366"/>
      <point x="547" y="372" type="qcurve" smooth="yes"/>
      <point x="547" y="396"/>
      <point x="527" y="418" type="qcurve" smooth="yes"/>
      <point x="503" y="445"/>
      <point x="456" y="445" type="qcurve" smooth="yes"/>
      <point x="408" y="445"/>
      <point x="345" y="387"/>
      <point x="327" y="293"/>
      <point x="317" y="245" type="qcurve" smooth="yes"/>
      <point x="314" y="231"/>
      <point x="314" y="217" type="qcurve" smooth="yes"/>
      <point x="314" y="178"/>
      <point x="359" y="133"/>
    </contour>
  </outline>
</glyph>
<glyph name="B" format="2">
  <advance width="627"/>
  <unicode hex="0042"/>
  <outline>
    <contour>
      <point x="333" y="0" type="line"/>
      <point x="431" y="0"/>
      <point x="561" y="141"/>
      <point x="561" y="238" type="qcurve"/>
      <point x="561" y="339"/>
      <point x="460" y="362" type="qcurve"/>
      <point x="461" y="367" type="line"/>
      <point x="529" y="385"/>
      <point x="603" y="485"/>
      <point x="603" y="549" type="qcurve"/>
      <point x="603" y="618"/>
      <point x="517" y="698"/>
      <point x="436" y="698" type="qcurve"/>
      <point x="179" y="698" type="line"/>
      <point x="39" y="0" type="line"/>
    </contour>
    <contour>
      <point x="332" y="72" type="qcurve"/>
      <point x="134" y="72" type="line"/>
      <point x="184" y="324" type="line"/>
      <point x="374" y="324" type="line"/>
      <point x="475" y="324"/>
      <point x="476" y="242" type="qcurve"/>
      <point x="475" y="228" type="line"/>
      <point x="467" y="184" type="line"/>
      <point x="455" y="127"/>
      <point x="384" y="72"/>
    </contour>
    <contour>
      <point x="367" y="394" type="qcurve"/>
      <point x="198" y="394" type="line"/>
      <point x="244" y="626" type="line"/>
      <point x="425" y="626" type="line"/>
      <point x="470" y="626"/>
      <point x="514" y="585"/>
      <point x="514" y="549" type="qcurve"/>
      <point x="514" y="529"/>
      <point x="507" y="494" type="qcurve"/>
      <point x="485" y="394"/>
    </contour>
  </outline>
</glyph>
<glyph name="D" format="2">
  <advance width="652"/>
  <unicode hex="0044"/>
  <outline>
    <contour>
      <point x="275" y="0" type="line"/>
      <point x="358" y="0"/>
      <point x="488" y="72"/>
      <point x="577" y="193"/>
      <point x="623" y="346"/>
      <point x="623" y="427" type="qcurve"/>
      <point x="623" y="562"/>
      <point x="496" y="698"/>
      <point x="384" y="698" type="qcurve"/>
      <point x="179" y="698" type="line"/>
      <point x="39" y="0" type="line"/>
    </contour>
    <contour>
      <point x="277" y="72" type="qcurve"/>
      <point x="135" y="72" type="line"/>
      <point x="245" y="626" type="line"/>
      <point x="380" y="626" type="line"/>
      <point x="453" y="626"/>
      <point x="539" y="539"/>
      <point x="539" y="455" type="qcurve"/>
      <point x="539" y="424"/>
      <point x="533" y="394" type="qcurve"/>
      <point x="512" y="289" type="line"/>
      <point x="490" y="183"/>
      <point x="367" y="72"/>
    </contour>
  </outline>
</glyph>
<glyph name="G" format="2">
  <advance width="557"/>
  <unicode hex="0047"/>
  <outline>
    <contour>
      <point x="47" y="267" type="qcurve"/>
      <point x="47" y="299"/>
      <point x="53" y="358"/>
      <point x="58" y="387" type="qcurve"/>
      <point x="73" y="459"/>
      <point x="133" y="577"/>
      <point x="219" y="664"/>
      <point x="329" y="710"/>
      <point x="392" y="710" type="qcurve"/>
      <point x="461" y="710"/>
      <point x="550" y="662"/>
      <point x="603" y="588"/>
      <point x="614" y="551" type="qcurve"/>
      <point x="540" y="510" type="line"/>
      <point x="532" y="549"/>
      <point x="490" y="604"/>
      <point x="425" y="636"/>
      <point x="379" y="636" type="qcurve"/>
      <point x="323" y="636"/>
      <point x="231" y="586"/>
      <point x="170" y="491"/>
      <point x="156" y="424" type="qcurve"/>
      <point x="134" y="311" type="line"/>
      <point x="130" y="296"/>
      <point x="127" y="261"/>
      <point x="127" y="245" type="qcurve"/>
      <point x="127" y="198"/>
      <point x="155" y="129"/>
      <point x="202" y="84"/>
      <point x="260" y="62"/>
      <point x="290" y="62" type="qcurve"/>
      <point x="365" y="62"/>
      <point x="475" y="141"/>
      <point x="491" y="221" type="qcurve"/>
      <point x="504" y="283" type="line"/>
      <point x="320" y="283" type="line"/>
      <point x="320" y="359" type="line"/>
      <point x="600" y="359" type="line"/>
      <point x="577" y="243" type="line"/>
      <point x="560" y="164"/>
      <point x="497" y="64"/>
      <point x="413" y="9"/>
      <point x="324" y="-12"/>
      <point x="282" y="-12" type="qcurve"/>
      <point x="238" y="-12"/>
      <point x="155" y="20"/>
      <point x="87" y="88"/>
      <point x="47" y="193"/>
    </contour>
  </outline>
</glyph>
<glyph name="L" format="2">
  <advance width="489"/>
  <unicode hex="004C"/>
  <outline>
    <contour>
      <point x="408" y="0" type="line"/>
      <point x="422" y="72" type="line"/>
      <point x="135" y="72" type="line"/>
      <point x="260" y="698" type="line"/>
      <point x="179" y="698" type="line"/>
      <point x="39" y="0" type="line"/>
    </contour>
  </outline>
</glyph>
<glyph name="O" format="2">
  <advance width="679"/>
  <unicode hex="004F"/>
  <outline>
    <contour>
      <point x="298" y="-12" type="qcurve"/>
      <point x="381" y="-12"/>
      <point x="512" y="63"/>
      <point x="558" y="127" type="qcurve"/>
      <point x="652" y="264"/>
      <point x="652" y="438" type="qcurve"/>
      <point x="652" y="567"/>
      <point x="583" y="640" type="qcurve"/>
      <point x="513" y="710"/>
      <point x="409" y="710" type="qcurve"/>
      <point x="326" y="710"/>
      <point x="195" y="635"/>
      <point x="149" y="572" type="qcurve"/>
      <point x="55" y="434"/>
      <point x="55" y="260" type="qcurve"/>
      <point x="55" y="128"/>
      <point x="195" y="-12"/>
    </contour>
    <contour>
      <point x="306" y="61" type="qcurve"/>
      <point x="225" y="61"/>
      <point x="135" y="156"/>
      <point x="135" y="236" type="qcurve"/>
      <point x="135" y="266"/>
      <point x="142" y="305" type="qcurve"/>
      <point x="162" y="405" type="line"/>
      <point x="184" y="515"/>
      <point x="308" y="637"/>
      <point x="401" y="637" type="qcurve"/>
      <point x="482" y="637"/>
      <point x="572" y="542"/>
      <point x="572" y="462" type="qcurve"/>
      <point x="572" y="432"/>
      <point x="565" y="393" type="qcurve"/>
      <point x="545" y="293" type="line"/>
      <point x="523" y="183"/>
      <point x="399" y="61"/>
    </contour>
  </outline>
</glyph>
<glyph name="Q" format="2">
  <advance width="679"/>
  <unicode hex="0051"/>
  <outline>
    <contour>
      <point x="298" y="-12" type="qcurve" smooth="yes"/>
      <point x="195" y="-12"/>
      <point x="55" y="128"/>
      <point x="55" y="260" type="qcurve" smooth="yes"/>
      <point x="55" y="434"/>
      <point x="149" y="572" type="qcurve"/>
      <point x="195" y="635"/>
      <point x="326" y="710"/>
      <point x="409" y="710" type="qcurve" smooth="yes"/>
      <point x="513" y="710"/>
      <point x="583" y="640" type="qcurve"/>
      <point x="652" y="567"/>
      <point x="652" y="438" type="qcurve" smooth="yes"/>
      <point x="652" y="264"/>
      <point x="558" y="127" type="qcurve"/>
      <point x="512" y="63"/>
      <point x="381" y="-12"/>
    </contour>
    <contour>
      <point x="306" y="61" type="qcurve" smooth="yes"/>
      <point x="399" y="61"/>
      <point x="523" y="183"/>
      <point x="545" y="293" type="qcurve" smooth="yes"/>
      <point x="565" y="393" type="line" smooth="yes"/>
      <point x="572" y="432"/>
      <point x="572" y="462" type="qcurve" smooth="yes"/>
      <point x="572" y="542"/>
      <point x="482" y="637"/>
      <point x="401" y="637" type="qcurve" smooth="yes"/>
      <point x="308" y="637"/>
      <point x="184" y="515"/>
      <point x="162" y="405" type="qcurve" smooth="yes"/>
      <point x="142" y="305" type="line" smooth="yes"/>
      <point x="135" y="266"/>
      <point x="135" y="236" type="qcurve" smooth="yes"/>
      <point x="135" y="156"/>
      <point x="225" y="61"/>
    </contour>
    <contour>
      <point x="576" y="-90" type="line"/>
      <point x="484" y="-90"/>
      <point x="391" y="-6"/>
      <point x="388" y="75" type="qcurve"/>
      <point x="462" y="90" type="line"/>
      <point x="464" y="43"/>
      <point x="512" y="-17"/>
      <point x="590" y="-17" type="qcurve"/>
    </contour>
  </outline>
</glyph>
<glyph name="R" format="2">
  <advance width="625"/>
  <unicode hex="0052"/>
  <outline>
    <contour>
      <point x="520" y="0" type="line"/>
      <point x="418" y="308" type="line"/>
      <point x="503" y="326"/>
      <point x="601" y="452"/>
      <point x="601" y="531" type="qcurve"/>
      <point x="601" y="603"/>
      <point x="520" y="698"/>
      <point x="428" y="698" type="qcurve"/>
      <point x="179" y="698" type="line"/>
      <point x="39" y="0" type="line"/>
      <point x="120" y="0" type="line"/>
      <point x="180" y="300" type="line"/>
      <point x="338" y="300" type="line"/>
      <point x="433" y="0" type="line"/>
    </contour>
    <contour>
      <point x="379" y="371" type="qcurve"/>
      <point x="195" y="371" type="line"/>
      <point x="245" y="626" type="line"/>
      <point x="422" y="626" type="line"/>
      <point x="517" y="626"/>
      <point x="517" y="545" type="qcurve"/>
      <point x="517" y="533"/>
      <point x="515" y="519" type="qcurve"/>
      <point x="505" y="471" type="line"/>
      <point x="495" y="422"/>
      <point x="429" y="371"/>
    </contour>
  </outline>
</glyph>
<glyph name="S" format="2">
  <advance width="581"/>
  <unicode hex="0053"/>
  <outline>
    <contour>
      <point x="84" y="480"/>
      <point x="124" y="428" type="qcurve"/>
      <point x="165" y="374"/>
      <point x="255" y="335" type="qcurve"/>
      <point x="308" y="311" type="line"/>
      <point x="372" y="283"/>
      <point x="396" y="250" type="qcurve"/>
      <point x="414" y="226"/>
      <point x="414" y="194" type="qcurve"/>
      <point x="414" y="192" type="line"/>
      <point x="414" y="182"/>
      <point x="412" y="171" type="qcurve"/>
      <point x="406" y="127"/>
      <point x="375" y="98" type="qcurve"/>
      <point x="335" y="62"/>
      <point x="260" y="62" type="qcurve"/>
      <point x="199" y="62"/>
      <point x="108" y="113"/>
      <point x="72" y="162" type="qcurve"/>
      <point x="10" y="110" type="line"/>
      <point x="98" y="-12"/>
      <point x="257" y="-12" type="qcurve"/>
      <point x="370" y="-12"/>
      <point x="434" y="45" type="qcurve"/>
      <point x="488" y="94"/>
      <point x="496" y="171" type="qcurve"/>
      <point x="515" y="312"/>
      <point x="340" y="385" type="qcurve"/>
      <point x="287" y="409" type="line"/>
      <point x="225" y="435"/>
      <point x="198" y="467" type="qcurve"/>
      <point x="172" y="498"/>
      <point x="180" y="545" type="qcurve"/>
      <point x="186" y="585"/>
      <point x="217" y="608" type="qcurve"/>
      <point x="255" y="636"/>
      <point x="322" y="636" type="qcurve"/>
      <point x="383" y="636"/>
      <point x="465" y="590"/>
      <point x="494" y="550" type="qcurve"/>
      <point x="557" y="596" type="line"/>
      <point x="479" y="710"/>
      <point x="326" y="710" type="qcurve"/>
      <point x="224" y="710"/>
      <point x="160" y="661" type="qcurve"/>
      <point x="109" y="622"/>
      <point x="98" y="557" type="qcurve"/>
    </contour>
  </outline>
</glyph>
<glyph name="T" format="2">
  <advance width="557"/>
  <unicode hex="0054"/>
  <outline>
    <contour>
      <point x="267" y="0" type="line"/>
      <point x="392" y="626" type="line"/>
      <point x="605" y="626" type="line"/>
      <point x="619" y="698" type="line"/>
      <point x="112" y="698" type="line"/>
      <point x="98" y="626" type="line"/>
      <point x="311" y="626" type="line"/>
      <point x="186" y="0" type="line"/>
    </contour>
  </outline>
</glyph>
<glyph name="W" format="2">
  <advance width="862"/>
  <unicode hex="0057"/>
  <outline>
    <contour>
      <point x="622" y="0" type="line"/>
      <point x="935" y="698" type="line"/>
      <point x="851" y="698" type="line"/>
      <point x="595" y="102" type="line"/>
      <point x="591" y="102" type="line"/>
      <point x="562" y="698" type="line"/>
      <point x="466" y="698" type="line"/>
      <point x="340" y="416" type="line"/>
      <point x="203" y="101" type="line"/>
      <point x="199" y="101" type="line"/>
      <point x="184" y="698" type="line"/>
      <point x="103" y="698" type="line"/>
      <point x="132" y="0" type="line"/>
      <point x="226" y="0" type="line"/>
      <point x="496" y="606" type="line"/>
      <point x="501" y="606" type="line"/>
      <point x="514" y="303"/>
      <point x="529" y="0" type="qcurve"/>
    </contour>
  </outline>
</glyph>
<glyph name="X" format="2">
  <advance width="596"/>
  <unicode hex="0058"/>
  <outline>
    <contour>
      <point x="508" y="0" type="line"/>
      <point x="360" y="343" type="line"/>
      <point x="653" y="698" type="line"/>
      <point x="559" y="698" type="line"/>
      <point x="328" y="411" type="line"/>
      <point x="324" y="411" type="line"/>
      <point x="205" y="698" type="line"/>
      <point x="120" y="698" type="line"/>
      <point x="263" y="358" type="line"/>
      <point x="-25" y="0" type="line"/>
      <point x="69" y="0" type="line"/>
      <point x="299" y="286" type="line"/>
      <point x="303" y="286" type="line"/>
      <point x="423" y="0" type="line"/>
    </contour>
  </outline>
</glyph>
<glyph name="grave" format="2">
  <advance width="593"/>
  <unicode hex="0060"/>
  <outline>
    <contour>
      <point x="205" y="744" type="line"/>
      <point x="273" y="776" type="line"/>
      <point x="334" y="606" type="line"/>
      <point x="289" y="585" type="line"/>
    </contour>
  </outline>
</glyph>
<glyph name="a" format="2">
  <advance width="583"/>
  <unicode hex="0061"/>
  <outline>
    <contour>
      <point x="208" y="-12" type="qcurve"/>
      <point x="265" y="-12"/>
      <point x="343" y="47"/>
      <point x="375" y="112" type="qcurve"/>
      <point x="378" y="112" type="line"/>
      <point x="370" y="75"/>
      <point x="370" y="62" type="qcurve"/>
      <point x="370" y="34"/>
      <point x="403" y="0"/>
      <point x="437" y="0" type="qcurve"/>
      <point x="506" y="0" type="line"/>
      <point x="519" y="68" type="line"/>
      <point x="446" y="68" type="line"/>
      <point x="536" y="516" type="line"/>
      <point x="459" y="516" type="line"/>
      <point x="442" y="432" type="line"/>
      <point x="438" y="432" type="line"/>
      <point x="425" y="480"/>
      <point x="350" y="528"/>
      <point x="303" y="528" type="qcurve"/>
      <point x="239" y="528"/>
      <point x="144" y="465"/>
      <point x="82" y="362"/>
      <point x="51" y="242"/>
      <point x="51" y="185" type="qcurve"/>
      <point x="51" y="93"/>
      <point x="137" y="-12"/>
    </contour>
    <contour>
      <point x="227" y="58" type="qcurve"/>
      <point x="177" y="58"/>
      <point x="130" y="125"/>
      <point x="130" y="175" type="qcurve"/>
      <point x="130" y="198"/>
      <point x="135" y="226" type="qcurve"/>
      <point x="150" y="301" type="line"/>
      <point x="165" y="376"/>
      <point x="246" y="458"/>
      <point x="312" y="458" type="qcurve"/>
      <point x="369" y="458"/>
      <point x="402" y="425" type="qcurve"/>
      <point x="428" y="398"/>
      <point x="428" y="369" type="qcurve"/>
      <point x="428" y="362"/>
      <point x="402" y="233" type="qcurve"/>
      <point x="388" y="159"/>
      <point x="337" y="109" type="qcurve"/>
      <point x="314" y="85"/>
      <point x="263" y="58"/>
    </contour>
  </outline>
</glyph>
<glyph name="f" format="2">
  <advance width="307"/>
  <unicode hex="0066"/>
  <outline>
    <contour>
      <point x="-8" y="-200" type="line"/>
      <point x="52" y="-200"/>
      <point x="108" y="-140"/>
      <point x="118" y="-86" type="qcurve"/>
      <point x="226" y="448" type="line"/>
      <point x="327" y="448" type="line"/>
      <point x="340" y="516" type="line"/>
      <point x="239" y="516" type="line"/>
      <point x="271" y="672" type="line"/>
      <point x="376" y="672" type="line"/>
      <point x="389" y="740" type="line"/>
      <point x="310" y="740" type="line"/>
      <point x="250" y="740"/>
      <point x="194" y="680"/>
      <point x="173" y="571"/>
      <point x="162" y="516" type="qcurve"/>
      <point x="77" y="516" type="line"/>
      <point x="64" y="448" type="line"/>
      <point x="149" y="448" type="line"/>
      <point x="31" y="-132" type="line"/>
      <point x="-62" y="-132" type="line"/>
      <point x="-75" y="-200" type="line"/>
    </contour>
  </outline>
</glyph>
<glyph name="g" format="2">
  <advance width="562"/>
  <unicode hex="0067"/>
  <outline>
    <contour>
      <point x="198" y="-212" type="qcurve"/>
      <point x="68" y="-212"/>
      <point x="8" y="-123" type="qcurve"/>
      <point x="63" y="-75" type="line"/>
      <point x="105" y="-144"/>
      <point x="198" y="-144" type="qcurve"/>
      <point x="326" y="-144"/>
      <point x="356" y="2" type="qcurve"/>
      <point x="378" y="112" type="line"/>
      <point x="375" y="112" type="line"/>
      <point x="344" y="48"/>
      <point x="265" y="-12"/>
      <point x="208" y="-12" type="qcurve"/>
      <point x="138" y="-12"/>
      <point x="51" y="94"/>
      <point x="51" y="185" type="qcurve"/>
      <point x="51" y="242"/>
      <point x="82" y="363"/>
      <point x="144" y="464"/>
      <point x="239" y="528"/>
      <point x="303" y="528" type="qcurve"/>
      <point x="350" y="528"/>
      <point x="426" y="481"/>
      <point x="438" y="432" type="qcurve"/>
      <point x="442" y="432" type="line"/>
      <point x="459" y="516" type="line"/>
      <point x="536" y="516" type="line"/>
      <point x="431" y="-8" type="line"/>
      <point x="412" y="-106"/>
      <point x="296" y="-212"/>
    </contour>
    <contour>
      <point x="227" y="58" type="qcurve"/>
      <point x="263" y="58"/>
      <point x="315" y="86"/>
      <point x="337" y="109" type="qcurve"/>
      <point x="388" y="160"/>
      <point x="402" y="233" type="qcurve"/>
      <point x="428" y="362"/>
      <point x="428" y="369" type="qcurve"/>
      <point x="428" y="398"/>
      <point x="371" y="458"/>
      <point x="312" y="458" type="qcurve"/>
      <point x="182" y="458"/>
      <point x="150" y="301" type="qcurve"/>
      <point x="135" y="226" type="line"/>
      <point x="130" y="199"/>
      <point x="130" y="175" type="qcurve"/>
      <point x="130" y="126"/>
      <point x="177" y="58"/>
    </contour>
  </outline>
</glyph>
<glyph name="i" format="2">
  <advance width="264"/>
  <unicode hex="0069"/>
  <outline>
    <contour>
      <point x="206" y="637" type="qcurve"/>
      <point x="260" y="637"/>
      <point x="264" y="696" type="qcurve"/>
      <point x="264" y="705" type="line"/>
      <point x="264" y="740"/>
      <point x="222" y="740" type="qcurve"/>
      <point x="197" y="740"/>
      <point x="185" y="730" type="qcurve"/>
      <point x="170" y="717"/>
      <point x="166" y="694" type="qcurve"/>
      <point x="164" y="678"/>
      <point x="164" y="672" type="qcurve"/>
      <point x="164" y="637"/>
    </contour>
    <contour>
      <point x="187" y="0" type="line"/>
      <point x="200" y="68" type="line"/>
      <point x="127" y="68" type="line"/>
      <point x="217" y="516" type="line"/>
      <point x="140" y="516" type="line"/>
      <point x="51" y="72"/>
      <point x="51" y="63" type="qcurve"/>
      <point x="51" y="35"/>
      <point x="86" y="0"/>
      <point x="121" y="0" type="qcurve"/>
    </contour>
  </outline>
</glyph>
<glyph name="j" format="2">
  <advance width="253"/>
  <unicode hex="006A"/>
  <outline>
    <contour>
      <point x="206" y="637" type="qcurve" smooth="yes"/>
      <point x="164" y="637"/>
      <point x="164" y="672" type="qcurve" smooth="yes"/>
      <point x="164" y="678"/>
      <point x="166" y="694" type="qcurve" smooth="yes"/>
      <point x="170" y="717"/>
      <point x="185" y="730" type="qcurve" smooth="yes"/>
      <point x="197" y="740"/>
      <point x="222" y="740" type="qcurve" smooth="yes"/>
      <point x="264" y="740"/>
      <point x="264" y="705" type="qcurve" smooth="yes"/>
      <point x="264" y="696" type="line"/>
      <point x="260" y="637"/>
    </contour>
    <contour>
      <point x="-87" y="-200" type="line"/>
      <point x="-73" y="-132" type="line"/>
      <point x="10" y="-132" type="line"/>
      <point x="140" y="516" type="line"/>
      <point x="217" y="516" type="line"/>
      <point x="94" y="-98" type="line" smooth="yes"/>
      <point x="84" y="-151"/>
      <point x="33" y="-200"/>
      <point x="-20" y="-200" type="qcurve" smooth="yes"/>
    </contour>
  </outline>
</glyph>
<glyph name="l" format="2">
  <advance width="264"/>
  <unicode hex="006C"/>
  <outline>
    <contour>
      <point x="192" y="0" type="line"/>
      <point x="205" y="68" type="line"/>
      <point x="127" y="68" type="line"/>
      <point x="262" y="740" type="line"/>
      <point x="185" y="740" type="line"/>
      <point x="51" y="72"/>
      <point x="51" y="63" type="qcurve"/>
      <point x="51" y="35"/>
      <point x="86" y="0"/>
      <point x="121" y="0" type="qcurve"/>
    </contour>
  </outline>
</glyph>
<glyph name="m" format="2">
  <advance width="848"/>
  <unicode hex="006D"/>
  <outline>
    <contour>
      <point x="706" y="0" type="line" smooth="yes"/>
      <point x="676" y="0"/>
      <point x="640" y="28"/>
      <point x="640" y="57" type="qcurve" smooth="yes"/>
      <point x="640" y="65"/>
      <point x="691" y="319" type="qcurve" smooth="yes"/>
      <point x="697" y="349"/>
      <point x="697" y="374" type="qcurve" smooth="yes"/>
      <point x="697" y="416"/>
      <point x="660" y="458"/>
      <point x="618" y="458" type="qcurve" smooth="yes"/>
      <point x="571" y="458"/>
      <point x="507" y="394"/>
      <point x="473" y="320"/>
      <point x="467" y="288" type="qcurve" smooth="yes"/>
      <point x="409" y="0" type="line"/>
      <point x="332" y="0" type="line"/>
      <point x="396" y="318" type="line" smooth="yes"/>
      <point x="402" y="348"/>
      <point x="402" y="376" type="qcurve" smooth="yes"/>
      <point x="402" y="458"/>
      <point x="330" y="458" type="qcurve" smooth="yes"/>
      <point x="278" y="458"/>
      <point x="241" y="418" type="qcurve" smooth="yes"/>
      <point x="184" y="355"/>
      <point x="171" y="288" type="qcurve" smooth="yes"/>
      <point x="113" y="0" type="line"/>
      <point x="36" y="0" type="line"/>
      <point x="140" y="516" type="line"/>
      <point x="217" y="516" type="line"/>
      <point x="196" y="414" type="line"/>
      <point x="201" y="414" type="line"/>
      <point x="227" y="472"/>
      <point x="301" y="528"/>
      <point x="358" y="528" type="qcurve" smooth="yes"/>
      <point x="412" y="528"/>
      <point x="472" y="468"/>
      <point x="478" y="414" type="qcurve"/>
      <point x="484" y="414" type="line"/>
      <point x="531" y="528"/>
      <point x="645" y="528" type="qcurve" smooth="yes"/>
      <point x="710" y="528"/>
      <point x="775" y="454"/>
      <point x="775" y="386" type="qcurve" smooth="yes"/>
      <point x="775" y="355"/>
      <point x="768" y="319" type="qcurve" smooth="yes"/>
      <point x="718" y="68" type="line"/>
      <point x="791" y="68" type="line"/>
      <point x="778" y="0" type="line"/>
    </contour>
  </outline>
</glyph>
<glyph name="r" format="2">
  <advance width="364"/>
  <unicode hex="0072"/>
  <outline>
    <contour>
      <point x="113" y="0" type="line"/>
      <point x="175" y="307" type="line"/>
      <point x="185" y="361"/>
      <point x="264" y="437"/>
      <point x="336" y="437" type="qcurve"/>
      <point x="372" y="437" type="line"/>
      <point x="387" y="516" type="line"/>
      <point x="355" y="516" type="line"/>
      <point x="296" y="516"/>
      <point x="220" y="452"/>
      <point x="200" y="413" type="qcurve"/>
      <point x="195" y="413" type="line"/>
      <point x="217" y="516" type="line"/>
      <point x="140" y="516" type="line"/>
      <point x="36" y="0" type="line"/>
    </contour>
  </outline>
</glyph>
<glyph name="s" format="2">
  <advance width="487"/>
  <unicode hex="0073"/>
  <outline>
    <contour>
      <point x="217" y="-12" type="qcurve" smooth="yes"/>
      <point x="90" y="-12"/>
      <point x="13" y="89" type="qcurve"/>
      <point x="70" y="135" type="line"/>
      <point x="131" y="56"/>
      <point x="223" y="56" type="qcurve"/>
      <point x="330" y="61"/>
      <point x="330" y="135" type="qcurve" smooth="yes"/>
      <point x="330" y="156"/>
      <point x="319" y="175" type="qcurve"/>
      <point x="303" y="199"/>
      <point x="256" y="218" type="qcurve"/>
      <point x="217" y="232" type="line" smooth="yes"/>
      <point x="148" y="255"/>
      <point x="110" y="298" type="qcurve"/>
      <point x="79" y="330"/>
      <point x="79" y="377" type="qcurve" smooth="yes"/>
      <point x="79" y="451"/>
      <point x="186" y="528"/>
      <point x="264" y="528" type="qcurve" smooth="yes"/>
      <point x="376" y="528"/>
      <point x="444" y="445" type="qcurve"/>
      <point x="391" y="397" type="line"/>
      <point x="348" y="460"/>
      <point x="258" y="460" type="qcurve" smooth="yes"/>
      <point x="208" y="460"/>
      <point x="157" y="417"/>
      <point x="157" y="380" type="qcurve" smooth="yes"/>
      <point x="157" y="332"/>
      <point x="241" y="301" type="qcurve"/>
      <point x="279" y="288" type="line"/>
      <point x="360" y="258"/>
      <point x="409" y="184"/>
      <point x="409" y="146" type="qcurve"/>
      <point x="408" y="74"/>
      <point x="306" y="-12"/>
    </contour>
  </outline>
</glyph>
<glyph name="v" format="2">
  <advance width="484"/>
  <unicode hex="0076"/>
  <outline>
    <contour>
      <point x="237" y="0" type="line"/>
      <point x="519" y="516" type="line"/>
      <point x="437" y="516" type="line"/>
      <point x="299" y="261" type="line"/>
      <point x="206" y="73" type="line"/>
      <point x="201" y="73" type="line"/>
      <point x="180" y="261" type="line"/>
      <point x="142" y="516" type="line"/>
      <point x="67" y="516" type="line"/>
      <point x="146" y="0" type="line"/>
    </contour>
  </outline>
</glyph>
<glyph name="braceleft" format="2">
  <advance width="329"/>
  <unicode hex="007B"/>
  <outline>
    <contour>
      <point x="193" y="-138" type="line"/>
      <point x="207" y="-75" type="line"/>
      <point x="116" y="-75" type="line"/>
      <point x="171" y="202"/>
      <point x="171" y="211" type="qcurve"/>
      <point x="171" y="283"/>
      <point x="99" y="300" type="qcurve"/>
      <point x="102" y="316" type="line"/>
      <point x="161" y="324"/>
      <point x="212" y="398"/>
      <point x="220" y="446" type="qcurve"/>
      <point x="270" y="697" type="line"/>
      <point x="360" y="697" type="line"/>
      <point x="371" y="760" type="line"/>
      <point x="283" y="760" type="line"/>
      <point x="214" y="760"/>
      <point x="197" y="676" type="qcurve"/>
      <point x="150" y="441" type="line"/>
      <point x="142" y="399"/>
      <point x="93" y="350"/>
      <point x="43" y="350" type="qcurve"/>
      <point x="27" y="272" type="line"/>
      <point x="61" y="272"/>
      <point x="101" y="240"/>
      <point x="101" y="207" type="qcurve"/>
      <point x="101" y="197"/>
      <point x="98" y="181" type="qcurve"/>
      <point x="52" y="-47" type="line"/>
      <point x="49" y="-62"/>
      <point x="49" y="-76" type="qcurve"/>
      <point x="49" y="-103"/>
      <point x="82" y="-138"/>
      <point x="115" y="-138" type="qcurve"/>
    </contour>
  </outline>
</glyph>
<glyph name="braceright" format="2">
  <advance width="329"/>
  <unicode hex="007D"/>
  <outline>
    <contour>
      <point x="67" y="-138" type="line"/>
      <point x="136" y="-138"/>
      <point x="153" y="-54" type="qcurve"/>
      <point x="200" y="181" type="line"/>
      <point x="208" y="223"/>
      <point x="257" y="272"/>
      <point x="307" y="272" type="qcurve"/>
      <point x="323" y="350" type="line"/>
      <point x="289" y="350"/>
      <point x="249" y="382"/>
      <point x="249" y="415" type="qcurve"/>
      <point x="249" y="426"/>
      <point x="252" y="441" type="qcurve"/>
      <point x="298" y="669" type="line"/>
      <point x="301" y="684"/>
      <point x="301" y="698" type="qcurve"/>
      <point x="301" y="725"/>
      <point x="268" y="760"/>
      <point x="235" y="760" type="qcurve"/>
      <point x="157" y="760" type="line"/>
      <point x="143" y="697" type="line"/>
      <point x="234" y="697" type="line"/>
      <point x="179" y="420"/>
      <point x="179" y="411" type="qcurve"/>
      <point x="179" y="375"/>
      <point x="216" y="327"/>
      <point x="251" y="320" type="qcurve"/>
      <point x="248" y="304" type="line"/>
      <point x="148" y="291"/>
      <point x="130" y="176" type="qcurve"/>
      <point x="80" y="-75" type="line"/>
      <point x="-10" y="-75" type="line"/>
      <point x="-21" y="-138" type="line"/>
    </contour>
  </outline>
</glyph>
<glyph name="cent" format="2">
  <advance width="505"/>
  <unicode hex="00A2"/>
  <outline>
    <contour>
      <point x="223" y="-114" type="line"/>
      <point x="243" y="-12" type="line"/>
      <point x="374" y="-4"/>
      <point x="436" y="128" type="qcurve"/>
      <point x="375" y="158" type="line"/>
      <point x="324" y="57"/>
      <point x="256" y="55" type="qcurve"/>
      <point x="335" y="455" type="line"/>
      <point x="391" y="440"/>
      <point x="408" y="377" type="qcurve"/>
      <point x="475" y="408" type="line"/>
      <point x="446" y="498"/>
      <point x="351" y="522" type="qcurve"/>
      <point x="373" y="630" type="line"/>
      <point x="305" y="630" type="line"/>
      <point x="284" y="526" type="line"/>
      <point x="173" y="515"/>
      <point x="49" y="326"/>
      <point x="49" y="200" type="qcurve"/>
      <point x="49" y="38"/>
      <point x="178" y="-4" type="qcurve"/>
      <point x="155" y="-114" type="line"/>
    </contour>
    <contour>
      <point x="192" y="63" type="line"/>
      <point x="158" y="78"/>
      <point x="125" y="139"/>
      <point x="125" y="181" type="qcurve"/>
      <point x="125" y="204"/>
      <point x="129" y="229" type="qcurve"/>
      <point x="146" y="312" type="line"/>
      <point x="170" y="434"/>
      <point x="271" y="456" type="qcurve"/>
    </contour>
  </outline>
</glyph>
<glyph name="sterling" format="2">
  <advance width="577"/>
  <unicode hex="00A3"/>
  <outline>
    <contour>
      <point x="452" y="0" type="line"/>
      <point x="467" y="72" type="line"/>
      <point x="115" y="72" type="line"/>
      <point x="117" y="77" type="line"/>
      <point x="157" y="102"/>
      <point x="225" y="213"/>
      <point x="228" y="288" type="qcurve"/>
      <point x="420" y="288" type="line"/>
      <point x="434" y="356" type="line"/>
      <point x="225" y="356" type="line"/>
      <point x="220" y="399"/>
      <point x="220" y="441" type="qcurve"/>
      <point x="220" y="539"/>
      <point x="310" y="638"/>
      <point x="387" y="638" type="qcurve"/>
      <point x="438" y="638"/>
      <point x="501" y="591"/>
      <point x="521" y="549" type="qcurve"/>
      <point x="589" y="594" type="line"/>
      <point x="532" y="710"/>
      <point x="393" y="710" type="qcurve"/>
      <point x="278" y="710"/>
      <point x="137" y="563"/>
      <point x="137" y="449" type="qcurve"/>
      <point x="137" y="403"/>
      <point x="144" y="356" type="qcurve"/>
      <point x="75" y="356" type="line"/>
      <point x="61" y="288" type="line"/>
      <point x="148" y="288" type="line"/>
      <point x="148" y="231"/>
      <point x="132" y="189" type="qcurve"/>
      <point x="113" y="134"/>
      <point x="47" y="102" type="qcurve"/>
      <point x="26" y="0" type="line"/>
    </contour>
  </outline>
</glyph>
<glyph name="dieresis" format="2">
  <advance width="593"/>
  <unicode hex="00A8"/>
  <outline>
    <contour>
      <point x="217" y="618" type="qcurve"/>
      <point x="175" y="619"/>
      <point x="175" y="653" type="qcurve" smooth="yes"/>
      <point x="175" y="663"/>
      <point x="178" y="674" type="qcurve"/>
      <point x="188" y="721"/>
      <point x="234" y="721" type="qcurve" smooth="yes"/>
      <point x="276" y="721"/>
      <point x="276" y="686" type="qcurve" smooth="yes"/>
      <point x="276" y="682"/>
      <point x="273" y="665" type="qcurve" smooth="yes"/>
      <point x="264" y="618"/>
    </contour>
    <contour>
      <point x="399" y="618" type="qcurve"/>
      <point x="357" y="619"/>
      <point x="357" y="653" type="qcurve" smooth="yes"/>
      <point x="357" y="663"/>
      <point x="360" y="674" type="qcurve"/>
      <point x="370" y="721"/>
      <point x="416" y="721" type="qcurve" smooth="yes"/>
      <point x="458" y="721"/>
      <point x="458" y="686" type="qcurve" smooth="yes"/>
      <point x="458" y="682"/>
      <point x="455" y="665" type="qcurve" smooth="yes"/>
      <point x="446" y="618"/>
    </contour>
  </outline>
</glyph>
<glyph name="ordfeminine" format="2">
  <advance width="390"/>
  <unicode hex="00AA"/>
  <outline>
    <contour>
      <point x="168" y="349" type="qcurve"/>
      <point x="210" y="349"/>
      <point x="269" y="386"/>
      <point x="284" y="410" type="qcurve"/>
      <point x="288" y="410" type="line"/>
      <point x="287" y="405"/>
      <point x="287" y="397" type="qcurve"/>
      <point x="287" y="357"/>
      <point x="337" y="357" type="qcurve"/>
      <point x="370" y="357" type="line"/>
      <point x="381" y="412" type="line"/>
      <point x="345" y="412" type="line"/>
      <point x="376" y="566" type="line"/>
      <point x="380" y="586"/>
      <point x="380" y="605" type="qcurve"/>
      <point x="380" y="658"/>
      <point x="318" y="710"/>
      <point x="265" y="710" type="qcurve"/>
      <point x="217" y="710"/>
      <point x="144" y="669"/>
      <point x="123" y="641" type="qcurve"/>
      <point x="159" y="607" type="line"/>
      <point x="196" y="659"/>
      <point x="257" y="659" type="qcurve"/>
      <point x="319" y="659"/>
      <point x="319" y="604" type="qcurve"/>
      <point x="319" y="591" type="line"/>
      <point x="319" y="586"/>
      <point x="312" y="551" type="qcurve"/>
      <point x="242" y="551" type="line"/>
      <point x="163" y="551"/>
      <point x="78" y="489"/>
      <point x="78" y="428" type="qcurve"/>
      <point x="78" y="393"/>
      <point x="126" y="349"/>
    </contour>
    <contour>
      <point x="189" y="399" type="qcurve"/>
      <point x="140" y="399"/>
      <point x="139" y="435" type="qcurve"/>
      <point x="139" y="507"/>
      <point x="232" y="507" type="qcurve"/>
      <point x="303" y="507" type="line"/>
      <point x="295" y="467" type="line"/>
      <point x="288" y="437"/>
      <point x="227" y="399"/>
    </contour>
  </outline>
</glyph>
<glyph name="guillemotleft" format="2">
  <advance width="499"/>
  <unicode hex="00AB"/>
  <outline>
    <contour>
      <point x="32" y="250" type="line"/>
      <point x="47" y="323" type="line"/>
      <point x="264" y="488" type="line"/>
      <point x="278" y="429" type="line"/>
      <point x="114" y="280" type="line"/>
      <point x="218" y="130" type="line"/>
      <point x="186" y="78" type="line"/>
    </contour>
    <contour>
      <point x="233" y="250" type="line"/>
      <point x="248" y="323" type="line"/>
      <point x="465" y="488" type="line"/>
      <point x="479" y="429" type="line"/>
      <point x="315" y="280" type="line"/>
      <point x="419" y="130" type="line"/>
      <point x="387" y="78" type="line"/>
    </contour>
  </outline>
</glyph>
<glyph name="uni00AD" format="2">
  <advance width="387"/>
  <unicode hex="00AD"/>
  <outline>
    <contour>
      <point x="69" y="263" type="line"/>
      <point x="85" y="345" type="line"/>
      <point x="336" y="345" type="line"/>
      <point x="320" y="263" type="line"/>
    </contour>
  </outline>
</glyph>
<glyph name="degree" format="2">
  <advance width="454"/>
  <unicode hex="00B0"/>
  <outline>
    <contour>
      <point x="263" y="366" type="qcurve" smooth="yes"/>
      <point x="203" y="366"/>
      <point x="119" y="450"/>
      <point x="119" y="517" type="qcurve" smooth="yes"/>
      <point x="119" y="600"/>
      <point x="221" y="710"/>
      <point x="303" y="710" type="qcurve" smooth="yes"/>
      <point x="363" y="710"/>
      <point x="447" y="626"/>
      <point x="447" y="560" type="qcurve" smooth="yes"/>
      <point x="447" y="476"/>
      <point x="343" y="366"/>
    </contour>
    <contour>
      <point x="272" y="430" type="qcurve" smooth="yes"/>
      <point x="322" y="430"/>
      <point x="379" y="505"/>
      <point x="379" y="557" type="qcurve" smooth="yes"/>
      <point x="379" y="594"/>
      <point x="333" y="646"/>
      <point x="294" y="646" type="qcurve" smooth="yes"/>
      <point x="245" y="646"/>
      <point x="187" y="572"/>
      <point x="187" y="519" type="qcurve" smooth="yes"/>
      <point x="187" y="482"/>
      <point x="233" y="430"/>
    </contour>
  </outline>
</glyph>
<glyph name="twosuperior" format="2">
  <advance width="339"/>
  <unicode hex="00B2"/>
  <outline>
    <contour>
      <point x="45" y="329" type="line"/>
      <point x="57" y="388" type="line"/>
      <point x="192" y="486" type="line"/>
      <point x="227" y="509"/>
      <point x="275" y="552"/>
      <point x="281" y="585" type="qcurve"/>
      <point x="282" y="589" type="line" smooth="yes"/>
      <point x="284" y="596"/>
      <point x="284" y="604" type="qcurve" smooth="yes"/>
      <point x="284" y="627"/>
      <point x="251" y="653"/>
      <point x="225" y="653" type="qcurve" smooth="yes"/>
      <point x="172" y="653"/>
      <point x="145" y="591" type="qcurve"/>
      <point x="94" y="614" type="line"/>
      <point x="134" y="704"/>
      <point x="231" y="704" type="qcurve" smooth="yes"/>
      <point x="279" y="704"/>
      <point x="350" y="656"/>
      <point x="350" y="606" type="qcurve" smooth="yes"/>
      <point x="350" y="554"/>
      <point x="305" y="510" type="qcurve" smooth="yes"/>
      <point x="283" y="488"/>
      <point x="231" y="453" type="qcurve"/>
      <point x="124" y="378" type="line"/>
      <point x="316" y="378" type="line"/>
      <point x="306" y="329" type="line"/>
    </contour>
  </outline>
</glyph>
<glyph name="threesuperior" format="2">
  <advance width="339"/>
  <unicode hex="00B3"/>
  <outline>
    <contour>
      <point x="176" y="323" type="qcurve"/>
      <point x="242" y="323"/>
      <point x="322" y="392"/>
      <point x="322" y="441" type="qcurve"/>
      <point x="322" y="505"/>
      <point x="260" y="516" type="qcurve"/>
      <point x="260" y="518" type="line"/>
      <point x="296" y="525"/>
      <point x="348" y="574"/>
      <point x="348" y="614" type="qcurve"/>
      <point x="348" y="652"/>
      <point x="291" y="704"/>
      <point x="238" y="704" type="qcurve"/>
      <point x="153" y="704"/>
      <point x="105" y="641" type="qcurve"/>
      <point x="141" y="607" type="line"/>
      <point x="179" y="655"/>
      <point x="233" y="655" type="qcurve"/>
      <point x="259" y="655"/>
      <point x="286" y="630"/>
      <point x="286" y="614" type="qcurve"/>
      <point x="284" y="599" type="line"/>
      <point x="279" y="575"/>
      <point x="266" y="563" type="qcurve"/>
      <point x="245" y="545"/>
      <point x="207" y="545" type="qcurve"/>
      <point x="161" y="545" type="line"/>
      <point x="151" y="496" type="line"/>
      <point x="194" y="496" type="line"/>
      <point x="259" y="496"/>
      <point x="261" y="446" type="qcurve"/>
      <point x="261" y="440"/>
      <point x="260" y="435" type="qcurve"/>
      <point x="255" y="405"/>
      <point x="218" y="372"/>
      <point x="177" y="372" type="qcurve"/>
      <point x="113" y="372"/>
      <point x="89" y="423" type="qcurve"/>
      <point x="44" y="392" type="line"/>
      <point x="56" y="364"/>
      <point x="119" y="323"/>
    </contour>
  </outline>
</glyph>
<glyph name="acute" format="2">
  <advance width="593"/>
  <unicode hex="00B4"/>
  <outline>
    <contour>
      <point x="269" y="610" type="line"/>
      <point x="373" y="780" type="line"/>
      <point x="441" y="744" type="line"/>
      <point x="317" y="585" type="line"/>
    </contour>
  </outline>
</glyph>
<glyph name="mu" format="2">
  <advance width="568"/>
  <unicode hex="00B5"/>
  <outline>
    <contour>
      <point x="75" y="-200" type="line"/>
      <point x="106" y="-46" type="line"/>
      <point x="116" y="59" type="line"/>
      <point x="120" y="59" type="line"/>
      <point x="136" y="-12"/>
      <point x="207" y="-12" type="qcurve"/>
      <point x="263" y="-12"/>
      <point x="330" y="45"/>
      <point x="357" y="103" type="qcurve"/>
      <point x="361" y="103" type="line"/>
      <point x="355" y="70"/>
      <point x="355" y="63" type="qcurve"/>
      <point x="355" y="35"/>
      <point x="388" y="0"/>
      <point x="422" y="0" type="qcurve"/>
      <point x="491" y="0" type="line"/>
      <point x="504" y="68" type="line"/>
      <point x="431" y="68" type="line"/>
      <point x="521" y="516" type="line"/>
      <point x="444" y="516" type="line"/>
      <point x="386" y="228" type="line"/>
      <point x="380" y="199"/>
      <point x="363" y="164" type="qcurve"/>
      <point x="352" y="139"/>
      <point x="314" y="91"/>
      <point x="261" y="58"/>
      <point x="225" y="58" type="qcurve"/>
      <point x="183" y="58"/>
      <point x="148" y="102"/>
      <point x="148" y="145" type="qcurve"/>
      <point x="148" y="163"/>
      <point x="153" y="198" type="qcurve"/>
      <point x="217" y="516" type="line"/>
      <point x="140" y="516" type="line"/>
      <point x="-3" y="-200" type="line"/>
    </contour>
  </outline>
</glyph>
<glyph name="paragraph" format="2">
  <advance width="629"/>
  <unicode hex="00B6"/>
  <outline>
    <contour>
      <point x="404" y="-149" type="line"/>
      <point x="561" y="632" type="line"/>
      <point x="625" y="632" type="line"/>
      <point x="637" y="698" type="line"/>
      <point x="326" y="698" type="line"/>
      <point x="232" y="698"/>
      <point x="96" y="573"/>
      <point x="96" y="475" type="qcurve"/>
      <point x="96" y="405"/>
      <point x="187" y="301"/>
      <point x="247" y="301" type="qcurve"/>
      <point x="156" y="-149" type="line"/>
      <point x="227" y="-149" type="line"/>
      <point x="384" y="632" type="line"/>
      <point x="490" y="632" type="line"/>
      <point x="333" y="-149" type="line"/>
    </contour>
  </outline>
</glyph>
<glyph name="periodcentered" format="2">
  <advance width="316"/>
  <unicode hex="00B7"/>
  <outline>
    <contour>
      <point x="149" y="240" type="qcurve" smooth="yes"/>
      <point x="98" y="240"/>
      <point x="98" y="280" type="qcurve" smooth="yes"/>
      <point x="98" y="298"/>
      <point x="102" y="314" type="qcurve"/>
      <point x="110" y="369"/>
      <point x="167" y="369" type="qcurve"/>
      <point x="169" y="369" type="line"/>
      <point x="218" y="369"/>
      <point x="218" y="329" type="qcurve" smooth="yes"/>
      <point x="218" y="313"/>
      <point x="214" y="295" type="qcurve"/>
      <point x="206" y="240"/>
    </contour>
  </outline>
</glyph>
<glyph name="onesuperior" format="2">
  <advance width="339"/>
  <unicode hex="00B9"/>
  <outline>
    <contour>
      <point x="229" y="329" type="line"/>
      <point x="169" y="329" type="line"/>
      <point x="232" y="641" type="line"/>
      <point x="143" y="594" type="line"/>
      <point x="155" y="652" type="line"/>
      <point x="240" y="698" type="line"/>
      <point x="303" y="698" type="line"/>
    </contour>
  </outline>
</glyph>
<glyph name="onequarter" format="2">
  <advance width="804"/>
  <unicode hex="00BC"/>
  <outline>
    <contour>
      <point x="69" y="0" type="line"/>
      <point x="678" y="698" type="line"/>
      <point x="751" y="698" type="line"/>
      <point x="142" y="0" type="line"/>
    </contour>
    <contour>
      <point x="303" y="698" type="line"/>
      <point x="229" y="329" type="line"/>
      <point x="169" y="329" type="line"/>
      <point x="232" y="641" type="line"/>
      <point x="125" y="584" type="line"/>
      <point x="137" y="642" type="line"/>
      <point x="240" y="698" type="line"/>
    </contour>
    <contour>
      <point x="595" y="0" type="line"/>
      <point x="610" y="73" type="line"/>
      <point x="428" y="73" type="line"/>
      <point x="438" y="125" type="line"/>
      <point x="652" y="369" type="line"/>
      <point x="727" y="369" type="line"/>
      <point x="677" y="119" type="line"/>
      <point x="728" y="119" type="line"/>
      <point x="719" y="73" type="line"/>
      <point x="668" y="73" type="line"/>
      <point x="653" y="0" type="line"/>
    </contour>
    <contour>
      <point x="655" y="300" type="line"/>
      <point x="652" y="300" type="line"/>
      <point x="493" y="119" type="line"/>
      <point x="619" y="119" type="line"/>
    </contour>
  </outline>
</glyph>
<glyph name="onehalf" format="2">
  <advance width="806"/>
  <unicode hex="00BD"/>
  <outline>
    <contour>
      <point x="69" y="0" type="line"/>
      <point x="678" y="698" type="line"/>
      <point x="751" y="698" type="line"/>
      <point x="142" y="0" type="line"/>
    </contour>
    <contour>
      <point x="303" y="698" type="line"/>
      <point x="229" y="329" type="line"/>
      <point x="169" y="329" type="line"/>
      <point x="232" y="641" type="line"/>
      <point x="125" y="584" type="line"/>
      <point x="137" y="642" type="line"/>
      <point x="240" y="698" type="line"/>
    </contour>
    <contour>
      <point x="454" y="0" type="line"/>
      <point x="466" y="59" type="line"/>
      <point x="601" y="157" type="line"/>
      <point x="636" y="180"/>
      <point x="684" y="223"/>
      <point x="690" y="256" type="qcurve"/>
      <point x="691" y="260" type="line" smooth="yes"/>
      <point x="693" y="267"/>
      <point x="693" y="275" type="qcurve" smooth="yes"/>
      <point x="693" y="298"/>
      <point x="660" y="324"/>
      <point x="634" y="324" type="qcurve" smooth="yes"/>
      <point x="581" y="324"/>
      <point x="554" y="262" type="qcurve"/>
      <point x="503" y="285" type="line"/>
      <point x="543" y="375"/>
      <point x="640" y="375" type="qcurve" smooth="yes"/>
      <point x="688" y="375"/>
      <point x="759" y="327"/>
      <point x="759" y="277" type="qcurve" smooth="yes"/>
      <point x="759" y="225"/>
      <point x="714" y="181" type="qcurve" smooth="yes"/>
      <point x="692" y="159"/>
      <point x="640" y="124" type="qcurve"/>
      <point x="533" y="49" type="line"/>
      <point x="725" y="49" type="line"/>
      <point x="715" y="0" type="line"/>
    </contour>
  </outline>
</glyph>
<glyph name="threequarters" format="2">
  <advance width="834"/>
  <unicode hex="00BE"/>
  <outline>
    <contour>
      <point x="176" y="323" type="qcurve" smooth="yes"/>
      <point x="119" y="323"/>
      <point x="56" y="364"/>
      <point x="44" y="392" type="qcurve"/>
      <point x="89" y="423" type="line"/>
      <point x="113" y="372"/>
      <point x="177" y="372" type="qcurve" smooth="yes"/>
      <point x="218" y="372"/>
      <point x="255" y="405"/>
      <point x="260" y="435" type="qcurve" smooth="yes"/>
      <point x="261" y="440"/>
      <point x="261" y="446" type="qcurve"/>
      <point x="259" y="496"/>
      <point x="194" y="496" type="qcurve" smooth="yes"/>
      <point x="151" y="496" type="line"/>
      <point x="161" y="545" type="line"/>
      <point x="207" y="545" type="line" smooth="yes"/>
      <point x="245" y="545"/>
      <point x="266" y="563" type="qcurve" smooth="yes"/>
      <point x="279" y="575"/>
      <point x="284" y="599" type="qcurve"/>
      <point x="286" y="614" type="line"/>
      <point x="286" y="630"/>
      <point x="259" y="655"/>
      <point x="233" y="655" type="qcurve" smooth="yes"/>
      <point x="179" y="655"/>
      <point x="141" y="607" type="qcurve"/>
      <point x="105" y="641" type="line"/>
      <point x="153" y="704"/>
      <point x="238" y="704" type="qcurve" smooth="yes"/>
      <point x="291" y="704"/>
      <point x="348" y="652"/>
      <point x="348" y="614" type="qcurve" smooth="yes"/>
      <point x="348" y="574"/>
      <point x="296" y="525"/>
      <point x="260" y="518" type="qcurve"/>
      <point x="260" y="516" type="line"/>
      <point x="322" y="505"/>
      <point x="322" y="441" type="qcurve" smooth="yes"/>
      <point x="322" y="392"/>
      <point x="242" y="323"/>
    </contour>
    <contour>
      <point x="99" y="0" type="line"/>
      <point x="708" y="698" type="line"/>
      <point x="781" y="698" type="line"/>
      <point x="172" y="0" type="line"/>
    </contour>
    <contour>
      <point x="625" y="0" type="line"/>
      <point x="640" y="73" type="line"/>
      <point x="458" y="73" type="line"/>
      <point x="468" y="125" type="line"/>
      <point x="682" y="369" type="line"/>
      <point x="757" y="369" type="line"/>
      <point x="707" y="119" type="line"/>
      <point x="758" y="119" type="line"/>
      <point x="749" y="73" type="line"/>
      <point x="698" y="73" type="line"/>
      <point x="683" y="0" type="line"/>
    </contour>
    <contour>
      <point x="685" y="300" type="line"/>
      <point x="682" y="300" type="line"/>
      <point x="523" y="119" type="line"/>
      <point x="649" y="119" type="line"/>
    </contour>
  </outline>
</glyph>
<glyph name="questiondown" format="2">
  <advance width="470"/>
  <unicode hex="00BF"/>
  <outline>
    <contour>
      <point x="163" y="-194" type="qcurve"/>
      <point x="320" y="-194"/>
      <point x="385" y="-30" type="qcurve"/>
      <point x="318" y="-3" type="line"/>
      <point x="298" y="-58"/>
      <point x="228" y="-122"/>
      <point x="170" y="-122" type="qcurve"/>
      <point x="119" y="-122"/>
      <point x="67" y="-71"/>
      <point x="67" y="-28" type="qcurve"/>
      <point x="67" y="0"/>
      <point x="70" y="10" type="qcurve"/>
      <point x="81" y="66"/>
      <point x="134" y="103" type="qcurve"/>
      <point x="188" y="138"/>
      <point x="268" y="143" type="qcurve"/>
      <point x="301" y="308" type="line"/>
      <point x="226" y="308" type="line"/>
      <point x="204" y="200" type="line"/>
      <point x="101" y="181"/>
      <point x="-17" y="50"/>
      <point x="-17" y="-33" type="qcurve"/>
      <point x="-17" y="-109"/>
      <point x="81" y="-194"/>
    </contour>
    <contour>
      <point x="282" y="399" type="qcurve"/>
      <point x="339" y="399"/>
      <point x="347" y="454" type="qcurve"/>
      <point x="351" y="472"/>
      <point x="351" y="488" type="qcurve"/>
      <point x="351" y="528"/>
      <point x="302" y="528" type="qcurve"/>
      <point x="300" y="528" type="line"/>
      <point x="243" y="528"/>
      <point x="235" y="473" type="qcurve"/>
      <point x="231" y="457"/>
      <point x="231" y="439" type="qcurve"/>
      <point x="231" y="399"/>
    </contour>
  </outline>
</glyph>
<glyph name="Agrave" format="2">
  <advance width="623"/>
  <unicode hex="00C0"/>
  <outline>
    <contour>
      <point x="547" y="0" type="line"/>
      <point x="453" y="698" type="line"/>
      <point x="346" y="698" type="line"/>
      <point x="-27" y="0" type="line"/>
      <point x="59" y="0" type="line"/>
      <point x="167" y="206" type="line"/>
      <point x="438" y="206" type="line"/>
      <point x="464" y="0" type="line"/>
    </contour>
    <contour>
      <point x="430" y="278" type="line"/>
      <point x="204" y="278" type="line"/>
      <point x="382" y="621" type="line"/>
      <point x="387" y="621" type="line"/>
    </contour>
    <contour>
      <point x="403" y="755" type="line"/>
      <point x="449" y="776" type="line"/>
      <point x="387" y="948" type="line"/>
      <point x="319" y="916" type="line"/>
    </contour>
  </outline>
</glyph>
<glyph name="Acircumflex" format="2">
  <advance width="623"/>
  <unicode hex="00C2"/>
  <outline>
    <contour>
      <point x="547" y="0" type="line"/>
      <point x="453" y="698" type="line"/>
      <point x="346" y="698" type="line"/>
      <point x="-27" y="0" type="line"/>
      <point x="59" y="0" type="line"/>
      <point x="167" y="206" type="line"/>
      <point x="438" y="206" type="line"/>
      <point x="464" y="0" type="line"/>
    </contour>
    <contour>
      <point x="430" y="278" type="line"/>
      <point x="204" y="278" type="line"/>
      <point x="382" y="621" type="line"/>
      <point x="387" y="621" type="line"/>
    </contour>
    <contour>
      <point x="293" y="761" type="line"/>
      <point x="432" y="877" type="line"/>
      <point x="525" y="762" type="line"/>
      <point x="568" y="792" type="line"/>
      <point x="486" y="935" type="line"/>
      <point x="392" y="935" type="line"/>
      <point x="253" y="793" type="line"/>
    </contour>
  </outline>
</glyph>
<glyph name="Atilde" format="2">
  <advance width="623"/>
  <unicode hex="00C3"/>
  <outline>
    <contour>
      <point x="547" y="0" type="line"/>
      <point x="453" y="698" type="line"/>
      <point x="346" y="698" type="line"/>
      <point x="-27" y="0" type="line"/>
      <point x="59" y="0" type="line"/>
      <point x="167" y="206" type="line"/>
      <point x="438" y="206" type="line"/>
      <point x="464" y="0" type="line"/>
    </contour>
    <contour>
      <point x="430" y="278" type="line"/>
      <point x="204" y="278" type="line"/>
      <point x="382" y="621" type="line"/>
      <point x="387" y="621" type="line"/>
    </contour>
    <contour>
      <point x="487" y="782" type="qcurve"/>
      <point x="547" y="782"/>
      <point x="586" y="836" type="qcurve"/>
      <point x="559" y="874" type="line"/>
      <point x="542" y="861"/>
      <point x="515" y="847"/>
      <point x="499" y="847" type="qcurve"/>
      <point x="474" y="847"/>
      <point x="428" y="875" type="qcurve"/>
      <point x="415" y="883"/>
      <point x="382" y="897"/>
      <point x="359" y="897" type="qcurve"/>
      <point x="299" y="897"/>
      <point x="260" y="843" type="qcurve"/>
      <point x="287" y="805" type="line"/>
      <point x="304" y="818"/>
      <point x="331" y="832"/>
      <point x="347" y="832" type="qcurve"/>
      <point x="372" y="832"/>
      <point x="418" y="804" type="qcurve"/>
      <point x="431" y="796"/>
      <point x="464" y="782"/>
    </contour>
  </outline>
</glyph>
<glyph name="Adieresis" format="2">
  <advance width="623"/>
  <unicode hex="00C4"/>
  <outline>
    <contour>
      <point x="547" y="0" type="line"/>
      <point x="453" y="698" type="line"/>
      <point x="346" y="698" type="line"/>
      <point x="-27" y="0" type="line"/>
      <point x="59" y="0" type="line"/>
      <point x="167" y="206" type="line"/>
      <point x="438" y="206" type="line"/>
      <point x="464" y="0" type="line"/>
    </contour>
    <contour>
      <point x="430" y="278" type="line"/>
      <point x="204" y="278" type="line"/>
      <point x="382" y="621" type="line"/>
      <point x="387" y="621" type="line"/>
    </contour>
    <contour>
      <point x="322" y="787" type="qcurve"/>
      <point x="369" y="787"/>
      <point x="378" y="834" type="qcurve"/>
      <point x="381" y="853"/>
      <point x="381" y="857" type="qcurve"/>
      <point x="381" y="892"/>
      <point x="339" y="892" type="qcurve"/>
      <point x="293" y="892"/>
      <point x="283" y="845" type="qcurve"/>
      <point x="280" y="827"/>
      <point x="280" y="822" type="qcurve"/>
      <point x="280" y="788"/>
    </contour>
    <contour>
      <point x="504" y="787" type="qcurve"/>
      <point x="551" y="787"/>
      <point x="560" y="834" type="qcurve"/>
      <point x="563" y="853"/>
      <point x="563" y="857" type="qcurve"/>
      <point x="563" y="892"/>
      <point x="521" y="892" type="qcurve"/>
      <point x="475" y="892"/>
      <point x="465" y="845" type="qcurve"/>
      <point x="462" y="827"/>
      <point x="462" y="822" type="qcurve"/>
      <point x="462" y="788"/>
    </contour>
  </outline>
</glyph>
<glyph name="Ccedilla" format="2">
  <advance width="602"/>
  <unicode hex="00C7"/>
  <outline>
    <contour>
      <point x="270" y="-207" type="qcurve" smooth="yes"/>
      <point x="232" y="-207"/>
      <point x="180" y="-185"/>
      <point x="169" y="-170" type="qcurve"/>
      <point x="209" y="-129" type="line"/>
      <point x="216" y="-139"/>
      <point x="246" y="-154"/>
      <point x="268" y="-154" type="qcurve"/>
      <point x="314" y="-149"/>
      <point x="314" y="-118" type="qcurve" smooth="yes"/>
      <point x="314" y="-102"/>
      <point x="291" y="-83"/>
      <point x="259" y="-79" type="qcurve" smooth="yes"/>
      <point x="233" y="-76" type="line"/>
      <point x="253" y="-10" type="line"/>
      <point x="164" y="4"/>
      <point x="55" y="145"/>
      <point x="55" y="266" type="qcurve" smooth="yes"/>
      <point x="55" y="448"/>
      <point x="147" y="579" type="qcurve"/>
      <point x="192" y="640"/>
      <point x="315" y="710"/>
      <point x="391" y="710" type="qcurve" smooth="yes"/>
      <point x="563" y="710"/>
      <point x="615" y="551" type="qcurve"/>
      <point x="542" y="518" type="line"/>
      <point x="524" y="577"/>
      <point x="449" y="637"/>
      <point x="383" y="637" type="qcurve" smooth="yes"/>
      <point x="304" y="637"/>
      <point x="185" y="524"/>
      <point x="165" y="427" type="qcurve" smooth="yes"/>
      <point x="142" y="312" type="line"/>
      <point x="136" y="276"/>
      <point x="136" y="246" type="qcurve" smooth="yes"/>
      <point x="136" y="164"/>
      <point x="178" y="113" type="qcurve" smooth="yes"/>
      <point x="219" y="61"/>
      <point x="295" y="61" type="qcurve" smooth="yes"/>
      <point x="367" y="61"/>
      <point x="454" y="130"/>
      <point x="487" y="191" type="qcurve"/>
      <point x="555" y="157" type="line"/>
      <point x="472" y="-8"/>
      <point x="302" y="-12" type="qcurve"/>
      <point x="286" y="-62" type="line"/>
      <point x="288" y="-64" type="line"/>
      <point x="294" y="-63" type="line"/>
      <point x="303" y="-60"/>
      <point x="319" y="-60" type="qcurve" smooth="yes"/>
      <point x="378" y="-60"/>
      <point x="378" y="-116" type="qcurve" smooth="yes"/>
      <point x="378" y="-158"/>
      <point x="318" y="-207"/>
    </contour>
  </outline>
</glyph>
<glyph name="Igrave" format="2">
  <advance width="261"/>
  <unicode hex="00CC"/>
  <outline>
    <contour>
      <point x="221" y="755" type="line"/>
      <point x="267" y="776" type="line"/>
      <point x="205" y="948" type="line"/>
      <point x="137" y="916" type="line"/>
    </contour>
    <contour>
      <point x="120" y="0" type="line"/>
      <point x="39" y="0" type="line"/>
      <point x="177" y="698" type="line"/>
      <point x="258" y="698" type="line"/>
    </contour>
  </outline>
</glyph>
<glyph name="Iacute" format="2">
  <advance width="261"/>
  <unicode hex="00CD"/>
  <outline>
    <contour>
      <point x="239" y="756" type="line"/>
      <point x="362" y="914" type="line"/>
      <point x="294" y="950" type="line"/>
      <point x="190" y="781" type="line"/>
    </contour>
    <contour>
      <point x="120" y="0" type="line"/>
      <point x="39" y="0" type="line"/>
      <point x="177" y="698" type="line"/>
      <point x="258" y="698" type="line"/>
    </contour>
  </outline>
</glyph>
<glyph name="Icircumflex" format="2">
  <advance width="261"/>
  <unicode hex="00CE"/>
  <outline>
    <contour>
      <point x="111" y="761" type="line"/>
      <point x="71" y="793" type="line"/>
      <point x="210" y="935" type="line"/>
      <point x="304" y="935" type="line"/>
      <point x="386" y="792" type="line"/>
      <point x="343" y="762" type="line"/>
      <point x="250" y="877" type="line"/>
    </contour>
    <contour>
      <point x="120" y="0" type="line"/>
      <point x="39" y="0" type="line"/>
      <point x="177" y="698" type="line"/>
      <point x="258" y="698" type="line"/>
    </contour>
  </outline>
</glyph>
<glyph name="Ntilde" format="2">
  <advance width="684"/>
  <unicode hex="00D1"/>
  <outline>
    <contour>
      <point x="541" y="0" type="line"/>
      <point x="681" y="698" type="line"/>
      <point x="602" y="698" type="line"/>
      <point x="485" y="111" type="line"/>
      <point x="480" y="111" type="line"/>
      <point x="425" y="278" type="line"/>
      <point x="273" y="698" type="line"/>
      <point x="179" y="698" type="line"/>
      <point x="39" y="0" type="line"/>
      <point x="118" y="0" type="line"/>
      <point x="235" y="587" type="line"/>
      <point x="240" y="587" type="line"/>
      <point x="295" y="420" type="line"/>
      <point x="447" y="0" type="line"/>
    </contour>
    <contour>
      <point x="522" y="782" type="qcurve"/>
      <point x="582" y="782"/>
      <point x="621" y="836" type="qcurve"/>
      <point x="594" y="874" type="line"/>
      <point x="577" y="861"/>
      <point x="550" y="847"/>
      <point x="534" y="847" type="qcurve"/>
      <point x="509" y="847"/>
      <point x="463" y="875" type="qcurve"/>
      <point x="450" y="883"/>
      <point x="417" y="897"/>
      <point x="394" y="897" type="qcurve"/>
      <point x="334" y="897"/>
      <point x="295" y="843" type="qcurve"/>
      <point x="322" y="805" type="line"/>
      <point x="339" y="818"/>
      <point x="366" y="832"/>
      <point x="382" y="832" type="qcurve"/>
      <point x="407" y="832"/>
      <point x="453" y="804" type="qcurve"/>
      <point x="466" y="796"/>
      <point x="499" y="782"/>
    </contour>
  </outline>
</glyph>
<glyph name="Otilde" format="2">
  <advance width="679"/>
  <unicode hex="00D5"/>
  <outline>
    <contour>
      <point x="298" y="-12" type="qcurve"/>
      <point x="381" y="-12"/>
      <point x="512" y="63"/>
      <point x="558" y="127" type="qcurve"/>
      <point x="652" y="264"/>
      <point x="652" y="438" type="qcurve"/>
      <point x="652" y="567"/>
      <point x="583" y="640" type="qcurve"/>
      <point x="513" y="710"/>
      <point x="409" y="710" type="qcurve"/>
      <point x="326" y="710"/>
      <point x="195" y="635"/>
      <point x="149" y="572" type="qcurve"/>
      <point x="55" y="434"/>
      <point x="55" y="260" type="qcurve"/>
      <point x="55" y="128"/>
      <point x="195" y="-12"/>
    </contour>
    <contour>
      <point x="306" y="61" type="qcurve"/>
      <point x="225" y="61"/>
      <point x="135" y="156"/>
      <point x="135" y="236" type="qcurve"/>
      <point x="135" y="266"/>
      <point x="142" y="305" type="qcurve"/>
      <point x="162" y="405" type="line"/>
      <point x="184" y="515"/>
      <point x="308" y="637"/>
      <point x="401" y="637" type="qcurve"/>
      <point x="482" y="637"/>
      <point x="572" y="542"/>
      <point x="572" y="462" type="qcurve"/>
      <point x="572" y="432"/>
      <point x="565" y="393" type="qcurve"/>
      <point x="545" y="293" type="line"/>
      <point x="523" y="183"/>
      <point x="399" y="61"/>
    </contour>
    <contour>
      <point x="497" y="782" type="qcurve"/>
      <point x="557" y="782"/>
      <point x="596" y="836" type="qcurve"/>
      <point x="569" y="874" type="line"/>
      <point x="552" y="861"/>
      <point x="525" y="847"/>
      <point x="509" y="847" type="qcurve"/>
      <point x="484" y="847"/>
      <point x="438" y="875" type="qcurve"/>
      <point x="425" y="883"/>
      <point x="392" y="897"/>
      <point x="369" y="897" type="qcurve"/>
      <point x="309" y="897"/>
      <point x="270" y="843" type="qcurve"/>
      <point x="297" y="805" type="line"/>
      <point x="314" y="818"/>
      <point x="341" y="832"/>
      <point x="357" y="832" type="qcurve"/>
      <point x="382" y="832"/>
      <point x="428" y="804" type="qcurve"/>
      <point x="441" y="796"/>
      <point x="474" y="782"/>
    </contour>
  </outline>
</glyph>
<glyph name="Ugrave" format="2">
  <advance width="656"/>
  <unicode hex="00D9"/>
  <outline>
    <contour>
      <point x="332" y="916" type="line"/>
      <point x="400" y="948" type="line"/>
      <point x="462" y="776" type="line"/>
      <point x="416" y="755" type="line"/>
    </contour>
    <contour>
      <point x="280" y="-12" type="qcurve" smooth="yes"/>
      <point x="186" y="-12"/>
      <point x="82" y="93"/>
      <point x="82" y="189" type="qcurve" smooth="yes"/>
      <point x="82" y="236"/>
      <point x="93" y="294" type="qcurve" smooth="yes"/>
      <point x="174" y="698" type="line"/>
      <point x="255" y="698" type="line"/>
      <point x="163" y="241"/>
      <point x="162" y="230" type="qcurve" smooth="yes"/>
      <point x="161" y="214"/>
      <point x="161" y="197" type="qcurve" smooth="yes"/>
      <point x="161" y="133"/>
      <point x="229" y="61"/>
      <point x="289" y="61" type="qcurve" smooth="yes"/>
      <point x="373" y="61"/>
      <point x="470" y="164"/>
      <point x="493" y="284" type="qcurve"/>
      <point x="576" y="698" type="line"/>
      <point x="657" y="698" type="line"/>
      <point x="573" y="278" type="line"/>
      <point x="543" y="120"/>
      <point x="405" y="-12"/>
    </contour>
  </outline>
</glyph>
<glyph name="Udieresis" format="2">
  <advance width="656"/>
  <unicode hex="00DC"/>
  <outline>
    <contour>
      <point x="280" y="-12" type="qcurve"/>
      <point x="405" y="-12"/>
      <point x="543" y="120"/>
      <point x="573" y="278" type="qcurve"/>
      <point x="657" y="698" type="line"/>
      <point x="576" y="698" type="line"/>
      <point x="493" y="284" type="line"/>
      <point x="470" y="164"/>
      <point x="373" y="61"/>
      <point x="289" y="61" type="qcurve"/>
      <point x="229" y="61"/>
      <point x="161" y="133"/>
      <point x="161" y="197" type="qcurve"/>
      <point x="161" y="214"/>
      <point x="162" y="230" type="qcurve"/>
      <point x="163" y="241"/>
      <point x="255" y="698" type="qcurve"/>
      <point x="174" y="698" type="line"/>
      <point x="93" y="294" type="line"/>
      <point x="82" y="236"/>
      <point x="82" y="189" type="qcurve"/>
      <point x="82" y="93"/>
      <point x="186" y="-12"/>
    </contour>
    <contour>
      <point x="335" y="787" type="qcurve"/>
      <point x="382" y="787"/>
      <point x="391" y="834" type="qcurve"/>
      <point x="394" y="853"/>
      <point x="394" y="857" type="qcurve"/>
      <point x="394" y="892"/>
      <point x="352" y="892" type="qcurve"/>
      <point x="306" y="892"/>
      <point x="296" y="845" type="qcurve"/>
      <point x="293" y="827"/>
      <point x="293" y="822" type="qcurve"/>
      <point x="293" y="788"/>
    </contour>
    <contour>
      <point x="517" y="787" type="qcurve"/>
      <point x="564" y="787"/>
      <point x="573" y="834" type="qcurve"/>
      <point x="576" y="853"/>
      <point x="576" y="857" type="qcurve"/>
      <point x="576" y="892"/>
      <point x="534" y="892" type="qcurve"/>
      <point x="488" y="892"/>
      <point x="478" y="845" type="qcurve"/>
      <point x="475" y="827"/>
      <point x="475" y="822" type="qcurve"/>
      <point x="475" y="788"/>
    </contour>
  </outline>
</glyph>
<glyph name="Yacute" format="2">
  <advance width="577"/>
  <unicode hex="00DD"/>
  <outline>
    <contour>
      <point x="277" y="0" type="line"/>
      <point x="332" y="273" type="line"/>
      <point x="651" y="698" type="line"/>
      <point x="558" y="698" type="line"/>
      <point x="308" y="357" type="line"/>
      <point x="303" y="357" type="line"/>
      <point x="187" y="698" type="line"/>
      <point x="105" y="698" type="line"/>
      <point x="251" y="273" type="line"/>
      <point x="196" y="0" type="line"/>
    </contour>
    <contour>
      <point x="387" y="756" type="line"/>
      <point x="510" y="914" type="line"/>
      <point x="442" y="950" type="line"/>
      <point x="338" y="781" type="line"/>
    </contour>
  </outline>
</glyph>
<glyph name="Thorn" format="2">
  <advance width="587"/>
  <unicode hex="00DE"/>
  <outline>
    <contour>
      <point x="119" y="0" type="line"/>
      <point x="150" y="154" type="line"/>
      <point x="338" y="154" type="line"/>
      <point x="444" y="154"/>
      <point x="572" y="291"/>
      <point x="572" y="388" type="qcurve"/>
      <point x="572" y="460"/>
      <point x="491" y="554"/>
      <point x="399" y="554" type="qcurve"/>
      <point x="231" y="554" type="line"/>
      <point x="260" y="698" type="line"/>
      <point x="179" y="698" type="line"/>
      <point x="38" y="0" type="line"/>
    </contour>
    <contour>
      <point x="350" y="226" type="qcurve"/>
      <point x="165" y="226" type="line"/>
      <point x="216" y="482" type="line"/>
      <point x="393" y="482" type="line"/>
      <point x="446" y="482"/>
      <point x="488" y="438"/>
      <point x="488" y="402" type="qcurve"/>
      <point x="488" y="390"/>
      <point x="486" y="376" type="qcurve"/>
      <point x="476" y="328" type="line"/>
      <point x="451" y="226"/>
    </contour>
  </outline>
</glyph>
<glyph name="germandbls" format="2">
  <advance width="641"/>
  <unicode hex="00DF"/>
  <outline>
    <contour>
      <point x="406" y="-12" type="qcurve"/>
      <point x="484" y="-12"/>
      <point x="586" y="78"/>
      <point x="586" y="154" type="qcurve"/>
      <point x="586" y="186"/>
      <point x="577" y="208" type="qcurve"/>
      <point x="555" y="263"/>
      <point x="470" y="287" type="qcurve"/>
      <point x="431" y="300" type="line"/>
      <point x="375" y="318"/>
      <point x="375" y="370" type="qcurve"/>
      <point x="375" y="412"/>
      <point x="452" y="460"/>
      <point x="529" y="460" type="qcurve"/>
      <point x="574" y="460" type="line"/>
      <point x="580" y="491"/>
      <point x="592" y="553"/>
      <point x="592" y="584" type="qcurve"/>
      <point x="592" y="662"/>
      <point x="493" y="752"/>
      <point x="415" y="752" type="qcurve"/>
      <point x="312" y="752"/>
      <point x="246" y="696" type="qcurve"/>
      <point x="177" y="637"/>
      <point x="155" y="516" type="qcurve"/>
      <point x="71" y="516" type="line"/>
      <point x="57" y="446" type="line"/>
      <point x="141" y="446" type="line"/>
      <point x="52" y="0" type="line"/>
      <point x="130" y="0" type="line"/>
      <point x="235" y="527" type="line"/>
      <point x="253" y="616"/>
      <point x="335" y="686"/>
      <point x="405" y="686" type="qcurve"/>
      <point x="459" y="686"/>
      <point x="517" y="635"/>
      <point x="517" y="584" type="qcurve"/>
      <point x="517" y="556"/>
      <point x="510" y="522" type="qcurve"/>
      <point x="414" y="522"/>
      <point x="300" y="428"/>
      <point x="300" y="366" type="qcurve"/>
      <point x="300" y="333"/>
      <point x="310" y="311" type="qcurve"/>
      <point x="333" y="256"/>
      <point x="419" y="231" type="qcurve"/>
      <point x="458" y="218" type="line"/>
      <point x="490" y="207"/>
      <point x="512" y="176"/>
      <point x="512" y="150" type="qcurve"/>
      <point x="512" y="103"/>
      <point x="453" y="55"/>
      <point x="406" y="55" type="qcurve"/>
      <point x="316" y="55"/>
      <point x="264" y="129" type="qcurve"/>
      <point x="211" y="82" type="line"/>
      <point x="243" y="37"/>
      <point x="346" y="-12"/>
    </contour>
  </outline>
</glyph>
<glyph name="atilde" format="2">
  <advance width="583"/>
  <unicode hex="00E3"/>
  <outline>
    <contour>
      <point x="421" y="612" type="qcurve" smooth="yes"/>
      <point x="395" y="612"/>
      <point x="361" y="628"/>
      <point x="347" y="637" type="qcurve" smooth="yes"/>
      <point x="308" y="661"/>
      <point x="282" y="661" type="qcurve" smooth="yes"/>
      <point x="265" y="661"/>
      <point x="239" y="647"/>
      <point x="222" y="634" type="qcurve"/>
      <point x="194" y="673" type="line"/>
      <point x="237" y="726"/>
      <point x="293" y="726" type="qcurve" smooth="yes"/>
      <point x="319" y="726"/>
      <point x="353" y="710"/>
      <point x="367" y="701" type="qcurve" smooth="yes"/>
      <point x="407" y="677"/>
      <point x="432" y="677" type="qcurve" smooth="yes"/>
      <point x="449" y="677"/>
      <point x="475" y="691"/>
      <point x="492" y="704" type="qcurve"/>
      <point x="520" y="665" type="line"/>
      <point x="477" y="612"/>
    </contour>
    <contour>
      <point x="208" y="-12" type="qcurve" smooth="yes"/>
      <point x="137" y="-12"/>
      <point x="51" y="93"/>
      <point x="51" y="185" type="qcurve" smooth="yes"/>
      <point x="51" y="242"/>
      <point x="82" y="362"/>
      <point x="144" y="465"/>
      <point x="239" y="528"/>
      <point x="303" y="528" type="qcurve" smooth="yes"/>
      <point x="350" y="528"/>
      <point x="425" y="480"/>
      <point x="438" y="432" type="qcurve"/>
      <point x="442" y="432" type="line"/>
      <point x="459" y="516" type="line"/>
      <point x="536" y="516" type="line"/>
      <point x="446" y="68" type="line"/>
      <point x="519" y="68" type="line"/>
      <point x="506" y="0" type="line"/>
      <point x="437" y="0" type="line" smooth="yes"/>
      <point x="403" y="0"/>
      <point x="370" y="34"/>
      <point x="370" y="62" type="qcurve" smooth="yes"/>
      <point x="370" y="75"/>
      <point x="378" y="112" type="qcurve"/>
      <point x="375" y="112" type="line"/>
      <point x="343" y="47"/>
      <point x="265" y="-12"/>
    </contour>
    <contour>
      <point x="227" y="58" type="qcurve" smooth="yes"/>
      <point x="263" y="58"/>
      <point x="314" y="85"/>
      <point x="337" y="109" type="qcurve"/>
      <point x="388" y="159"/>
      <point x="402" y="233" type="qcurve" smooth="yes"/>
      <point x="428" y="362"/>
      <point x="428" y="369" type="qcurve" smooth="yes"/>
      <point x="428" y="398"/>
      <point x="402" y="425" type="qcurve" smooth="yes"/>
      <point x="369" y="458"/>
      <point x="312" y="458" type="qcurve" smooth="yes"/>
      <point x="246" y="458"/>
      <point x="165" y="376"/>
      <point x="150" y="301" type="qcurve" smooth="yes"/>
      <point x="135" y="226" type="line" smooth="yes"/>
      <point x="130" y="198"/>
      <point x="130" y="175" type="qcurve" smooth="yes"/>
      <point x="130" y="125"/>
      <point x="177" y="58"/>
    </contour>
  </outline>
</glyph>
<glyph name="ccedilla" format="2">
  <advance width="488"/>
  <unicode hex="00E7"/>
  <outline>
    <contour>
      <point x="222" y="-207" type="qcurve"/>
      <point x="270" y="-207"/>
      <point x="330" y="-158"/>
      <point x="330" y="-116" type="qcurve"/>
      <point x="330" y="-60"/>
      <point x="271" y="-60" type="qcurve"/>
      <point x="255" y="-60"/>
      <point x="246" y="-63" type="qcurve"/>
      <point x="240" y="-64" type="line"/>
      <point x="238" y="-62" type="line"/>
      <point x="254" y="-11" type="line"/>
      <point x="376" y="1"/>
      <point x="437" y="128" type="qcurve"/>
      <point x="376" y="158" type="line"/>
      <point x="346" y="101"/>
      <point x="282" y="57"/>
      <point x="244" y="57" type="qcurve"/>
      <point x="184" y="57"/>
      <point x="126" y="127"/>
      <point x="126" y="183" type="qcurve"/>
      <point x="126" y="201"/>
      <point x="130" y="228" type="qcurve"/>
      <point x="147" y="312" type="line"/>
      <point x="161" y="382"/>
      <point x="238" y="459"/>
      <point x="300" y="459" type="qcurve"/>
      <point x="383" y="459"/>
      <point x="409" y="378" type="qcurve"/>
      <point x="473" y="407" type="line"/>
      <point x="458" y="461"/>
      <point x="371" y="528"/>
      <point x="302" y="528" type="qcurve"/>
      <point x="188" y="528"/>
      <point x="117" y="431" type="qcurve"/>
      <point x="49" y="333"/>
      <point x="49" y="199" type="qcurve"/>
      <point x="49" y="111"/>
      <point x="130" y="1"/>
      <point x="205" y="-10" type="qcurve"/>
      <point x="185" y="-76" type="line"/>
      <point x="211" y="-79" type="line"/>
      <point x="243" y="-83"/>
      <point x="266" y="-102"/>
      <point x="266" y="-118" type="qcurve"/>
      <point x="266" y="-149"/>
      <point x="220" y="-154" type="qcurve"/>
      <point x="198" y="-154"/>
      <point x="168" y="-139"/>
      <point x="161" y="-129" type="qcurve"/>
      <point x="121" y="-170" type="line"/>
      <point x="132" y="-185"/>
      <point x="184" y="-207"/>
    </contour>
  </outline>
</glyph>
<glyph name="igrave" format="2">
  <advance width="264"/>
  <unicode hex="00EC"/>
  <outline>
    <contour>
      <point x="100" y="744" type="line"/>
      <point x="168" y="776" type="line"/>
      <point x="229" y="606" type="line"/>
      <point x="184" y="585" type="line"/>
    </contour>
    <contour>
      <point x="120" y="0" type="line" smooth="yes"/>
      <point x="85" y="0"/>
      <point x="51" y="35"/>
      <point x="51" y="63" type="qcurve" smooth="yes"/>
      <point x="51" y="71"/>
      <point x="140" y="516" type="qcurve"/>
      <point x="217" y="516" type="line"/>
      <point x="127" y="68" type="line"/>
      <point x="200" y="68" type="line"/>
      <point x="187" y="0" type="line"/>
    </contour>
  </outline>
</glyph>
<glyph name="eth" format="2">
  <advance width="563"/>
  <unicode hex="00F0"/>
  <outline>
    <contour>
      <point x="236" y="-12" type="qcurve"/>
      <point x="361" y="-12"/>
      <point x="511" y="189"/>
      <point x="511" y="357" type="qcurve"/>
      <point x="511" y="407"/>
      <point x="503" y="450" type="qcurve"/>
      <point x="481" y="571"/>
      <point x="416" y="652" type="qcurve"/>
      <point x="502" y="707" type="line"/>
      <point x="474" y="753" type="line"/>
      <point x="381" y="692" type="line"/>
      <point x="353" y="721"/>
      <point x="330" y="740" type="qcurve"/>
      <point x="216" y="740" type="line"/>
      <point x="281" y="703"/>
      <point x="325" y="656" type="qcurve"/>
      <point x="244" y="603" type="line"/>
      <point x="270" y="559" type="line"/>
      <point x="359" y="616" type="line"/>
      <point x="425" y="525"/>
      <point x="435" y="416" type="qcurve"/>
      <point x="430" y="414" type="line"/>
      <point x="400" y="505"/>
      <point x="293" y="505" type="qcurve"/>
      <point x="240" y="505"/>
      <point x="151" y="456"/>
      <point x="119" y="413" type="qcurve"/>
      <point x="49" y="320"/>
      <point x="49" y="198" type="qcurve"/>
      <point x="49" y="104"/>
      <point x="99" y="47" type="qcurve"/>
      <point x="148" y="-12"/>
    </contour>
    <contour>
      <point x="249" y="58" type="qcurve"/>
      <point x="191" y="58"/>
      <point x="124" y="119"/>
      <point x="124" y="174" type="qcurve"/>
      <point x="124" y="189"/>
      <point x="128" y="207" type="qcurve"/>
      <point x="143" y="282" type="line"/>
      <point x="158" y="351"/>
      <point x="242" y="435"/>
      <point x="301" y="435" type="qcurve"/>
      <point x="359" y="435"/>
      <point x="426" y="374"/>
      <point x="426" y="319" type="qcurve"/>
      <point x="426" y="304"/>
      <point x="422" y="287" type="qcurve"/>
      <point x="407" y="211" type="line"/>
      <point x="392" y="142"/>
      <point x="309" y="58"/>
    </contour>
  </outline>
</glyph>
<glyph name="oslash" format="2">
  <advance width="550"/>
  <unicode hex="00F8"/>
  <outline>
    <contour>
      <point x="-17" y="-3" type="line"/>
      <point x="71" y="88" type="line"/>
      <point x="49" y="133"/>
      <point x="49" y="200" type="qcurve" smooth="yes"/>
      <point x="49" y="331"/>
      <point x="123" y="429" type="qcurve" smooth="yes"/>
      <point x="158" y="475"/>
      <point x="256" y="528"/>
      <point x="315" y="528" type="qcurve" smooth="yes"/>
      <point x="398" y="528"/>
      <point x="448" y="474" type="qcurve"/>
      <point x="528" y="557" type="line"/>
      <point x="567" y="519" type="line"/>
      <point x="479" y="428" type="line"/>
      <point x="501" y="384"/>
      <point x="501" y="316" type="qcurve" smooth="yes"/>
      <point x="501" y="186"/>
      <point x="427" y="87" type="qcurve" smooth="yes"/>
      <point x="392" y="41"/>
      <point x="294" y="-12"/>
      <point x="235" y="-12" type="qcurve" smooth="yes"/>
      <point x="153" y="-12"/>
      <point x="102" y="42" type="qcurve"/>
      <point x="22" y="-41" type="line"/>
    </contour>
    <contour>
      <point x="398" y="422" type="line"/>
      <point x="367" y="459"/>
      <point x="305" y="459" type="qcurve" smooth="yes"/>
      <point x="249" y="459"/>
      <point x="162" y="377"/>
      <point x="145" y="298" type="qcurve" smooth="yes"/>
      <point x="126" y="204"/>
      <point x="125" y="191" type="qcurve"/>
      <point x="125" y="178" type="line" smooth="yes"/>
      <point x="125" y="159"/>
      <point x="128" y="145" type="qcurve"/>
    </contour>
    <contour>
      <point x="245" y="57" type="qcurve" smooth="yes"/>
      <point x="301" y="57"/>
      <point x="388" y="139"/>
      <point x="405" y="218" type="qcurve" smooth="yes"/>
      <point x="424" y="312"/>
      <point x="425" y="325" type="qcurve"/>
      <point x="425" y="338" type="line" smooth="yes"/>
      <point x="425" y="358"/>
      <point x="422" y="371" type="qcurve"/>
      <point x="152" y="94" type="line"/>
      <point x="184" y="57"/>
    </contour>
  </outline>
</glyph>
<glyph name="ucircumflex" format="2">
  <advance width="562"/>
  <unicode hex="00FB"/>
  <outline>
    <contour>
      <point x="195" y="-12" type="qcurve"/>
      <point x="303" y="-12"/>
      <point x="350" y="102" type="qcurve"/>
      <point x="355" y="102" type="line"/>
      <point x="349" y="72"/>
      <point x="349" y="63" type="qcurve"/>
      <point x="349" y="35"/>
      <point x="382" y="0"/>
      <point x="415" y="0" type="qcurve"/>
      <point x="485" y="0" type="line"/>
      <point x="498" y="68" type="line"/>
      <point x="425" y="68" type="line"/>
      <point x="515" y="516" type="line"/>
      <point x="438" y="516" type="line"/>
      <point x="380" y="228" type="line"/>
      <point x="374" y="199"/>
      <point x="357" y="164" type="qcurve"/>
      <point x="346" y="139"/>
      <point x="308" y="91"/>
      <point x="255" y="58"/>
      <point x="219" y="58" type="qcurve"/>
      <point x="177" y="58"/>
      <point x="142" y="102"/>
      <point x="142" y="145" type="qcurve"/>
      <point x="142" y="163"/>
      <point x="147" y="198" type="qcurve"/>
      <point x="211" y="516" type="line"/>
      <point x="134" y="516" type="line"/>
      <point x="70" y="198" type="line"/>
      <point x="63" y="160"/>
      <point x="63" y="131" type="qcurve"/>
      <point x="63" y="64"/>
      <point x="129" y="-12"/>
    </contour>
    <contour>
      <point x="222" y="590" type="line"/>
      <point x="361" y="706" type="line"/>
      <point x="454" y="591" type="line"/>
      <point x="497" y="622" type="line"/>
      <point x="415" y="765" type="line"/>
      <point x="321" y="765" type="line"/>
      <point x="183" y="622" type="line"/>
    </contour>
  </outline>
</glyph>
<glyph name="udieresis" format="2">
  <advance width="562"/>
  <unicode hex="00FC"/>
  <outline>
    <contour>
      <point x="254" y="618" type="qcurve"/>
      <point x="212" y="619"/>
      <point x="212" y="653" type="qcurve" smooth="yes"/>
      <point x="212" y="663"/>
      <point x="215" y="674" type="qcurve"/>
      <point x="225" y="721"/>
      <point x="271" y="721" type="qcurve" smooth="yes"/>
      <point x="313" y="721"/>
      <point x="313" y="686" type="qcurve" smooth="yes"/>
      <point x="313" y="682"/>
      <point x="310" y="665" type="qcurve" smooth="yes"/>
      <point x="301" y="618"/>
    </contour>
    <contour>
      <point x="436" y="618" type="qcurve"/>
      <point x="394" y="619"/>
      <point x="394" y="653" type="qcurve" smooth="yes"/>
      <point x="394" y="663"/>
      <point x="397" y="674" type="qcurve"/>
      <point x="407" y="721"/>
      <point x="453" y="721" type="qcurve" smooth="yes"/>
      <point x="495" y="721"/>
      <point x="495" y="686" type="qcurve" smooth="yes"/>
      <point x="495" y="682"/>
      <point x="492" y="665" type="qcurve" smooth="yes"/>
      <point x="483" y="618"/>
    </contour>
    <contour>
      <point x="195" y="-12" type="qcurve" smooth="yes"/>
      <point x="129" y="-12"/>
      <point x="63" y="64"/>
      <point x="63" y="131" type="qcurve" smooth="yes"/>
      <point x="63" y="160"/>
      <point x="70" y="198" type="qcurve" smooth="yes"/>
      <point x="134" y="516" type="line"/>
      <point x="211" y="516" type="line"/>
      <point x="147" y="198" type="line"/>
      <point x="142" y="163"/>
      <point x="142" y="145" type="qcurve" smooth="yes"/>
      <point x="142" y="102"/>
      <point x="177" y="58"/>
      <point x="219" y="58" type="qcurve" smooth="yes"/>
      <point x="255" y="58"/>
      <point x="308" y="91"/>
      <point x="346" y="139"/>
      <point x="357" y="164" type="qcurve"/>
      <point x="374" y="199"/>
      <point x="380" y="228" type="qcurve" smooth="yes"/>
      <point x="438" y="516" type="line"/>
      <point x="515" y="516" type="line"/>
      <point x="425" y="68" type="line"/>
      <point x="498" y="68" type="line"/>
      <point x="485" y="0" type="line"/>
      <point x="415" y="0" type="line" smooth="yes"/>
      <point x="382" y="0"/>
      <point x="349" y="35"/>
      <point x="349" y="63" type="qcurve" smooth="yes"/>
      <point x="349" y="72"/>
      <point x="355" y="102" type="qcurve"/>
      <point x="350" y="102" type="line"/>
      <point x="303" y="-12"/>
    </contour>
  </outline>
</glyph>
<glyph name="Ccaron" format="2">
  <advance width="602"/>
  <unicode hex="010C"/>
  <outline>
    <contour>
      <point x="290" y="-12" type="qcurve"/>
      <point x="383" y="-12"/>
      <point x="510" y="70"/>
      <point x="555" y="157" type="qcurve"/>
      <point x="487" y="191" type="line"/>
      <point x="454" y="130"/>
      <point x="367" y="61"/>
      <point x="295" y="61" type="qcurve"/>
      <point x="219" y="61"/>
      <point x="178" y="113" type="qcurve"/>
      <point x="136" y="164"/>
      <point x="136" y="246" type="qcurve"/>
      <point x="136" y="276"/>
      <point x="142" y="312" type="qcurve"/>
      <point x="165" y="427" type="line"/>
      <point x="185" y="524"/>
      <point x="304" y="637"/>
      <point x="383" y="637" type="qcurve"/>
      <point x="449" y="637"/>
      <point x="524" y="577"/>
      <point x="542" y="518" type="qcurve"/>
      <point x="615" y="551" type="line"/>
      <point x="563" y="710"/>
      <point x="391" y="710" type="qcurve"/>
      <point x="315" y="710"/>
      <point x="192" y="640"/>
      <point x="147" y="579" type="qcurve"/>
      <point x="55" y="448"/>
      <point x="55" y="266" type="qcurve"/>
      <point x="55" y="134"/>
      <point x="188" y="-12"/>
    </contour>
    <contour>
      <point x="456" y="769" type="line"/>
      <point x="595" y="912" type="line"/>
      <point x="554" y="944" type="line"/>
      <point x="414" y="827" type="line"/>
      <point x="324" y="943" type="line"/>
      <point x="280" y="912" type="line"/>
      <point x="362" y="769" type="line"/>
    </contour>
  </outline>
</glyph>
<glyph name="ccaron" format="2">
  <advance width="488"/>
  <unicode hex="010D"/>
  <outline>
    <contour>
      <point x="275" y="599" type="line"/>
      <point x="193" y="742" type="line"/>
      <point x="237" y="773" type="line"/>
      <point x="327" y="657" type="line"/>
      <point x="467" y="774" type="line"/>
      <point x="508" y="742" type="line"/>
      <point x="370" y="599" type="line"/>
    </contour>
    <contour>
      <point x="236" y="-12" type="qcurve" smooth="yes"/>
      <point x="148" y="-12"/>
      <point x="49" y="103"/>
      <point x="49" y="199" type="qcurve" smooth="yes"/>
      <point x="49" y="333"/>
      <point x="117" y="431" type="qcurve"/>
      <point x="188" y="528"/>
      <point x="302" y="528" type="qcurve" smooth="yes"/>
      <point x="371" y="528"/>
      <point x="458" y="461"/>
      <point x="473" y="407" type="qcurve"/>
      <point x="409" y="378" type="line"/>
      <point x="383" y="459"/>
      <point x="300" y="459" type="qcurve" smooth="yes"/>
      <point x="238" y="459"/>
      <point x="161" y="382"/>
      <point x="147" y="312" type="qcurve" smooth="yes"/>
      <point x="130" y="228" type="line"/>
      <point x="126" y="201"/>
      <point x="126" y="183" type="qcurve" smooth="yes"/>
      <point x="126" y="127"/>
      <point x="184" y="57"/>
      <point x="244" y="57" type="qcurve" smooth="yes"/>
      <point x="282" y="57"/>
      <point x="346" y="101"/>
      <point x="376" y="158" type="qcurve"/>
      <point x="437" y="128" type="line"/>
      <point x="370" y="-12"/>
    </contour>
  </outline>
</glyph>
<glyph name="dcaron" format="2">
  <advance width="587"/>
  <unicode hex="010F"/>
  <outline>
    <contour>
      <point x="208" y="-12" type="qcurve"/>
      <point x="265" y="-12"/>
      <point x="343" y="47"/>
      <point x="375" y="112" type="qcurve"/>
      <point x="378" y="112" type="line"/>
      <point x="370" y="75"/>
      <point x="370" y="62" type="qcurve"/>
      <point x="370" y="34"/>
      <point x="403" y="0"/>
      <point x="437" y="0" type="qcurve"/>
      <point x="506" y="0" type="line"/>
      <point x="519" y="68" type="line"/>
      <point x="446" y="68" type="line"/>
      <point x="581" y="740" type="line"/>
      <point x="504" y="740" type="line"/>
      <point x="442" y="432" type="line"/>
      <point x="438" y="432" type="line"/>
      <point x="425" y="480"/>
      <point x="350" y="528"/>
      <point x="303" y="528" type="qcurve"/>
      <point x="239" y="528"/>
      <point x="144" y="465"/>
      <point x="82" y="362"/>
      <point x="51" y="242"/>
      <point x="51" y="185" type="qcurve"/>
      <point x="51" y="93"/>
      <point x="137" y="-12"/>
    </contour>
    <contour>
      <point x="229" y="58" type="qcurve"/>
      <point x="177" y="58"/>
      <point x="130" y="124"/>
      <point x="130" y="175" type="qcurve"/>
      <point x="130" y="198"/>
      <point x="135" y="226" type="qcurve"/>
      <point x="150" y="301" type="line"/>
      <point x="184" y="458"/>
      <point x="310" y="458" type="qcurve"/>
      <point x="378" y="458"/>
      <point x="406" y="422" type="qcurve"/>
      <point x="426" y="398"/>
      <point x="426" y="365" type="qcurve"/>
      <point x="426" y="352"/>
      <point x="423" y="338" type="qcurve"/>
      <point x="402" y="233" type="line"/>
      <point x="386" y="157"/>
      <point x="337" y="109" type="qcurve"/>
      <point x="314" y="85"/>
      <point x="263" y="58"/>
    </contour>
    <contour>
      <point x="664" y="555" type="line"/>
      <point x="739" y="740" type="line"/>
      <point x="646" y="740" type="line"/>
      <point x="611" y="555" type="line"/>
    </contour>
  </outline>
</glyph>
<glyph name="Dcroat" format="2">
  <advance width="655"/>
  <unicode hex="0110"/>
  <outline>
    <contour>
      <point x="278" y="0" type="line"/>
      <point x="361" y="0"/>
      <point x="491" y="72"/>
      <point x="580" y="193"/>
      <point x="626" y="346"/>
      <point x="626" y="427" type="qcurve"/>
      <point x="626" y="562"/>
      <point x="499" y="698"/>
      <point x="387" y="698" type="qcurve"/>
      <point x="182" y="698" type="line"/>
      <point x="123" y="400" type="line"/>
      <point x="49" y="400" type="line"/>
      <point x="36" y="338" type="line"/>
      <point x="110" y="338" type="line"/>
      <point x="42" y="0" type="line"/>
    </contour>
    <contour>
      <point x="280" y="72" type="qcurve"/>
      <point x="138" y="72" type="line"/>
      <point x="191" y="338" type="line"/>
      <point x="323" y="338" type="line"/>
      <point x="336" y="400" type="line"/>
      <point x="203" y="400" type="line"/>
      <point x="248" y="626" type="line"/>
      <point x="383" y="626" type="line"/>
      <point x="456" y="626"/>
      <point x="542" y="538"/>
      <point x="542" y="455" type="qcurve"/>
      <point x="542" y="424"/>
      <point x="536" y="394" type="qcurve"/>
      <point x="515" y="289" type="line"/>
      <point x="493" y="184"/>
      <point x="370" y="72"/>
    </contour>
  </outline>
</glyph>
<glyph name="Emacron" format="2">
  <advance width="565"/>
  <unicode hex="0112"/>
  <outline>
    <contour>
      <point x="467" y="0" type="line"/>
      <point x="481" y="72" type="line"/>
      <point x="135" y="72" type="line"/>
      <point x="184" y="318" type="line"/>
      <point x="481" y="318" type="line"/>
      <point x="495" y="390" type="line"/>
      <point x="199" y="390" type="line"/>
      <point x="246" y="626" type="line"/>
      <point x="575" y="626" type="line"/>
      <point x="590" y="698" type="line"/>
      <point x="179" y="698" type="line"/>
      <point x="39" y="0" type="line"/>
    </contour>
    <contour>
      <point x="533" y="809" type="line"/>
      <point x="547" y="875" type="line"/>
      <point x="275" y="875" type="line"/>
      <point x="261" y="809" type="line"/>
    </contour>
  </outline>
</glyph>
<glyph name="emacron" format="2">
  <advance width="511"/>
  <unicode hex="0113"/>
  <outline>
    <contour>
      <point x="244" y="-12" type="qcurve"/>
      <point x="369" y="-12"/>
      <point x="457" y="94" type="qcurve"/>
      <point x="407" y="139" type="line"/>
      <point x="341" y="57"/>
      <point x="249" y="57" type="qcurve"/>
      <point x="189" y="57"/>
      <point x="126" y="124"/>
      <point x="126" y="179" type="qcurve"/>
      <point x="126" y="196"/>
      <point x="129" y="221" type="qcurve"/>
      <point x="310" y="223"/>
      <point x="485" y="305"/>
      <point x="485" y="390" type="qcurve"/>
      <point x="485" y="457"/>
      <point x="435" y="494" type="qcurve"/>
      <point x="385" y="528"/>
      <point x="319" y="528" type="qcurve"/>
      <point x="258" y="528"/>
      <point x="159" y="476"/>
      <point x="124" y="430" type="qcurve"/>
      <point x="49" y="332"/>
      <point x="49" y="204" type="qcurve"/>
      <point x="49" y="98"/>
      <point x="151" y="-12"/>
    </contour>
    <contour>
      <point x="139" y="281" type="qcurve"/>
      <point x="145" y="310" type="line"/>
      <point x="160" y="380"/>
      <point x="251" y="462"/>
      <point x="311" y="462" type="qcurve"/>
      <point x="347" y="462"/>
      <point x="377" y="447" type="qcurve"/>
      <point x="406" y="429"/>
      <point x="406" y="391" type="qcurve"/>
      <point x="406" y="364"/>
      <point x="385" y="326"/>
      <point x="356" y="313" type="qcurve"/>
      <point x="301" y="287"/>
    </contour>
    <contour>
      <point x="477" y="639" type="line"/>
      <point x="491" y="705" type="line"/>
      <point x="219" y="705" type="line"/>
      <point x="205" y="639" type="line"/>
    </contour>
  </outline>
</glyph>
<glyph name="Ebreve" format="2">
  <advance width="565"/>
  <unicode hex="0114"/>
  <outline>
    <contour>
      <point x="396" y="766" type="qcurve" smooth="yes"/>
      <point x="329" y="766"/>
      <point x="297" y="813" type="qcurve"/>
      <point x="269" y="857"/>
      <point x="265" y="900" type="qcurve"/>
      <point x="311" y="920" type="line"/>
      <point x="321" y="898" type="line" smooth="yes"/>
      <point x="336" y="863"/>
      <point x="369" y="827"/>
      <point x="398" y="827" type="qcurve" smooth="yes"/>
      <point x="425" y="827"/>
      <point x="470" y="860"/>
      <point x="498" y="898" type="qcurve" smooth="yes"/>
      <point x="515" y="920" type="line"/>
      <point x="563" y="900" type="line"/>
      <point x="545" y="855"/>
      <point x="506" y="812" type="qcurve"/>
      <point x="461" y="766"/>
    </contour>
    <contour>
      <point x="39" y="0" type="line"/>
      <point x="179" y="698" type="line"/>
      <point x="590" y="698" type="line"/>
      <point x="575" y="626" type="line"/>
      <point x="246" y="626" type="line"/>
      <point x="199" y="390" type="line"/>
      <point x="495" y="390" type="line"/>
      <point x="481" y="318" type="line"/>
      <point x="184" y="318" type="line"/>
      <point x="135" y="72" type="line"/>
      <point x="481" y="72" type="line"/>
      <point x="467" y="0" type="line"/>
    </contour>
  </outline>
</glyph>
<glyph name="ebreve" format="2">
  <advance width="511"/>
  <unicode hex="0115"/>
  <outline>
    <contour>
      <point x="244" y="-12" type="qcurve"/>
      <point x="369" y="-12"/>
      <point x="457" y="94" type="qcurve"/>
      <point x="407" y="139" type="line"/>
      <point x="341" y="57"/>
      <point x="249" y="57" type="qcurve"/>
      <point x="189" y="57"/>
      <point x="126" y="124"/>
      <point x="126" y="179" type="qcurve"/>
      <point x="126" y="196"/>
      <point x="129" y="221" type="qcurve"/>
      <point x="310" y="223"/>
      <point x="485" y="305"/>
      <point x="485" y="390" type="qcurve"/>
      <point x="485" y="457"/>
      <point x="435" y="494" type="qcurve"/>
      <point x="385" y="528"/>
      <point x="319" y="528" type="qcurve"/>
      <point x="258" y="528"/>
      <point x="159" y="476"/>
      <point x="124" y="430" type="qcurve"/>
      <point x="49" y="332"/>
      <point x="49" y="204" type="qcurve"/>
      <point x="49" y="98"/>
      <point x="151" y="-12"/>
    </contour>
    <contour>
      <point x="139" y="281" type="qcurve"/>
      <point x="145" y="310" type="line"/>
      <point x="160" y="380"/>
      <point x="251" y="462"/>
      <point x="311" y="462" type="qcurve"/>
      <point x="347" y="462"/>
      <point x="377" y="447" type="qcurve"/>
      <point x="406" y="429"/>
      <point x="406" y="391" type="qcurve"/>
      <point x="406" y="364"/>
      <point x="385" y="326"/>
      <point x="356" y="313" type="qcurve"/>
      <point x="301" y="287"/>
    </contour>
    <contour>
      <point x="337" y="596" type="qcurve"/>
      <point x="402" y="596"/>
      <point x="447" y="642" type="qcurve"/>
      <point x="486" y="685"/>
      <point x="504" y="730" type="qcurve"/>
      <point x="456" y="750" type="line"/>
      <point x="439" y="728" type="line"/>
      <point x="411" y="690"/>
      <point x="366" y="657"/>
      <point x="339" y="657" type="qcurve"/>
      <point x="310" y="657"/>
      <point x="277" y="693"/>
      <point x="262" y="728" type="qcurve"/>
      <point x="252" y="750" type="line"/>
      <point x="206" y="730" type="line"/>
      <point x="210" y="687"/>
      <point x="238" y="643" type="qcurve"/>
      <point x="270" y="596"/>
    </contour>
  </outline>
</glyph>
<glyph name="Edotaccent" format="2">
  <advance width="565"/>
  <unicode hex="0116"/>
  <outline>
    <contour>
      <point x="467" y="0" type="line"/>
      <point x="481" y="72" type="line"/>
      <point x="135" y="72" type="line"/>
      <point x="184" y="318" type="line"/>
      <point x="481" y="318" type="line"/>
      <point x="495" y="390" type="line"/>
      <point x="199" y="390" type="line"/>
      <point x="246" y="626" type="line"/>
      <point x="575" y="626" type="line"/>
      <point x="590" y="698" type="line"/>
      <point x="179" y="698" type="line"/>
      <point x="39" y="0" type="line"/>
    </contour>
    <contour>
      <point x="396" y="787" type="qcurve"/>
      <point x="443" y="787"/>
      <point x="452" y="834" type="qcurve"/>
      <point x="455" y="851"/>
      <point x="455" y="855" type="qcurve"/>
      <point x="455" y="890"/>
      <point x="413" y="890" type="qcurve"/>
      <point x="367" y="890"/>
      <point x="357" y="843" type="qcurve"/>
      <point x="354" y="832"/>
      <point x="354" y="822" type="qcurve"/>
      <point x="354" y="788"/>
    </contour>
  </outline>
</glyph>
<glyph name="Eogonek" format="2">
  <advance width="565"/>
  <unicode hex="0118"/>
  <outline>
    <contour>
      <point x="377" y="-207" type="qcurve"/>
      <point x="441" y="-207"/>
      <point x="473" y="-170" type="qcurve"/>
      <point x="436" y="-126" type="line"/>
      <point x="406" y="-153"/>
      <point x="382" y="-153" type="qcurve"/>
      <point x="368" y="-153"/>
      <point x="349" y="-138"/>
      <point x="349" y="-122" type="qcurve"/>
      <point x="349" y="-114"/>
      <point x="353" y="-104" type="qcurve"/>
      <point x="366" y="-68"/>
      <point x="467" y="0" type="qcurve"/>
      <point x="481" y="72" type="line"/>
      <point x="135" y="72" type="line"/>
      <point x="184" y="318" type="line"/>
      <point x="481" y="318" type="line"/>
      <point x="495" y="390" type="line"/>
      <point x="199" y="390" type="line"/>
      <point x="246" y="626" type="line"/>
      <point x="575" y="626" type="line"/>
      <point x="590" y="698" type="line"/>
      <point x="179" y="698" type="line"/>
      <point x="39" y="0" type="line"/>
      <point x="405" y="0" type="line"/>
      <point x="406" y="-5" type="line"/>
      <point x="348" y="-31"/>
      <point x="281" y="-90"/>
      <point x="281" y="-132" type="qcurve"/>
      <point x="281" y="-172"/>
      <point x="340" y="-207"/>
    </contour>
  </outline>
</glyph>
<glyph name="eogonek" format="2">
  <advance width="511"/>
  <unicode hex="0119"/>
  <outline>
    <contour>
      <point x="232" y="-207" type="qcurve"/>
      <point x="296" y="-207"/>
      <point x="328" y="-170" type="qcurve"/>
      <point x="291" y="-126" type="line"/>
      <point x="261" y="-153"/>
      <point x="237" y="-153" type="qcurve"/>
      <point x="223" y="-153"/>
      <point x="204" y="-138"/>
      <point x="204" y="-122" type="qcurve"/>
      <point x="204" y="-63"/>
      <point x="353" y="14" type="qcurve"/>
      <point x="419" y="47"/>
      <point x="457" y="94" type="qcurve"/>
      <point x="407" y="139" type="line"/>
      <point x="341" y="57"/>
      <point x="249" y="57" type="qcurve"/>
      <point x="189" y="57"/>
      <point x="126" y="124"/>
      <point x="126" y="179" type="qcurve"/>
      <point x="126" y="196"/>
      <point x="129" y="221" type="qcurve"/>
      <point x="310" y="223"/>
      <point x="485" y="305"/>
      <point x="485" y="390" type="qcurve"/>
      <point x="485" y="457"/>
      <point x="435" y="494" type="qcurve"/>
      <point x="385" y="528"/>
      <point x="319" y="528" type="qcurve"/>
      <point x="258" y="528"/>
      <point x="159" y="476"/>
      <point x="124" y="430" type="qcurve"/>
      <point x="49" y="332"/>
      <point x="49" y="204" type="qcurve"/>
      <point x="49" y="98"/>
      <point x="151" y="-12"/>
      <point x="244" y="-12" type="qcurve"/>
      <point x="245" y="-15" type="line"/>
      <point x="194" y="-38"/>
      <point x="136" y="-94"/>
      <point x="136" y="-132" type="qcurve"/>
      <point x="136" y="-172"/>
      <point x="195" y="-207"/>
    </contour>
    <contour>
      <point x="139" y="281" type="qcurve"/>
      <point x="145" y="310" type="line"/>
      <point x="160" y="380"/>
      <point x="251" y="462"/>
      <point x="311" y="462" type="qcurve"/>
      <point x="347" y="462"/>
      <point x="377" y="447" type="qcurve"/>
      <point x="406" y="429"/>
      <point x="406" y="391" type="qcurve"/>
      <point x="406" y="364"/>
      <point x="385" y="326"/>
      <point x="356" y="313" type="qcurve"/>
      <point x="301" y="287"/>
    </contour>
  </outline>
</glyph>
<glyph name="Gcircumflex" format="2">
  <advance width="602"/>
  <unicode hex="011C"/>
  <outline>
    <contour>
      <point x="396" y="935" type="line"/>
      <point x="490" y="935" type="line"/>
      <point x="572" y="792" type="line"/>
      <point x="529" y="762" type="line"/>
      <point x="436" y="877" type="line"/>
      <point x="297" y="761" type="line"/>
      <point x="257" y="793" type="line"/>
    </contour>
    <contour>
      <point x="590" y="359" type="line"/>
      <point x="567" y="243" type="line"/>
      <point x="550" y="164"/>
      <point x="487" y="64"/>
      <point x="403" y="9"/>
      <point x="314" y="-12"/>
      <point x="272" y="-12" type="qcurve" smooth="yes"/>
      <point x="228" y="-12"/>
      <point x="145" y="20"/>
      <point x="77" y="88"/>
      <point x="37" y="193"/>
      <point x="37" y="267" type="qcurve" smooth="yes"/>
      <point x="37" y="299"/>
      <point x="43" y="358"/>
      <point x="48" y="387" type="qcurve"/>
      <point x="63" y="459"/>
      <point x="123" y="577"/>
      <point x="209" y="664"/>
      <point x="319" y="710"/>
      <point x="382" y="710" type="qcurve" smooth="yes"/>
      <point x="451" y="710"/>
      <point x="540" y="662"/>
      <point x="593" y="588"/>
      <point x="604" y="551" type="qcurve"/>
      <point x="530" y="510" type="line"/>
      <point x="522" y="549"/>
      <point x="480" y="604"/>
      <point x="415" y="636"/>
      <point x="369" y="636" type="qcurve" smooth="yes"/>
      <point x="313" y="636"/>
      <point x="221" y="586"/>
      <point x="160" y="491"/>
      <point x="146" y="424" type="qcurve" smooth="yes"/>
      <point x="124" y="311" type="line"/>
      <point x="120" y="296"/>
      <point x="117" y="261"/>
      <point x="117" y="245" type="qcurve" smooth="yes"/>
      <point x="117" y="198"/>
      <point x="145" y="129"/>
      <point x="192" y="84"/>
      <point x="250" y="62"/>
      <point x="280" y="62" type="qcurve" smooth="yes"/>
      <point x="355" y="62"/>
      <point x="465" y="141"/>
      <point x="481" y="221" type="qcurve" smooth="yes"/>
      <point x="494" y="283" type="line"/>
      <point x="303" y="283" type="line"/>
      <point x="318" y="359" type="line"/>
    </contour>
  </outline>
</glyph>
<glyph name="Gdotaccent" format="2">
  <advance width="557"/>
  <unicode hex="0120"/>
  <outline>
    <contour>
      <point x="47" y="267" type="qcurve"/>
      <point x="47" y="299"/>
      <point x="53" y="358"/>
      <point x="58" y="387" type="qcurve"/>
      <point x="73" y="459"/>
      <point x="133" y="577"/>
      <point x="219" y="664"/>
      <point x="329" y="710"/>
      <point x="392" y="710" type="qcurve"/>
      <point x="461" y="710"/>
      <point x="550" y="662"/>
      <point x="603" y="588"/>
      <point x="614" y="551" type="qcurve"/>
      <point x="540" y="510" type="line"/>
      <point x="532" y="549"/>
      <point x="490" y="604"/>
      <point x="425" y="636"/>
      <point x="379" y="636" type="qcurve"/>
      <point x="323" y="636"/>
      <point x="231" y="586"/>
      <point x="170" y="491"/>
      <point x="156" y="424" type="qcurve"/>
      <point x="134" y="311" type="line"/>
      <point x="130" y="296"/>
      <point x="127" y="261"/>
      <point x="127" y="245" type="qcurve"/>
      <point x="127" y="198"/>
      <point x="155" y="129"/>
      <point x="202" y="84"/>
      <point x="260" y="62"/>
      <point x="290" y="62" type="qcurve"/>
      <point x="365" y="62"/>
      <point x="475" y="141"/>
      <point x="491" y="221" type="qcurve"/>
      <point x="504" y="283" type="line"/>
      <point x="320" y="283" type="line"/>
      <point x="320" y="359" type="line"/>
      <point x="600" y="359" type="line"/>
      <point x="577" y="243" type="line"/>
      <point x="560" y="164"/>
      <point x="497" y="64"/>
      <point x="413" y="9"/>
      <point x="324" y="-12"/>
      <point x="282" y="-12" type="qcurve"/>
      <point x="238" y="-12"/>
      <point x="155" y="20"/>
      <point x="87" y="88"/>
      <point x="47" y="193"/>
    </contour>
    <contour>
      <point x="429" y="787" type="qcurve"/>
      <point x="410" y="787"/>
      <point x="387" y="805"/>
      <point x="387" y="822" type="qcurve"/>
      <point x="387" y="826"/>
      <point x="389" y="835"/>
      <point x="390" y="843" type="qcurve"/>
      <point x="395" y="866"/>
      <point x="421" y="890"/>
      <point x="446" y="890" type="qcurve"/>
      <point x="466" y="890"/>
      <point x="488" y="872"/>
      <point x="488" y="855" type="qcurve"/>
      <point x="488" y="851"/>
      <point x="487" y="842"/>
      <point x="485" y="834" type="qcurve"/>
      <point x="481" y="812"/>
      <point x="454" y="787"/>
    </contour>
  </outline>
</glyph>
<glyph name="Itilde" format="2">
  <advance width="261"/>
  <unicode hex="0128"/>
  <outline>
    <contour>
      <point x="305" y="782" type="qcurve"/>
      <point x="365" y="782"/>
      <point x="404" y="836" type="qcurve"/>
      <point x="377" y="874" type="line"/>
      <point x="360" y="861"/>
      <point x="333" y="847"/>
      <point x="317" y="847" type="qcurve"/>
      <point x="292" y="847"/>
      <point x="246" y="875" type="qcurve"/>
      <point x="233" y="883"/>
      <point x="200" y="897"/>
      <point x="177" y="897" type="qcurve"/>
      <point x="117" y="897"/>
      <point x="78" y="843" type="qcurve"/>
      <point x="105" y="805" type="line"/>
      <point x="122" y="818"/>
      <point x="149" y="832"/>
      <point x="165" y="832" type="qcurve"/>
      <point x="190" y="832"/>
      <point x="236" y="804" type="qcurve"/>
      <point x="249" y="796"/>
      <point x="282" y="782"/>
    </contour>
    <contour>
      <point x="120" y="0" type="line"/>
      <point x="39" y="0" type="line"/>
      <point x="177" y="698" type="line"/>
      <point x="258" y="698" type="line"/>
    </contour>
  </outline>
</glyph>
<glyph name="Ibreve" format="2">
  <advance width="261"/>
  <unicode hex="012C"/>
  <outline>
    <contour>
      <point x="233" y="766" type="qcurve"/>
      <point x="298" y="766"/>
      <point x="343" y="812" type="qcurve"/>
      <point x="382" y="855"/>
      <point x="400" y="900" type="qcurve"/>
      <point x="352" y="920" type="line"/>
      <point x="335" y="898" type="line"/>
      <point x="307" y="860"/>
      <point x="262" y="827"/>
      <point x="235" y="827" type="qcurve"/>
      <point x="206" y="827"/>
      <point x="173" y="863"/>
      <point x="158" y="898" type="qcurve"/>
      <point x="148" y="920" type="line"/>
      <point x="102" y="900" type="line"/>
      <point x="106" y="857"/>
      <point x="134" y="813" type="qcurve"/>
      <point x="166" y="766"/>
    </contour>
    <contour>
      <point x="120" y="0" type="line"/>
      <point x="39" y="0" type="line"/>
      <point x="177" y="698" type="line"/>
      <point x="258" y="698" type="line"/>
    </contour>
  </outline>
</glyph>
<glyph name="ibreve" format="2">
  <advance width="264"/>
  <unicode hex="012D"/>
  <outline>
    <contour>
      <point x="187" y="0" type="line"/>
      <point x="200" y="68" type="line"/>
      <point x="127" y="68" type="line"/>
      <point x="217" y="516" type="line"/>
      <point x="140" y="516" type="line"/>
      <point x="51" y="71"/>
      <point x="51" y="63" type="qcurve"/>
      <point x="51" y="35"/>
      <point x="85" y="0"/>
      <point x="120" y="0" type="qcurve"/>
    </contour>
    <contour>
      <point x="201" y="596" type="qcurve"/>
      <point x="266" y="596"/>
      <point x="311" y="642" type="qcurve"/>
      <point x="350" y="685"/>
      <point x="368" y="730" type="qcurve"/>
      <point x="320" y="750" type="line"/>
      <point x="303" y="728" type="line"/>
      <point x="275" y="690"/>
      <point x="230" y="657"/>
      <point x="203" y="657" type="qcurve"/>
      <point x="174" y="657"/>
      <point x="141" y="693"/>
      <point x="126" y="728" type="qcurve"/>
      <point x="116" y="750" type="line"/>
      <point x="70" y="730" type="line"/>
      <point x="74" y="687"/>
      <point x="102" y="643" type="qcurve"/>
      <point x="134" y="596"/>
    </contour>
  </outline>
</glyph>
<glyph name="Iogonek" format="2">
  <advance width="261"/>
  <unicode hex="012E"/>
  <outline>
    <contour>
      <point x="30" y="-207" type="qcurve"/>
      <point x="94" y="-207"/>
      <point x="126" y="-170" type="qcurve"/>
      <point x="89" y="-126" type="line"/>
      <point x="59" y="-153"/>
      <point x="35" y="-153" type="qcurve"/>
      <point x="21" y="-153"/>
      <point x="2" y="-138"/>
      <point x="2" y="-122" type="qcurve"/>
      <point x="2" y="-114"/>
      <point x="6" y="-104" type="qcurve"/>
      <point x="19" y="-68"/>
      <point x="120" y="0" type="qcurve"/>
      <point x="258" y="698" type="line"/>
      <point x="177" y="698" type="line"/>
      <point x="39" y="0" type="line"/>
      <point x="58" y="0" type="line"/>
      <point x="59" y="-5" type="line"/>
      <point x="1" y="-31"/>
      <point x="-66" y="-90"/>
      <point x="-66" y="-132" type="qcurve"/>
      <point x="-66" y="-172"/>
      <point x="-7" y="-207"/>
    </contour>
  </outline>
</glyph>
<glyph name="iogonek" format="2">
  <advance width="264"/>
  <unicode hex="012F"/>
  <outline>
    <contour>
      <point x="97" y="-207" type="qcurve"/>
      <point x="161" y="-207"/>
      <point x="193" y="-170" type="qcurve"/>
      <point x="156" y="-126" type="line"/>
      <point x="126" y="-153"/>
      <point x="102" y="-153" type="qcurve"/>
      <point x="88" y="-153"/>
      <point x="69" y="-138"/>
      <point x="69" y="-122" type="qcurve"/>
      <point x="69" y="-114"/>
      <point x="73" y="-104" type="qcurve"/>
      <point x="86" y="-68"/>
      <point x="187" y="0" type="qcurve"/>
      <point x="200" y="68" type="line"/>
      <point x="127" y="68" type="line"/>
      <point x="217" y="516" type="line"/>
      <point x="140" y="516" type="line"/>
      <point x="51" y="72"/>
      <point x="51" y="63" type="qcurve"/>
      <point x="51" y="0"/>
      <point x="127" y="0" type="qcurve"/>
      <point x="128" y="-5" type="line"/>
      <point x="70" y="-31"/>
      <point x="1" y="-90"/>
      <point x="1" y="-132" type="qcurve"/>
      <point x="1" y="-172"/>
      <point x="60" y="-207"/>
    </contour>
    <contour>
      <point x="206" y="637" type="qcurve"/>
      <point x="260" y="637"/>
      <point x="264" y="696" type="qcurve"/>
      <point x="264" y="705" type="line"/>
      <point x="264" y="740"/>
      <point x="222" y="740" type="qcurve"/>
      <point x="197" y="740"/>
      <point x="185" y="730" type="qcurve"/>
      <point x="170" y="717"/>
      <point x="166" y="694" type="qcurve"/>
      <point x="164" y="678"/>
      <point x="164" y="672" type="qcurve"/>
      <point x="164" y="637"/>
    </contour>
  </outline>
</glyph>
<glyph name="idotless" format="2">
  <advance width="264"/>
  <unicode hex="0131"/>
  <outline>
    <contour>
      <point x="187" y="0" type="line"/>
      <point x="200" y="68" type="line"/>
      <point x="127" y="68" type="line"/>
      <point x="217" y="516" type="line"/>
      <point x="140" y="516" type="line"/>
      <point x="51" y="71"/>
      <point x="51" y="63" type="qcurve"/>
      <point x="51" y="35"/>
      <point x="85" y="0"/>
      <point x="120" y="0" type="qcurve"/>
    </contour>
  </outline>
</glyph>
<glyph name="ij" format="2">
  <advance width="512"/>
  <unicode hex="0133"/>
  <outline>
    <contour>
      <point x="206" y="637" type="qcurve"/>
      <point x="260" y="637"/>
      <point x="264" y="696" type="qcurve"/>
      <point x="264" y="705" type="line"/>
      <point x="264" y="740"/>
      <point x="222" y="740" type="qcurve"/>
      <point x="197" y="740"/>
      <point x="185" y="730" type="qcurve"/>
      <point x="170" y="717"/>
      <point x="166" y="694" type="qcurve"/>
      <point x="164" y="678"/>
      <point x="164" y="672" type="qcurve"/>
      <point x="164" y="637"/>
    </contour>
    <contour>
      <point x="187" y="0" type="line"/>
      <point x="200" y="68" type="line"/>
      <point x="127" y="68" type="line"/>
      <point x="217" y="516" type="line"/>
      <point x="140" y="516" type="line"/>
      <point x="51" y="72"/>
      <point x="51" y="63" type="qcurve"/>
      <point x="51" y="35"/>
      <point x="86" y="0"/>
      <point x="121" y="0" type="qcurve"/>
    </contour>
    <contour>
      <point x="239" y="-200" type="line"/>
      <point x="292" y="-200"/>
      <point x="343" y="-151"/>
      <point x="353" y="-98" type="qcurve"/>
      <point x="476" y="516" type="line"/>
      <point x="399" y="516" type="line"/>
      <point x="269" y="-132" type="line"/>
      <point x="186" y="-132" type="line"/>
      <point x="172" y="-200" type="line"/>
    </contour>
    <contour>
      <point x="465" y="637" type="qcurve"/>
      <point x="519" y="637"/>
      <point x="523" y="696" type="qcurve"/>
      <point x="523" y="705" type="line"/>
      <point x="523" y="740"/>
      <point x="481" y="740" type="qcurve"/>
      <point x="456" y="740"/>
      <point x="444" y="730" type="qcurve"/>
      <point x="429" y="717"/>
      <point x="425" y="694" type="qcurve"/>
      <point x="423" y="678"/>
      <point x="423" y="672" type="qcurve"/>
      <point x="423" y="637"/>
    </contour>
  </outline>
</glyph>
<glyph name="jcircumflex" format="2">
  <advance width="253"/>
  <unicode hex="0135"/>
  <outline>
    <contour>
      <point x="41" y="622" type="line"/>
      <point x="179" y="765" type="line"/>
      <point x="273" y="765" type="line"/>
      <point x="355" y="622" type="line"/>
      <point x="312" y="591" type="line"/>
      <point x="219" y="706" type="line"/>
      <point x="80" y="590" type="line"/>
    </contour>
    <contour>
      <point x="-87" y="-200" type="line"/>
      <point x="-73" y="-132" type="line"/>
      <point x="10" y="-132" type="line"/>
      <point x="140" y="516" type="line"/>
      <point x="217" y="516" type="line"/>
      <point x="94" y="-98" type="line" smooth="yes"/>
      <point x="84" y="-151"/>
      <point x="33" y="-200"/>
      <point x="-20" y="-200" type="qcurve" smooth="yes"/>
    </contour>
  </outline>
</glyph>
<glyph name="uni0137" format="2">
  <advance width="519"/>
  <unicode hex="0137"/>
  <outline>
    <contour>
      <point x="416" y="0" type="line" smooth="yes"/>
      <point x="381" y="0"/>
      <point x="343" y="25"/>
      <point x="331" y="54" type="qcurve" smooth="yes"/>
      <point x="240" y="263" type="line"/>
      <point x="149" y="181" type="line"/>
      <point x="113" y="0" type="line"/>
      <point x="36" y="0" type="line"/>
      <point x="185" y="740" type="line"/>
      <point x="262" y="740" type="line"/>
      <point x="168" y="275" type="line"/>
      <point x="173" y="275" type="line"/>
      <point x="265" y="363" type="line"/>
      <point x="439" y="516" type="line"/>
      <point x="532" y="516" type="line"/>
      <point x="302" y="308" type="line"/>
      <point x="407" y="68" type="line"/>
      <point x="473" y="68" type="line"/>
      <point x="460" y="0" type="line"/>
    </contour>
    <contour>
      <point x="138" y="-245" type="line"/>
      <point x="161" y="-223"/>
      <point x="185" y="-189"/>
      <point x="194" y="-169" type="qcurve"/>
      <point x="166" y="-164"/>
      <point x="166" y="-136" type="qcurve" smooth="yes"/>
      <point x="166" y="-130"/>
      <point x="168" y="-116" type="qcurve"/>
      <point x="169" y="-112" type="line"/>
      <point x="179" y="-66"/>
      <point x="225" y="-66" type="qcurve"/>
      <point x="267" y="-67"/>
      <point x="267" y="-102" type="qcurve" smooth="yes"/>
      <point x="267" y="-110" type="line"/>
      <point x="264" y="-126" type="line"/>
      <point x="247" y="-197"/>
      <point x="194" y="-245" type="qcurve"/>
    </contour>
  </outline>
</glyph>
<glyph name="kgreenlandic" format="2">
  <advance width="533"/>
  <unicode hex="0138"/>
  <outline>
    <contour>
      <point x="416" y="0" type="line" smooth="yes"/>
      <point x="381" y="0"/>
      <point x="343" y="25"/>
      <point x="331" y="54" type="qcurve" smooth="yes"/>
      <point x="247" y="247" type="line"/>
      <point x="143" y="154" type="line"/>
      <point x="113" y="0" type="line"/>
      <point x="36" y="0" type="line"/>
      <point x="140" y="516" type="line"/>
      <point x="217" y="516" type="line"/>
      <point x="162" y="248" type="line"/>
      <point x="167" y="248" type="line"/>
      <point x="272" y="347" type="line"/>
      <point x="464" y="516" type="line"/>
      <point x="557" y="516" type="line"/>
      <point x="309" y="292" type="line"/>
      <point x="407" y="68" type="line"/>
      <point x="473" y="68" type="line"/>
      <point x="460" y="0" type="line"/>
    </contour>
  </outline>
</glyph>
<glyph name="Lcedilla" format="2">
  <advance width="489"/>
  <unicode hex="013B"/>
  <outline>
    <contour>
      <point x="408" y="0" type="line"/>
      <point x="422" y="72" type="line"/>
      <point x="135" y="72" type="line"/>
      <point x="260" y="698" type="line"/>
      <point x="179" y="698" type="line"/>
      <point x="39" y="0" type="line"/>
    </contour>
    <contour>
      <point x="177" y="-245" type="line"/>
      <point x="230" y="-197"/>
      <point x="247" y="-126" type="qcurve"/>
      <point x="250" y="-110" type="line"/>
      <point x="250" y="-102" type="line"/>
      <point x="250" y="-67"/>
      <point x="208" y="-66" type="qcurve"/>
      <point x="162" y="-66"/>
      <point x="152" y="-112" type="qcurve"/>
      <point x="151" y="-116" type="line"/>
      <point x="149" y="-130"/>
      <point x="149" y="-136" type="qcurve"/>
      <point x="149" y="-164"/>
      <point x="177" y="-169" type="qcurve"/>
      <point x="168" y="-189"/>
      <point x="144" y="-223"/>
      <point x="121" y="-245" type="qcurve"/>
    </contour>
  </outline>
</glyph>
<glyph name="Lmiddledot" format="2">
  <advance width="489"/>
  <unicode hex="013F"/>
  <outline>
    <contour>
      <point x="408" y="0" type="line"/>
      <point x="422" y="72" type="line"/>
      <point x="135" y="72" type="line"/>
      <point x="260" y="698" type="line"/>
      <point x="179" y="698" type="line"/>
      <point x="39" y="0" type="line"/>
    </contour>
    <contour>
      <point x="376" y="290" type="qcurve"/>
      <point x="423" y="290"/>
      <point x="432" y="337" type="qcurve"/>
      <point x="435" y="354"/>
      <point x="435" y="358" type="qcurve"/>
      <point x="435" y="393"/>
      <point x="393" y="393" type="qcurve"/>
      <point x="347" y="393"/>
      <point x="337" y="346" type="qcurve"/>
      <point x="334" y="335"/>
      <point x="334" y="325" type="qcurve"/>
      <point x="334" y="291"/>
    </contour>
  </outline>
</glyph>
<glyph name="ldot" format="2">
  <advance width="338"/>
  <unicode hex="0140"/>
  <outline>
    <contour>
      <point x="121" y="0" type="line" smooth="yes"/>
      <point x="86" y="0"/>
      <point x="51" y="35"/>
      <point x="51" y="63" type="qcurve" smooth="yes"/>
      <point x="51" y="72"/>
      <point x="185" y="740" type="qcurve"/>
      <point x="262" y="740" type="line"/>
      <point x="127" y="68" type="line"/>
      <point x="205" y="68" type="line"/>
      <point x="192" y="0" type="line"/>
    </contour>
    <contour>
      <point x="298" y="254" type="qcurve"/>
      <point x="256" y="255"/>
      <point x="256" y="289" type="qcurve" smooth="yes"/>
      <point x="256" y="299"/>
      <point x="259" y="310" type="qcurve"/>
      <point x="269" y="357"/>
      <point x="315" y="357" type="qcurve" smooth="yes"/>
      <point x="357" y="357"/>
      <point x="357" y="322" type="qcurve" smooth="yes"/>
      <point x="357" y="318"/>
      <point x="354" y="301" type="qcurve" smooth="yes"/>
      <point x="345" y="254"/>
    </contour>
  </outline>
</glyph>
<glyph name="lmiddledot" format="2">
  <advance width="338"/>
  <unicode hex="0140"/>
  <outline>
    <contour>
      <point x="192" y="0" type="line"/>
      <point x="205" y="68" type="line"/>
      <point x="127" y="68" type="line"/>
      <point x="262" y="740" type="line"/>
      <point x="185" y="740" type="line"/>
      <point x="51" y="72"/>
      <point x="51" y="63" type="qcurve"/>
      <point x="51" y="35"/>
      <point x="86" y="0"/>
      <point x="121" y="0" type="qcurve"/>
    </contour>
    <contour>
      <point x="298" y="254" type="qcurve"/>
      <point x="345" y="254"/>
      <point x="354" y="301" type="qcurve"/>
      <point x="357" y="318"/>
      <point x="357" y="322" type="qcurve"/>
      <point x="357" y="357"/>
      <point x="315" y="357" type="qcurve"/>
      <point x="269" y="357"/>
      <point x="259" y="310" type="qcurve"/>
      <point x="256" y="299"/>
      <point x="256" y="289" type="qcurve"/>
      <point x="256" y="255"/>
    </contour>
  </outline>
</glyph>
<glyph name="Nacute" format="2">
  <advance width="684"/>
  <unicode hex="0143"/>
  <outline>
    <contour>
      <point x="541" y="0" type="line"/>
      <point x="681" y="698" type="line"/>
      <point x="602" y="698" type="line"/>
      <point x="485" y="111" type="line"/>
      <point x="480" y="111" type="line"/>
      <point x="425" y="278" type="line"/>
      <point x="273" y="698" type="line"/>
      <point x="179" y="698" type="line"/>
      <point x="39" y="0" type="line"/>
      <point x="118" y="0" type="line"/>
      <point x="235" y="587" type="line"/>
      <point x="240" y="587" type="line"/>
      <point x="295" y="420" type="line"/>
      <point x="447" y="0" type="line"/>
    </contour>
    <contour>
      <point x="456" y="756" type="line"/>
      <point x="579" y="914" type="line"/>
      <point x="511" y="950" type="line"/>
      <point x="407" y="781" type="line"/>
    </contour>
  </outline>
</glyph>
<glyph name="Ncedilla" format="2">
  <advance width="684"/>
  <unicode hex="0145"/>
  <outline>
    <contour>
      <point x="541" y="0" type="line"/>
      <point x="681" y="698" type="line"/>
      <point x="602" y="698" type="line"/>
      <point x="485" y="111" type="line"/>
      <point x="480" y="111" type="line"/>
      <point x="425" y="278" type="line"/>
      <point x="273" y="698" type="line"/>
      <point x="179" y="698" type="line"/>
      <point x="39" y="0" type="line"/>
      <point x="118" y="0" type="line"/>
      <point x="235" y="587" type="line"/>
      <point x="240" y="587" type="line"/>
      <point x="295" y="420" type="line"/>
      <point x="447" y="0" type="line"/>
    </contour>
    <contour>
      <point x="244" y="-245" type="line"/>
      <point x="297" y="-197"/>
      <point x="314" y="-126" type="qcurve"/>
      <point x="317" y="-110" type="line"/>
      <point x="317" y="-102" type="line"/>
      <point x="317" y="-67"/>
      <point x="275" y="-66" type="qcurve"/>
      <point x="229" y="-66"/>
      <point x="219" y="-112" type="qcurve"/>
      <point x="218" y="-116" type="line"/>
      <point x="216" y="-130"/>
      <point x="216" y="-136" type="qcurve"/>
      <point x="216" y="-164"/>
      <point x="244" y="-169" type="qcurve"/>
      <point x="235" y="-189"/>
      <point x="211" y="-223"/>
      <point x="188" y="-245" type="qcurve"/>
    </contour>
  </outline>
</glyph>
<glyph name="Eng" format="2">
  <advance width="684"/>
  <unicode hex="014A"/>
  <outline>
    <contour>
      <point x="407" y="-200" type="line"/>
      <point x="460" y="-200"/>
      <point x="511" y="-151"/>
      <point x="521" y="-98" type="qcurve"/>
      <point x="681" y="698" type="line"/>
      <point x="602" y="698" type="line"/>
      <point x="485" y="111" type="line"/>
      <point x="480" y="111" type="line"/>
      <point x="425" y="278" type="line"/>
      <point x="273" y="698" type="line"/>
      <point x="179" y="698" type="line"/>
      <point x="39" y="0" type="line"/>
      <point x="118" y="0" type="line"/>
      <point x="235" y="587" type="line"/>
      <point x="240" y="587" type="line"/>
      <point x="295" y="420" type="line"/>
      <point x="447" y="0" type="line"/>
      <point x="462" y="0" type="line"/>
      <point x="436" y="-130" type="line"/>
      <point x="354" y="-130" type="line"/>
      <point x="340" y="-200" type="line"/>
    </contour>
  </outline>
</glyph>
<glyph name="Obreve" format="2">
  <advance width="679"/>
  <unicode hex="014E"/>
  <outline>
    <contour>
      <point x="425" y="766" type="qcurve" smooth="yes"/>
      <point x="358" y="766"/>
      <point x="326" y="813" type="qcurve"/>
      <point x="298" y="857"/>
      <point x="294" y="900" type="qcurve"/>
      <point x="340" y="920" type="line"/>
      <point x="350" y="898" type="line" smooth="yes"/>
      <point x="365" y="863"/>
      <point x="398" y="827"/>
      <point x="427" y="827" type="qcurve" smooth="yes"/>
      <point x="454" y="827"/>
      <point x="499" y="860"/>
      <point x="527" y="898" type="qcurve" smooth="yes"/>
      <point x="544" y="920" type="line"/>
      <point x="592" y="900" type="line"/>
      <point x="574" y="855"/>
      <point x="535" y="812" type="qcurve"/>
      <point x="490" y="766"/>
    </contour>
    <contour>
      <point x="298" y="-12" type="qcurve" smooth="yes"/>
      <point x="195" y="-12"/>
      <point x="55" y="128"/>
      <point x="55" y="260" type="qcurve" smooth="yes"/>
      <point x="55" y="434"/>
      <point x="149" y="572" type="qcurve"/>
      <point x="195" y="635"/>
      <point x="326" y="710"/>
      <point x="409" y="710" type="qcurve" smooth="yes"/>
      <point x="513" y="710"/>
      <point x="583" y="640" type="qcurve"/>
      <point x="652" y="567"/>
      <point x="652" y="438" type="qcurve" smooth="yes"/>
      <point x="652" y="264"/>
      <point x="558" y="127" type="qcurve"/>
      <point x="512" y="63"/>
      <point x="381" y="-12"/>
    </contour>
    <contour>
      <point x="306" y="61" type="qcurve" smooth="yes"/>
      <point x="399" y="61"/>
      <point x="523" y="183"/>
      <point x="545" y="293" type="qcurve" smooth="yes"/>
      <point x="565" y="393" type="line" smooth="yes"/>
      <point x="572" y="432"/>
      <point x="572" y="462" type="qcurve" smooth="yes"/>
      <point x="572" y="542"/>
      <point x="482" y="637"/>
      <point x="401" y="637" type="qcurve" smooth="yes"/>
      <point x="308" y="637"/>
      <point x="184" y="515"/>
      <point x="162" y="405" type="qcurve" smooth="yes"/>
      <point x="142" y="305" type="line" smooth="yes"/>
      <point x="135" y="266"/>
      <point x="135" y="236" type="qcurve" smooth="yes"/>
      <point x="135" y="156"/>
      <point x="225" y="61"/>
    </contour>
  </outline>
</glyph>
<glyph name="OE" format="2">
  <advance width="939"/>
  <unicode hex="0152"/>
  <outline>
    <contour>
      <point x="299" y="-12" type="qcurve"/>
      <point x="347" y="-12"/>
      <point x="412" y="0" type="qcurve"/>
      <point x="840" y="0" type="line"/>
      <point x="854" y="72" type="line"/>
      <point x="508" y="72" type="line"/>
      <point x="558" y="318" type="line"/>
      <point x="854" y="318" type="line"/>
      <point x="868" y="390" type="line"/>
      <point x="572" y="390" type="line"/>
      <point x="619" y="626" type="line"/>
      <point x="948" y="626" type="line"/>
      <point x="963" y="698" type="line"/>
      <point x="552" y="698" type="line"/>
      <point x="492" y="710"/>
      <point x="420" y="710" type="qcurve"/>
      <point x="330" y="710"/>
      <point x="194" y="635"/>
      <point x="102" y="508"/>
      <point x="55" y="347"/>
      <point x="55" y="260" type="qcurve"/>
      <point x="55" y="128"/>
      <point x="193" y="-12"/>
    </contour>
    <contour>
      <point x="317" y="61" type="qcurve"/>
      <point x="223" y="61"/>
      <point x="135" y="156"/>
      <point x="135" y="236" type="qcurve"/>
      <point x="135" y="266"/>
      <point x="142" y="306" type="qcurve"/>
      <point x="162" y="405" type="line"/>
      <point x="209" y="637"/>
      <point x="416" y="637" type="qcurve"/>
      <point x="491" y="637"/>
      <point x="537" y="626" type="qcurve"/>
      <point x="428" y="76" type="line"/>
      <point x="370" y="61"/>
    </contour>
  </outline>
</glyph>
<glyph name="racute" format="2">
  <advance width="364"/>
  <unicode hex="0155"/>
  <outline>
    <contour>
      <point x="113" y="0" type="line"/>
      <point x="175" y="307" type="line"/>
      <point x="185" y="361"/>
      <point x="264" y="437"/>
      <point x="336" y="437" type="qcurve"/>
      <point x="372" y="437" type="line"/>
      <point x="387" y="516" type="line"/>
      <point x="355" y="516" type="line"/>
      <point x="296" y="516"/>
      <point x="220" y="452"/>
      <point x="200" y="413" type="qcurve"/>
      <point x="195" y="413" type="line"/>
      <point x="217" y="516" type="line"/>
      <point x="140" y="516" type="line"/>
      <point x="36" y="0" type="line"/>
    </contour>
    <contour>
      <point x="290" y="585" type="line"/>
      <point x="414" y="744" type="line"/>
      <point x="346" y="780" type="line"/>
      <point x="242" y="610" type="line"/>
    </contour>
  </outline>
</glyph>
<glyph name="Rcedilla" format="2">
  <advance width="625"/>
  <unicode hex="0156"/>
  <outline>
    <contour>
      <point x="520" y="0" type="line"/>
      <point x="418" y="308" type="line"/>
      <point x="503" y="326"/>
      <point x="601" y="452"/>
      <point x="601" y="531" type="qcurve"/>
      <point x="601" y="603"/>
      <point x="520" y="698"/>
      <point x="428" y="698" type="qcurve"/>
      <point x="179" y="698" type="line"/>
      <point x="39" y="0" type="line"/>
      <point x="120" y="0" type="line"/>
      <point x="180" y="300" type="line"/>
      <point x="338" y="300" type="line"/>
      <point x="433" y="0" type="line"/>
    </contour>
    <contour>
      <point x="379" y="371" type="qcurve"/>
      <point x="195" y="371" type="line"/>
      <point x="245" y="626" type="line"/>
      <point x="422" y="626" type="line"/>
      <point x="517" y="626"/>
      <point x="517" y="545" type="qcurve"/>
      <point x="517" y="533"/>
      <point x="515" y="519" type="qcurve"/>
      <point x="505" y="471" type="line"/>
      <point x="495" y="422"/>
      <point x="429" y="371"/>
    </contour>
    <contour>
      <point x="225" y="-245" type="line"/>
      <point x="278" y="-197"/>
      <point x="295" y="-126" type="qcurve"/>
      <point x="298" y="-110" type="line"/>
      <point x="298" y="-102" type="line"/>
      <point x="298" y="-67"/>
      <point x="256" y="-66" type="qcurve"/>
      <point x="210" y="-66"/>
      <point x="200" y="-112" type="qcurve"/>
      <point x="199" y="-116" type="line"/>
      <point x="197" y="-130"/>
      <point x="197" y="-136" type="qcurve"/>
      <point x="197" y="-164"/>
      <point x="225" y="-169" type="qcurve"/>
      <point x="216" y="-189"/>
      <point x="192" y="-223"/>
      <point x="169" y="-245" type="qcurve"/>
    </contour>
  </outline>
</glyph>
<glyph name="Rcaron" format="2">
  <advance width="625"/>
  <unicode hex="0158"/>
  <outline>
    <contour>
      <point x="520" y="0" type="line"/>
      <point x="418" y="308" type="line"/>
      <point x="503" y="326"/>
      <point x="601" y="452"/>
      <point x="601" y="531" type="qcurve"/>
      <point x="601" y="603"/>
      <point x="520" y="698"/>
      <point x="428" y="698" type="qcurve"/>
      <point x="179" y="698" type="line"/>
      <point x="39" y="0" type="line"/>
      <point x="120" y="0" type="line"/>
      <point x="180" y="300" type="line"/>
      <point x="338" y="300" type="line"/>
      <point x="433" y="0" type="line"/>
    </contour>
    <contour>
      <point x="379" y="371" type="qcurve"/>
      <point x="195" y="371" type="line"/>
      <point x="245" y="626" type="line"/>
      <point x="422" y="626" type="line"/>
      <point x="517" y="626"/>
      <point x="517" y="545" type="qcurve"/>
      <point x="517" y="533"/>
      <point x="515" y="519" type="qcurve"/>
      <point x="505" y="471" type="line"/>
      <point x="495" y="422"/>
      <point x="429" y="371"/>
    </contour>
    <contour>
      <point x="453" y="769" type="line"/>
      <point x="592" y="912" type="line"/>
      <point x="551" y="944" type="line"/>
      <point x="411" y="827" type="line"/>
      <point x="321" y="943" type="line"/>
      <point x="277" y="912" type="line"/>
      <point x="359" y="769" type="line"/>
    </contour>
  </outline>
</glyph>
<glyph name="uni0163" format="2">
  <advance width="320"/>
  <unicode hex="0163"/>
  <outline>
    <contour>
      <point x="137" y="0" type="line" smooth="yes"/>
      <point x="67" y="0"/>
      <point x="67" y="64" type="qcurve" smooth="yes"/>
      <point x="67" y="82"/>
      <point x="71" y="98" type="qcurve"/>
      <point x="142" y="446" type="line"/>
      <point x="66" y="446" type="line"/>
      <point x="79" y="516" type="line"/>
      <point x="118" y="516" type="line" smooth="yes"/>
      <point x="146" y="516"/>
      <point x="166" y="538"/>
      <point x="170" y="565" type="qcurve"/>
      <point x="189" y="659" type="line"/>
      <point x="260" y="659" type="line"/>
      <point x="232" y="516" type="line"/>
      <point x="341" y="516" type="line"/>
      <point x="328" y="448" type="line"/>
      <point x="219" y="448" type="line"/>
      <point x="142" y="68" type="line"/>
      <point x="243" y="68" type="line"/>
      <point x="230" y="0" type="line"/>
    </contour>
    <contour>
      <point x="41" y="-245" type="line"/>
      <point x="64" y="-223"/>
      <point x="88" y="-189"/>
      <point x="97" y="-169" type="qcurve"/>
      <point x="69" y="-164"/>
      <point x="69" y="-136" type="qcurve" smooth="yes"/>
      <point x="69" y="-130"/>
      <point x="71" y="-116" type="qcurve"/>
      <point x="72" y="-112" type="line"/>
      <point x="82" y="-66"/>
      <point x="128" y="-66" type="qcurve"/>
      <point x="170" y="-67"/>
      <point x="170" y="-102" type="qcurve" smooth="yes"/>
      <point x="170" y="-110" type="line"/>
      <point x="167" y="-126" type="line"/>
      <point x="150" y="-197"/>
      <point x="97" y="-245" type="qcurve"/>
    </contour>
  </outline>
</glyph>
<glyph name="Tcaron" format="2">
  <advance width="557"/>
  <unicode hex="0164"/>
  <outline>
    <contour>
      <point x="336" y="769" type="line"/>
      <point x="254" y="912" type="line"/>
      <point x="298" y="943" type="line"/>
      <point x="388" y="827" type="line"/>
      <point x="528" y="944" type="line"/>
      <point x="569" y="912" type="line"/>
      <point x="430" y="769" type="line"/>
    </contour>
    <contour>
      <point x="186" y="0" type="line"/>
      <point x="311" y="626" type="line"/>
      <point x="98" y="626" type="line"/>
      <point x="112" y="698" type="line"/>
      <point x="619" y="698" type="line"/>
      <point x="605" y="626" type="line"/>
      <point x="392" y="626" type="line"/>
      <point x="267" y="0" type="line"/>
    </contour>
  </outline>
</glyph>
<glyph name="tbar" format="2">
  <advance width="326"/>
  <unicode hex="0167"/>
  <outline>
    <contour>
      <point x="233" y="0" type="line"/>
      <point x="246" y="68" type="line"/>
      <point x="145" y="68" type="line"/>
      <point x="182" y="253" type="line"/>
      <point x="271" y="253" type="line"/>
      <point x="282" y="307" type="line"/>
      <point x="193" y="307" type="line"/>
      <point x="222" y="448" type="line"/>
      <point x="331" y="448" type="line"/>
      <point x="344" y="516" type="line"/>
      <point x="235" y="516" type="line"/>
      <point x="263" y="659" type="line"/>
      <point x="192" y="659" type="line"/>
      <point x="173" y="565" type="line"/>
      <point x="169" y="538"/>
      <point x="149" y="516"/>
      <point x="121" y="516" type="qcurve"/>
      <point x="82" y="516" type="line"/>
      <point x="69" y="448" type="line"/>
      <point x="145" y="448" type="line"/>
      <point x="116" y="307" type="line"/>
      <point x="70" y="307" type="line"/>
      <point x="59" y="253" type="line"/>
      <point x="105" y="253" type="line"/>
      <point x="74" y="98" type="line"/>
      <point x="70" y="82"/>
      <point x="70" y="64" type="qcurve"/>
      <point x="70" y="0"/>
      <point x="140" y="0" type="qcurve"/>
    </contour>
  </outline>
</glyph>
<glyph name="Utilde" format="2">
  <advance width="656"/>
  <unicode hex="0168"/>
  <outline>
    <contour>
      <point x="280" y="-12" type="qcurve"/>
      <point x="405" y="-12"/>
      <point x="543" y="120"/>
      <point x="573" y="278" type="qcurve"/>
      <point x="657" y="698" type="line"/>
      <point x="576" y="698" type="line"/>
      <point x="493" y="284" type="line"/>
      <point x="470" y="164"/>
      <point x="373" y="61"/>
      <point x="289" y="61" type="qcurve"/>
      <point x="229" y="61"/>
      <point x="161" y="133"/>
      <point x="161" y="197" type="qcurve"/>
      <point x="161" y="214"/>
      <point x="162" y="230" type="qcurve"/>
      <point x="163" y="241"/>
      <point x="255" y="698" type="qcurve"/>
      <point x="174" y="698" type="line"/>
      <point x="93" y="294" type="line"/>
      <point x="82" y="236"/>
      <point x="82" y="189" type="qcurve"/>
      <point x="82" y="93"/>
      <point x="186" y="-12"/>
    </contour>
    <contour>
      <point x="500" y="782" type="qcurve"/>
      <point x="560" y="782"/>
      <point x="599" y="836" type="qcurve"/>
      <point x="572" y="874" type="line"/>
      <point x="555" y="861"/>
      <point x="528" y="847"/>
      <point x="512" y="847" type="qcurve"/>
      <point x="487" y="847"/>
      <point x="441" y="875" type="qcurve"/>
      <point x="428" y="883"/>
      <point x="395" y="897"/>
      <point x="372" y="897" type="qcurve"/>
      <point x="312" y="897"/>
      <point x="273" y="843" type="qcurve"/>
      <point x="300" y="805" type="line"/>
      <point x="317" y="818"/>
      <point x="344" y="832"/>
      <point x="360" y="832" type="qcurve"/>
      <point x="385" y="832"/>
      <point x="431" y="804" type="qcurve"/>
      <point x="444" y="796"/>
      <point x="477" y="782"/>
    </contour>
  </outline>
</glyph>
<glyph name="utilde" format="2">
  <advance width="562"/>
  <unicode hex="0169"/>
  <outline>
    <contour>
      <point x="195" y="-12" type="qcurve"/>
      <point x="303" y="-12"/>
      <point x="350" y="102" type="qcurve"/>
      <point x="355" y="102" type="line"/>
      <point x="349" y="72"/>
      <point x="349" y="63" type="qcurve"/>
      <point x="349" y="35"/>
      <point x="382" y="0"/>
      <point x="415" y="0" type="qcurve"/>
      <point x="485" y="0" type="line"/>
      <point x="498" y="68" type="line"/>
      <point x="425" y="68" type="line"/>
      <point x="515" y="516" type="line"/>
      <point x="438" y="516" type="line"/>
      <point x="380" y="228" type="line"/>
      <point x="374" y="199"/>
      <point x="357" y="164" type="qcurve"/>
      <point x="346" y="139"/>
      <point x="308" y="91"/>
      <point x="255" y="58"/>
      <point x="219" y="58" type="qcurve"/>
      <point x="177" y="58"/>
      <point x="142" y="102"/>
      <point x="142" y="145" type="qcurve"/>
      <point x="142" y="163"/>
      <point x="147" y="198" type="qcurve"/>
      <point x="211" y="516" type="line"/>
      <point x="134" y="516" type="line"/>
      <point x="70" y="198" type="line"/>
      <point x="63" y="160"/>
      <point x="63" y="131" type="qcurve"/>
      <point x="63" y="64"/>
      <point x="129" y="-12"/>
    </contour>
    <contour>
      <point x="417" y="612" type="qcurve"/>
      <point x="473" y="612"/>
      <point x="516" y="665" type="qcurve"/>
      <point x="488" y="704" type="line"/>
      <point x="471" y="691"/>
      <point x="445" y="677"/>
      <point x="428" y="677" type="qcurve"/>
      <point x="403" y="677"/>
      <point x="363" y="701" type="qcurve"/>
      <point x="349" y="710"/>
      <point x="315" y="726"/>
      <point x="289" y="726" type="qcurve"/>
      <point x="233" y="726"/>
      <point x="190" y="673" type="qcurve"/>
      <point x="218" y="634" type="line"/>
      <point x="235" y="647"/>
      <point x="261" y="661"/>
      <point x="278" y="661" type="qcurve"/>
      <point x="304" y="661"/>
      <point x="343" y="637" type="qcurve"/>
      <point x="357" y="628"/>
      <point x="391" y="612"/>
    </contour>
  </outline>
</glyph>
<glyph name="Umacron" format="2">
  <advance width="656"/>
  <unicode hex="016A"/>
  <outline>
    <contour>
      <point x="293" y="809" type="line"/>
      <point x="307" y="875" type="line"/>
      <point x="579" y="875" type="line"/>
      <point x="565" y="809" type="line"/>
    </contour>
    <contour>
      <point x="280" y="-12" type="qcurve" smooth="yes"/>
      <point x="186" y="-12"/>
      <point x="82" y="93"/>
      <point x="82" y="189" type="qcurve" smooth="yes"/>
      <point x="82" y="236"/>
      <point x="93" y="294" type="qcurve" smooth="yes"/>
      <point x="174" y="698" type="line"/>
      <point x="255" y="698" type="line"/>
      <point x="163" y="241"/>
      <point x="162" y="230" type="qcurve" smooth="yes"/>
      <point x="161" y="214"/>
      <point x="161" y="197" type="qcurve" smooth="yes"/>
      <point x="161" y="133"/>
      <point x="229" y="61"/>
      <point x="289" y="61" type="qcurve" smooth="yes"/>
      <point x="373" y="61"/>
      <point x="470" y="164"/>
      <point x="493" y="284" type="qcurve"/>
      <point x="576" y="698" type="line"/>
      <point x="657" y="698" type="line"/>
      <point x="573" y="278" type="line"/>
      <point x="543" y="120"/>
      <point x="405" y="-12"/>
    </contour>
  </outline>
</glyph>
<glyph name="Ubreve" format="2">
  <advance width="656"/>
  <unicode hex="016C"/>
  <outline>
    <contour>
      <point x="280" y="-12" type="qcurve"/>
      <point x="405" y="-12"/>
      <point x="543" y="120"/>
      <point x="573" y="278" type="qcurve"/>
      <point x="657" y="698" type="line"/>
      <point x="576" y="698" type="line"/>
      <point x="493" y="284" type="line"/>
      <point x="470" y="164"/>
      <point x="373" y="61"/>
      <point x="289" y="61" type="qcurve"/>
      <point x="229" y="61"/>
      <point x="161" y="133"/>
      <point x="161" y="197" type="qcurve"/>
      <point x="161" y="214"/>
      <point x="162" y="230" type="qcurve"/>
      <point x="163" y="241"/>
      <point x="255" y="698" type="qcurve"/>
      <point x="174" y="698" type="line"/>
      <point x="93" y="294" type="line"/>
      <point x="82" y="236"/>
      <point x="82" y="189" type="qcurve"/>
      <point x="82" y="93"/>
      <point x="186" y="-12"/>
    </contour>
    <contour>
      <point x="428" y="766" type="qcurve"/>
      <point x="493" y="766"/>
      <point x="538" y="812" type="qcurve"/>
      <point x="577" y="855"/>
      <point x="595" y="900" type="qcurve"/>
      <point x="547" y="920" type="line"/>
      <point x="530" y="898" type="line"/>
      <point x="502" y="860"/>
      <point x="457" y="827"/>
      <point x="430" y="827" type="qcurve"/>
      <point x="401" y="827"/>
      <point x="368" y="863"/>
      <point x="353" y="898" type="qcurve"/>
      <point x="343" y="920" type="line"/>
      <point x="297" y="900" type="line"/>
      <point x="301" y="857"/>
      <point x="329" y="813" type="qcurve"/>
      <point x="361" y="766"/>
    </contour>
  </outline>
</glyph>
<glyph name="ubreve" format="2">
  <advance width="562"/>
  <unicode hex="016D"/>
  <outline>
    <contour>
      <point x="195" y="-12" type="qcurve"/>
      <point x="303" y="-12"/>
      <point x="350" y="102" type="qcurve"/>
      <point x="355" y="102" type="line"/>
      <point x="349" y="72"/>
      <point x="349" y="63" type="qcurve"/>
      <point x="349" y="35"/>
      <point x="382" y="0"/>
      <point x="415" y="0" type="qcurve"/>
      <point x="485" y="0" type="line"/>
      <point x="498" y="68" type="line"/>
      <point x="425" y="68" type="line"/>
      <point x="515" y="516" type="line"/>
      <point x="438" y="516" type="line"/>
      <point x="380" y="228" type="line"/>
      <point x="374" y="199"/>
      <point x="357" y="164" type="qcurve"/>
      <point x="346" y="139"/>
      <point x="308" y="91"/>
      <point x="255" y="58"/>
      <point x="219" y="58" type="qcurve"/>
      <point x="177" y="58"/>
      <point x="142" y="102"/>
      <point x="142" y="145" type="qcurve"/>
      <point x="142" y="163"/>
      <point x="147" y="198" type="qcurve"/>
      <point x="211" y="516" type="line"/>
      <point x="134" y="516" type="line"/>
      <point x="70" y="198" type="line"/>
      <point x="63" y="160"/>
      <point x="63" y="131" type="qcurve"/>
      <point x="63" y="64"/>
      <point x="129" y="-12"/>
    </contour>
    <contour>
      <point x="343" y="596" type="qcurve"/>
      <point x="408" y="596"/>
      <point x="453" y="642" type="qcurve"/>
      <point x="492" y="685"/>
      <point x="510" y="730" type="qcurve"/>
      <point x="462" y="750" type="line"/>
      <point x="445" y="728" type="line"/>
      <point x="417" y="690"/>
      <point x="372" y="657"/>
      <point x="345" y="657" type="qcurve"/>
      <point x="316" y="657"/>
      <point x="283" y="693"/>
      <point x="268" y="728" type="qcurve"/>
      <point x="258" y="750" type="line"/>
      <point x="212" y="730" type="line"/>
      <point x="216" y="687"/>
      <point x="244" y="643" type="qcurve"/>
      <point x="276" y="596"/>
    </contour>
  </outline>
</glyph>
<glyph name="Uring" format="2">
  <advance width="656"/>
  <unicode hex="016E"/>
  <outline>
    <contour>
      <point x="280" y="-12" type="qcurve"/>
      <point x="405" y="-12"/>
      <point x="543" y="120"/>
      <point x="573" y="278" type="qcurve"/>
      <point x="657" y="698" type="line"/>
      <point x="576" y="698" type="line"/>
      <point x="493" y="284" type="line"/>
      <point x="470" y="164"/>
      <point x="373" y="61"/>
      <point x="289" y="61" type="qcurve"/>
      <point x="229" y="61"/>
      <point x="161" y="133"/>
      <point x="161" y="197" type="qcurve"/>
      <point x="161" y="214"/>
      <point x="162" y="230" type="qcurve"/>
      <point x="163" y="241"/>
      <point x="255" y="698" type="qcurve"/>
      <point x="174" y="698" type="line"/>
      <point x="93" y="294" type="line"/>
      <point x="82" y="236"/>
      <point x="82" y="189" type="qcurve"/>
      <point x="82" y="93"/>
      <point x="186" y="-12"/>
    </contour>
    <contour>
      <point x="426" y="746" type="qcurve"/>
      <point x="485" y="746"/>
      <point x="555" y="816"/>
      <point x="555" y="876" type="qcurve"/>
      <point x="555" y="919"/>
      <point x="500" y="976"/>
      <point x="455" y="976" type="qcurve"/>
      <point x="396" y="976"/>
      <point x="326" y="906"/>
      <point x="326" y="846" type="qcurve"/>
      <point x="326" y="803"/>
      <point x="381" y="746"/>
    </contour>
    <contour>
      <point x="432" y="794" type="qcurve"/>
      <point x="383" y="794"/>
      <point x="382" y="841" type="qcurve"/>
      <point x="382" y="853"/>
      <point x="386" y="872" type="qcurve"/>
      <point x="397" y="928"/>
      <point x="449" y="928" type="qcurve"/>
      <point x="499" y="928"/>
      <point x="499" y="881" type="qcurve"/>
      <point x="499" y="869"/>
      <point x="495" y="850" type="qcurve"/>
      <point x="485" y="794"/>
    </contour>
  </outline>
</glyph>
<glyph name="uring" format="2">
  <advance width="562"/>
  <unicode hex="016F"/>
  <outline>
    <contour>
      <point x="195" y="-12" type="qcurve"/>
      <point x="303" y="-12"/>
      <point x="350" y="102" type="qcurve"/>
      <point x="355" y="102" type="line"/>
      <point x="349" y="72"/>
      <point x="349" y="63" type="qcurve"/>
      <point x="349" y="35"/>
      <point x="382" y="0"/>
      <point x="415" y="0" type="qcurve"/>
      <point x="485" y="0" type="line"/>
      <point x="498" y="68" type="line"/>
      <point x="425" y="68" type="line"/>
      <point x="515" y="516" type="line"/>
      <point x="438" y="516" type="line"/>
      <point x="380" y="228" type="line"/>
      <point x="374" y="199"/>
      <point x="357" y="164" type="qcurve"/>
      <point x="346" y="139"/>
      <point x="308" y="91"/>
      <point x="255" y="58"/>
      <point x="219" y="58" type="qcurve"/>
      <point x="177" y="58"/>
      <point x="142" y="102"/>
      <point x="142" y="145" type="qcurve"/>
      <point x="142" y="163"/>
      <point x="147" y="198" type="qcurve"/>
      <point x="211" y="516" type="line"/>
      <point x="134" y="516" type="line"/>
      <point x="70" y="198" type="line"/>
      <point x="63" y="160"/>
      <point x="63" y="131" type="qcurve"/>
      <point x="63" y="64"/>
      <point x="129" y="-12"/>
    </contour>
    <contour>
      <point x="343" y="576" type="qcurve"/>
      <point x="402" y="576"/>
      <point x="472" y="646"/>
      <point x="472" y="706" type="qcurve"/>
      <point x="472" y="749"/>
      <point x="417" y="806"/>
      <point x="372" y="806" type="qcurve"/>
      <point x="313" y="806"/>
      <point x="243" y="736"/>
      <point x="243" y="676" type="qcurve"/>
      <point x="243" y="633"/>
      <point x="298" y="576"/>
    </contour>
    <contour>
      <point x="349" y="624" type="qcurve"/>
      <point x="300" y="624"/>
      <point x="299" y="671" type="qcurve"/>
      <point x="299" y="683"/>
      <point x="303" y="702" type="qcurve"/>
      <point x="314" y="758"/>
      <point x="366" y="758" type="qcurve"/>
      <point x="416" y="758"/>
      <point x="416" y="711" type="qcurve"/>
      <point x="416" y="699"/>
      <point x="412" y="680" type="qcurve"/>
      <point x="402" y="624"/>
    </contour>
  </outline>
</glyph>
<glyph name="uhungarumlaut" format="2">
  <advance width="562"/>
  <unicode hex="0171"/>
  <outline>
    <contour>
      <point x="228" y="608" type="line"/>
      <point x="333" y="779" type="line"/>
      <point x="396" y="745" type="line"/>
      <point x="273" y="586" type="line"/>
    </contour>
    <contour>
      <point x="385" y="608" type="line"/>
      <point x="489" y="779" type="line"/>
      <point x="553" y="745" type="line"/>
      <point x="430" y="586" type="line"/>
    </contour>
    <contour>
      <point x="195" y="-12" type="qcurve" smooth="yes"/>
      <point x="129" y="-12"/>
      <point x="63" y="64"/>
      <point x="63" y="131" type="qcurve" smooth="yes"/>
      <point x="63" y="160"/>
      <point x="70" y="198" type="qcurve" smooth="yes"/>
      <point x="134" y="516" type="line"/>
      <point x="211" y="516" type="line"/>
      <point x="147" y="198" type="line"/>
      <point x="142" y="163"/>
      <point x="142" y="145" type="qcurve" smooth="yes"/>
      <point x="142" y="102"/>
      <point x="177" y="58"/>
      <point x="219" y="58" type="qcurve" smooth="yes"/>
      <point x="255" y="58"/>
      <point x="308" y="91"/>
      <point x="346" y="139"/>
      <point x="357" y="164" type="qcurve"/>
      <point x="374" y="199"/>
      <point x="380" y="228" type="qcurve" smooth="yes"/>
      <point x="438" y="516" type="line"/>
      <point x="515" y="516" type="line"/>
      <point x="425" y="68" type="line"/>
      <point x="498" y="68" type="line"/>
      <point x="485" y="0" type="line"/>
      <point x="415" y="0" type="line" smooth="yes"/>
      <point x="382" y="0"/>
      <point x="349" y="35"/>
      <point x="349" y="63" type="qcurve" smooth="yes"/>
      <point x="349" y="72"/>
      <point x="355" y="102" type="qcurve"/>
      <point x="350" y="102" type="line"/>
      <point x="303" y="-12"/>
    </contour>
  </outline>
</glyph>
<glyph name="Uogonek" format="2">
  <advance width="656"/>
  <unicode hex="0172"/>
  <outline>
    <contour>
      <point x="279" y="-207" type="qcurve"/>
      <point x="343" y="-207"/>
      <point x="375" y="-170" type="qcurve"/>
      <point x="338" y="-126" type="line"/>
      <point x="308" y="-153"/>
      <point x="284" y="-153" type="qcurve"/>
      <point x="270" y="-153"/>
      <point x="251" y="-138"/>
      <point x="251" y="-122" type="qcurve"/>
      <point x="251" y="-114"/>
      <point x="255" y="-103" type="qcurve"/>
      <point x="262" y="-80"/>
      <point x="305" y="-46" type="qcurve"/>
      <point x="327" y="-29"/>
      <point x="391" y="6"/>
      <point x="453" y="36"/>
      <point x="509" y="92"/>
      <point x="556" y="193"/>
      <point x="573" y="278" type="qcurve"/>
      <point x="657" y="698" type="line"/>
      <point x="576" y="698" type="line"/>
      <point x="493" y="284" type="line"/>
      <point x="470" y="164"/>
      <point x="373" y="61"/>
      <point x="289" y="61" type="qcurve"/>
      <point x="229" y="61"/>
      <point x="161" y="133"/>
      <point x="161" y="197" type="qcurve"/>
      <point x="161" y="214"/>
      <point x="162" y="230" type="qcurve"/>
      <point x="163" y="241"/>
      <point x="255" y="698" type="qcurve"/>
      <point x="174" y="698" type="line"/>
      <point x="93" y="294" type="line"/>
      <point x="82" y="236"/>
      <point x="82" y="189" type="qcurve"/>
      <point x="82" y="93"/>
      <point x="186" y="-12"/>
      <point x="292" y="-12" type="qcurve"/>
      <point x="293" y="-16" type="line"/>
      <point x="183" y="-59"/>
      <point x="183" y="-132" type="qcurve"/>
      <point x="183" y="-172"/>
      <point x="242" y="-207"/>
    </contour>
  </outline>
</glyph>
<glyph name="Wcircumflex" format="2">
  <advance width="862"/>
  <unicode hex="0174"/>
  <outline>
    <contour>
      <point x="367" y="793" type="line"/>
      <point x="506" y="935" type="line"/>
      <point x="600" y="935" type="line"/>
      <point x="682" y="792" type="line"/>
      <point x="639" y="762" type="line"/>
      <point x="546" y="877" type="line"/>
      <point x="407" y="761" type="line"/>
    </contour>
    <contour>
      <point x="529" y="0" type="line"/>
      <point x="514" y="303"/>
      <point x="501" y="606" type="qcurve"/>
      <point x="496" y="606" type="line"/>
      <point x="226" y="0" type="line"/>
      <point x="132" y="0" type="line"/>
      <point x="103" y="698" type="line"/>
      <point x="184" y="698" type="line"/>
      <point x="199" y="101" type="line"/>
      <point x="203" y="101" type="line"/>
      <point x="340" y="416" type="line"/>
      <point x="466" y="698" type="line"/>
      <point x="562" y="698" type="line"/>
      <point x="591" y="102" type="line"/>
      <point x="595" y="102" type="line"/>
      <point x="851" y="698" type="line"/>
      <point x="935" y="698" type="line"/>
      <point x="622" y="0" type="line"/>
    </contour>
  </outline>
</glyph>
<glyph name="Ycircumflex" format="2">
  <advance width="577"/>
  <unicode hex="0176"/>
  <outline>
    <contour>
      <point x="219" y="793" type="line"/>
      <point x="358" y="935" type="line"/>
      <point x="452" y="935" type="line"/>
      <point x="534" y="792" type="line"/>
      <point x="491" y="762" type="line"/>
      <point x="398" y="877" type="line"/>
      <point x="259" y="761" type="line"/>
    </contour>
    <contour>
      <point x="196" y="0" type="line"/>
      <point x="251" y="273" type="line"/>
      <point x="105" y="698" type="line"/>
      <point x="187" y="698" type="line"/>
      <point x="303" y="357" type="line"/>
      <point x="308" y="357" type="line"/>
      <point x="558" y="698" type="line"/>
      <point x="651" y="698" type="line"/>
      <point x="332" y="273" type="line"/>
      <point x="277" y="0" type="line"/>
    </contour>
  </outline>
</glyph>
<glyph name="ycircumflex" format="2">
  <advance width="484"/>
  <unicode hex="0177"/>
  <outline>
    <contour>
      <point x="150" y="622" type="line"/>
      <point x="288" y="765" type="line"/>
      <point x="382" y="765" type="line"/>
      <point x="464" y="622" type="line"/>
      <point x="421" y="591" type="line"/>
      <point x="328" y="706" type="line"/>
      <point x="189" y="590" type="line"/>
    </contour>
    <contour>
      <point x="-20" y="-200" type="line"/>
      <point x="-7" y="-134" type="line"/>
      <point x="86" y="-134" type="line"/>
      <point x="150" y="-16" type="line"/>
      <point x="68" y="516" type="line"/>
      <point x="143" y="516" type="line"/>
      <point x="181" y="261" type="line"/>
      <point x="202" y="73" type="line"/>
      <point x="207" y="73" type="line"/>
      <point x="300" y="261" type="line"/>
      <point x="438" y="516" type="line"/>
      <point x="520" y="516" type="line"/>
      <point x="171" y="-117" type="line" smooth="yes"/>
      <point x="147" y="-162"/>
      <point x="99" y="-200"/>
      <point x="60" y="-200" type="qcurve" smooth="yes"/>
    </contour>
  </outline>
</glyph>
<glyph name="Ydieresis" format="2">
  <advance width="577"/>
  <unicode hex="0178"/>
  <outline>
    <contour>
      <point x="288" y="787" type="qcurve"/>
      <point x="246" y="788"/>
      <point x="246" y="822" type="qcurve" smooth="yes"/>
      <point x="246" y="827"/>
      <point x="249" y="845" type="qcurve"/>
      <point x="259" y="892"/>
      <point x="305" y="892" type="qcurve" smooth="yes"/>
      <point x="347" y="892"/>
      <point x="347" y="857" type="qcurve" smooth="yes"/>
      <point x="347" y="853"/>
      <point x="344" y="834" type="qcurve" smooth="yes"/>
      <point x="335" y="787"/>
    </contour>
    <contour>
      <point x="470" y="787" type="qcurve"/>
      <point x="428" y="788"/>
      <point x="428" y="822" type="qcurve" smooth="yes"/>
      <point x="428" y="827"/>
      <point x="431" y="845" type="qcurve"/>
      <point x="441" y="892"/>
      <point x="487" y="892" type="qcurve" smooth="yes"/>
      <point x="529" y="892"/>
      <point x="529" y="857" type="qcurve" smooth="yes"/>
      <point x="529" y="853"/>
      <point x="526" y="834" type="qcurve" smooth="yes"/>
      <point x="517" y="787"/>
    </contour>
    <contour>
      <point x="196" y="0" type="line"/>
      <point x="251" y="273" type="line"/>
      <point x="105" y="698" type="line"/>
      <point x="187" y="698" type="line"/>
      <point x="303" y="357" type="line"/>
      <point x="308" y="357" type="line"/>
      <point x="558" y="698" type="line"/>
      <point x="651" y="698" type="line"/>
      <point x="332" y="273" type="line"/>
      <point x="277" y="0" type="line"/>
    </contour>
  </outline>
</glyph>
<glyph name="Zacute" format="2">
  <advance width="563"/>
  <unicode hex="0179"/>
  <outline>
    <contour>
      <point x="472" y="0" type="line"/>
      <point x="487" y="72" type="line"/>
      <point x="95" y="72" type="line"/>
      <point x="587" y="620" type="line"/>
      <point x="603" y="698" type="line"/>
      <point x="134" y="698" type="line"/>
      <point x="119" y="626" type="line"/>
      <point x="493" y="626" type="line"/>
      <point x="1" y="78" type="line"/>
      <point x="-15" y="0" type="line"/>
    </contour>
    <contour>
      <point x="378" y="756" type="line"/>
      <point x="501" y="914" type="line"/>
      <point x="433" y="950" type="line"/>
      <point x="329" y="781" type="line"/>
    </contour>
  </outline>
</glyph>
<glyph name="zdotaccent" format="2">
  <advance width="448"/>
  <unicode hex="017C"/>
  <outline>
    <contour>
      <point x="368" y="0" type="line"/>
      <point x="381" y="68" type="line"/>
      <point x="101" y="68" type="line"/>
      <point x="444" y="450" type="line"/>
      <point x="457" y="516" type="line"/>
      <point x="98" y="516" type="line"/>
      <point x="85" y="448" type="line"/>
      <point x="351" y="448" type="line"/>
      <point x="8" y="66" type="line"/>
      <point x="-5" y="0" type="line"/>
    </contour>
    <contour>
      <point x="302" y="616" type="qcurve"/>
      <point x="349" y="616"/>
      <point x="358" y="663" type="qcurve"/>
      <point x="361" y="680"/>
      <point x="361" y="684" type="qcurve"/>
      <point x="361" y="719"/>
      <point x="319" y="719" type="qcurve"/>
      <point x="273" y="719"/>
      <point x="263" y="672" type="qcurve"/>
      <point x="260" y="661"/>
      <point x="260" y="651" type="qcurve"/>
      <point x="260" y="617"/>
    </contour>
  </outline>
</glyph>
<glyph name="Zcaron" format="2">
  <advance width="563"/>
  <unicode hex="017D"/>
  <outline>
    <contour>
      <point x="472" y="0" type="line"/>
      <point x="487" y="72" type="line"/>
      <point x="95" y="72" type="line"/>
      <point x="587" y="620" type="line"/>
      <point x="603" y="698" type="line"/>
      <point x="134" y="698" type="line"/>
      <point x="119" y="626" type="line"/>
      <point x="493" y="626" type="line"/>
      <point x="1" y="78" type="line"/>
      <point x="-15" y="0" type="line"/>
    </contour>
    <contour>
      <point x="416" y="769" type="line"/>
      <point x="555" y="912" type="line"/>
      <point x="514" y="944" type="line"/>
      <point x="374" y="827" type="line"/>
      <point x="284" y="943" type="line"/>
      <point x="240" y="912" type="line"/>
      <point x="322" y="769" type="line"/>
    </contour>
  </outline>
</glyph>
<glyph name="zcaron" format="2">
  <advance width="448"/>
  <unicode hex="017E"/>
  <outline>
    <contour>
      <point x="368" y="0" type="line"/>
      <point x="381" y="68" type="line"/>
      <point x="101" y="68" type="line"/>
      <point x="444" y="450" type="line"/>
      <point x="457" y="516" type="line"/>
      <point x="98" y="516" type="line"/>
      <point x="85" y="448" type="line"/>
      <point x="351" y="448" type="line"/>
      <point x="8" y="66" type="line"/>
      <point x="-5" y="0" type="line"/>
    </contour>
    <contour>
      <point x="346" y="599" type="line"/>
      <point x="484" y="742" type="line"/>
      <point x="443" y="774" type="line"/>
      <point x="303" y="657" type="line"/>
      <point x="213" y="773" type="line"/>
      <point x="169" y="742" type="line"/>
      <point x="251" y="599" type="line"/>
    </contour>
  </outline>
</glyph>
<glyph name="Uhorn" format="2">
  <advance width="656"/>
  <unicode hex="01AF"/>
  <outline>
    <contour>
      <point x="280" y="-12" type="qcurve"/>
      <point x="405" y="-12"/>
      <point x="543" y="120"/>
      <point x="573" y="278" type="qcurve"/>
      <point x="646" y="646" type="line"/>
      <point x="667" y="646" type="line"/>
      <point x="702" y="646"/>
      <point x="732" y="681"/>
      <point x="736" y="708" type="qcurve"/>
      <point x="756" y="810" type="line"/>
      <point x="688" y="810" type="line"/>
      <point x="666" y="698" type="line"/>
      <point x="576" y="698" type="line"/>
      <point x="493" y="284" type="line"/>
      <point x="470" y="164"/>
      <point x="373" y="61"/>
      <point x="289" y="61" type="qcurve"/>
      <point x="229" y="61"/>
      <point x="161" y="133"/>
      <point x="161" y="197" type="qcurve"/>
      <point x="161" y="214"/>
      <point x="162" y="230" type="qcurve"/>
      <point x="163" y="241"/>
      <point x="255" y="698" type="qcurve"/>
      <point x="174" y="698" type="line"/>
      <point x="93" y="294" type="line"/>
      <point x="82" y="236"/>
      <point x="82" y="189" type="qcurve"/>
      <point x="82" y="93"/>
      <point x="186" y="-12"/>
    </contour>
  </outline>
</glyph>
<glyph name="Aringacute" format="2">
  <advance width="623"/>
  <unicode hex="01FA"/>
  <outline>
    <contour>
      <point x="547" y="0" type="line"/>
      <point x="453" y="698" type="line"/>
      <point x="346" y="698" type="line"/>
      <point x="-27" y="0" type="line"/>
      <point x="59" y="0" type="line"/>
      <point x="167" y="206" type="line"/>
      <point x="438" y="206" type="line"/>
      <point x="464" y="0" type="line"/>
    </contour>
    <contour>
      <point x="430" y="278" type="line"/>
      <point x="204" y="278" type="line"/>
      <point x="382" y="621" type="line"/>
      <point x="387" y="621" type="line"/>
    </contour>
    <contour>
      <point x="452" y="986" type="line"/>
      <point x="558" y="1082" type="line"/>
      <point x="504" y="1120" type="line"/>
      <point x="415" y="1013" type="line"/>
    </contour>
    <contour>
      <point x="411" y="736" type="qcurve"/>
      <point x="470" y="736"/>
      <point x="540" y="807"/>
      <point x="540" y="867" type="qcurve"/>
      <point x="540" y="910"/>
      <point x="485" y="967"/>
      <point x="440" y="967" type="qcurve"/>
      <point x="381" y="967"/>
      <point x="311" y="896"/>
      <point x="311" y="836" type="qcurve"/>
      <point x="311" y="793"/>
      <point x="366" y="736"/>
    </contour>
    <contour>
      <point x="417" y="783" type="qcurve"/>
      <point x="368" y="783"/>
      <point x="367" y="831" type="qcurve"/>
      <point x="367" y="843"/>
      <point x="371" y="863" type="qcurve"/>
      <point x="382" y="919"/>
      <point x="434" y="919" type="qcurve"/>
      <point x="484" y="919"/>
      <point x="484" y="872" type="qcurve"/>
      <point x="484" y="860"/>
      <point x="480" y="840" type="qcurve"/>
      <point x="470" y="783"/>
    </contour>
  </outline>
</glyph>
<glyph name="jdotless" format="2">
  <advance width="253"/>
  <unicode hex="0237"/>
  <outline>
    <contour>
      <point x="-20" y="-200" type="line"/>
      <point x="33" y="-200"/>
      <point x="84" y="-151"/>
      <point x="94" y="-98" type="qcurve"/>
      <point x="217" y="516" type="line"/>
      <point x="140" y="516" type="line"/>
      <point x="10" y="-132" type="line"/>
      <point x="-73" y="-132" type="line"/>
      <point x="-87" y="-200" type="line"/>
    </contour>
  </outline>
</glyph>
<glyph name="apostrophemod" format="2">
  <advance width="593"/>
  <unicode hex="02BC"/>
  <outline>
    <contour>
      <point x="312" y="555" type="line"/>
      <point x="387" y="740" type="line"/>
      <point x="294" y="740" type="line"/>
      <point x="259" y="555" type="line"/>
    </contour>
  </outline>
</glyph>
<glyph name="dotaccent" format="2">
  <advance width="593"/>
  <unicode hex="02D9"/>
  <outline>
    <contour>
      <point x="310" y="616" type="qcurve"/>
      <point x="268" y="617"/>
      <point x="268" y="651" type="qcurve" smooth="yes"/>
      <point x="268" y="661"/>
      <point x="271" y="672" type="qcurve"/>
      <point x="281" y="719"/>
      <point x="327" y="719" type="qcurve" smooth="yes"/>
      <point x="369" y="719"/>
      <point x="369" y="684" type="qcurve" smooth="yes"/>
      <point x="369" y="680"/>
      <point x="366" y="663" type="qcurve" smooth="yes"/>
      <point x="357" y="616"/>
    </contour>
  </outline>
</glyph>
<glyph name="dotaccentmod" format="2">
  <advance width="593"/>
  <unicode hex="02D9"/>
  <outline>
    <contour>
      <point x="310" y="616" type="qcurve"/>
      <point x="357" y="616"/>
      <point x="366" y="663" type="qcurve"/>
      <point x="369" y="680"/>
      <point x="369" y="684" type="qcurve"/>
      <point x="369" y="719"/>
      <point x="327" y="719" type="qcurve"/>
      <point x="281" y="719"/>
      <point x="271" y="672" type="qcurve"/>
      <point x="268" y="661"/>
      <point x="268" y="651" type="qcurve"/>
      <point x="268" y="617"/>
    </contour>
  </outline>
</glyph>
<glyph name="ogonek" format="2">
  <advance width="593"/>
  <unicode hex="02DB"/>
  <outline>
    <contour>
      <point x="200" y="-207" type="qcurve" smooth="yes"/>
      <point x="163" y="-207"/>
      <point x="104" y="-172"/>
      <point x="104" y="-132" type="qcurve" smooth="yes"/>
      <point x="104" y="-90"/>
      <point x="171" y="-31"/>
      <point x="229" y="-5" type="qcurve"/>
      <point x="226" y="12" type="line"/>
      <point x="278" y="18" type="line"/>
      <point x="290" y="0" type="line"/>
      <point x="189" y="-68"/>
      <point x="176" y="-104" type="qcurve" smooth="yes"/>
      <point x="172" y="-114"/>
      <point x="172" y="-122" type="qcurve" smooth="yes"/>
      <point x="172" y="-138"/>
      <point x="191" y="-153"/>
      <point x="205" y="-153" type="qcurve" smooth="yes"/>
      <point x="229" y="-153"/>
      <point x="259" y="-126" type="qcurve"/>
      <point x="296" y="-170" type="line"/>
      <point x="264" y="-207"/>
    </contour>
  </outline>
</glyph>
<glyph name="ogonekmod" format="2">
  <advance width="593"/>
  <unicode hex="02DB"/>
  <outline>
    <contour>
      <point x="200" y="-207" type="qcurve"/>
      <point x="264" y="-207"/>
      <point x="296" y="-170" type="qcurve"/>
      <point x="259" y="-126" type="line"/>
      <point x="229" y="-153"/>
      <point x="205" y="-153" type="qcurve"/>
      <point x="191" y="-153"/>
      <point x="172" y="-138"/>
      <point x="172" y="-122" type="qcurve"/>
      <point x="172" y="-114"/>
      <point x="176" y="-104" type="qcurve"/>
      <point x="189" y="-68"/>
      <point x="290" y="0" type="qcurve"/>
      <point x="278" y="18" type="line"/>
      <point x="226" y="12" type="line"/>
      <point x="229" y="-5" type="line"/>
      <point x="171" y="-31"/>
      <point x="104" y="-90"/>
      <point x="104" y="-132" type="qcurve"/>
      <point x="104" y="-172"/>
      <point x="163" y="-207"/>
    </contour>
  </outline>
</glyph>
<glyph name="tilde" format="2">
  <advance width="593"/>
  <unicode hex="02DC"/>
  <outline>
    <contour>
      <point x="380" y="612" type="qcurve" smooth="yes"/>
      <point x="354" y="612"/>
      <point x="320" y="628"/>
      <point x="306" y="637" type="qcurve" smooth="yes"/>
      <point x="267" y="661"/>
      <point x="241" y="661" type="qcurve" smooth="yes"/>
      <point x="224" y="661"/>
      <point x="198" y="647"/>
      <point x="181" y="634" type="qcurve"/>
      <point x="153" y="673" type="line"/>
      <point x="196" y="726"/>
      <point x="252" y="726" type="qcurve" smooth="yes"/>
      <point x="278" y="726"/>
      <point x="312" y="710"/>
      <point x="326" y="701" type="qcurve" smooth="yes"/>
      <point x="366" y="677"/>
      <point x="391" y="677" type="qcurve" smooth="yes"/>
      <point x="408" y="677"/>
      <point x="434" y="691"/>
      <point x="451" y="704" type="qcurve"/>
      <point x="479" y="665" type="line"/>
      <point x="436" y="612"/>
    </contour>
  </outline>
</glyph>
<glyph name="tildemod" format="2">
  <advance width="593"/>
  <unicode hex="02DC"/>
  <outline>
    <contour>
      <point x="380" y="612" type="qcurve"/>
      <point x="436" y="612"/>
      <point x="479" y="665" type="qcurve"/>
      <point x="451" y="704" type="line"/>
      <point x="434" y="691"/>
      <point x="408" y="677"/>
      <point x="391" y="677" type="qcurve"/>
      <point x="366" y="677"/>
      <point x="326" y="701" type="qcurve"/>
      <point x="312" y="710"/>
      <point x="278" y="726"/>
      <point x="252" y="726" type="qcurve"/>
      <point x="196" y="726"/>
      <point x="153" y="673" type="qcurve"/>
      <point x="181" y="634" type="line"/>
      <point x="198" y="647"/>
      <point x="224" y="661"/>
      <point x="241" y="661" type="qcurve"/>
      <point x="267" y="661"/>
      <point x="306" y="637" type="qcurve"/>
      <point x="320" y="628"/>
      <point x="354" y="612"/>
    </contour>
  </outline>
</glyph>
<glyph name="doubleacutemod" format="2">
  <advance width="593"/>
  <unicode hex="02DD"/>
  <outline>
    <contour>
      <point x="236" y="586" type="line"/>
      <point x="359" y="745" type="line"/>
      <point x="296" y="779" type="line"/>
      <point x="191" y="608" type="line"/>
    </contour>
    <contour>
      <point x="393" y="586" type="line"/>
      <point x="516" y="745" type="line"/>
      <point x="452" y="779" type="line"/>
      <point x="348" y="608" type="line"/>
    </contour>
  </outline>
</glyph>
<glyph name="gravecomb" format="2">
  <advance width="0"/>
  <unicode hex="0300"/>
  <outline>
    <contour>
      <point x="0" y="585" type="line"/>
      <point x="45" y="606" type="line"/>
      <point x="-16" y="776" type="line"/>
      <point x="-84" y="744" type="line"/>
    </contour>
  </outline>
</glyph>
<glyph name="tildecomb" format="2">
  <advance width="0"/>
  <unicode hex="0303"/>
  <outline>
    <contour>
      <point x="91" y="612" type="qcurve"/>
      <point x="147" y="612"/>
      <point x="190" y="665" type="qcurve"/>
      <point x="162" y="704" type="line"/>
      <point x="145" y="691"/>
      <point x="119" y="677"/>
      <point x="102" y="677" type="qcurve"/>
      <point x="77" y="677"/>
      <point x="37" y="701" type="qcurve"/>
      <point x="23" y="710"/>
      <point x="-11" y="726"/>
      <point x="-37" y="726" type="qcurve"/>
      <point x="-93" y="726"/>
      <point x="-136" y="673" type="qcurve"/>
      <point x="-108" y="634" type="line"/>
      <point x="-91" y="647"/>
      <point x="-65" y="661"/>
      <point x="-48" y="661" type="qcurve"/>
      <point x="-22" y="661"/>
      <point x="17" y="637" type="qcurve"/>
      <point x="31" y="628"/>
      <point x="65" y="612"/>
    </contour>
  </outline>
</glyph>
